<svg width="82" height="28" viewBox="0 0 82 28" fill="none" xmlns="http://www.w3.org/2000/svg">
<mask id="path-1-inside-1_317_10285" fill="white">
<path d="M0 14C0 6.26801 6.26801 0 14 0H68C75.732 0 82 6.26801 82 14C82 21.732 75.732 28 68 28H14C6.26801 28 0 21.732 0 14Z"/>
</mask>
<path d="M0 14C0 6.26801 6.26801 0 14 0H68C75.732 0 82 6.26801 82 14C82 21.732 75.732 28 68 28H14C6.26801 28 0 21.732 0 14Z" fill="#B2872E" fill-opacity="0.2"/>
<path d="M14 0V1H68V0V-1H14V0ZM68 28V27H14V28V29H68V28ZM14 28V27C6.8203 27 1 21.1797 1 14H0H-1C-1 22.2843 5.71573 29 14 29V28ZM82 14H81C81 21.1797 75.1797 27 68 27V28V29C76.2843 29 83 22.2843 83 14H82ZM68 0V1C75.1797 1 81 6.8203 81 14H82H83C83 5.71573 76.2843 -1 68 -1V0ZM14 0V-1C5.71573 -1 -1 5.71573 -1 14H0H1C1 6.8203 6.8203 1 14 1V0Z" fill="#B2872E" fill-opacity="0.3" mask="url(#path-1-inside-1_317_10285)"/>
<path d="M18.6519 7.8C19.9105 7.8 20.9985 8.02933 21.9159 8.488C22.8332 8.936 23.5372 9.58133 24.0279 10.424C24.5292 11.256 24.7799 12.248 24.7799 13.4C24.7799 14.552 24.5292 15.5493 24.0279 16.392C23.5372 17.224 22.8332 17.8693 21.9159 18.328C20.9985 18.776 19.9105 19 18.6519 19H14.8439L14.8279 18.328C15.1372 18.328 15.4572 18.328 15.7879 18.328C16.1292 18.328 16.4599 18.328 16.7799 18.328C17.0999 18.328 17.3825 18.328 17.6279 18.328C17.8839 18.328 18.0865 18.328 18.2359 18.328C18.3852 18.328 18.4599 18.328 18.4599 18.328C19.2279 18.328 19.8892 18.1307 20.4439 17.736C20.9985 17.3307 21.4252 16.76 21.7239 16.024C22.0225 15.288 22.1719 14.4133 22.1719 13.4C22.1719 12.3867 22.0225 11.512 21.7239 10.776C21.4252 10.04 20.9985 9.47467 20.4439 9.08C19.8892 8.67467 19.2279 8.472 18.4599 8.472C18.4599 8.472 18.3799 8.472 18.2199 8.472C18.0705 8.472 17.8625 8.472 17.5959 8.472C17.3292 8.472 17.0305 8.472 16.6999 8.472C16.3692 8.472 16.0279 8.472 15.6759 8.472C15.3239 8.472 14.9879 8.472 14.6679 8.472V7.8H18.6519ZM16.4759 7.8V19H14.0759V7.8H16.4759ZM14.1239 17.832V19H12.8439V18.84C12.8439 18.84 12.8759 18.84 12.9399 18.84C13.0145 18.84 13.0519 18.84 13.0519 18.84C13.3292 18.84 13.5639 18.744 13.7559 18.552C13.9585 18.3493 14.0652 18.1093 14.0759 17.832H14.1239ZM14.1239 8.968H14.0759C14.0759 8.69067 13.9745 8.456 13.7719 8.264C13.5692 8.06133 13.3292 7.96 13.0519 7.96C13.0519 7.96 13.0199 7.96 12.9559 7.96C12.8919 7.96 12.8599 7.96 12.8599 7.96L12.8439 7.8H14.1239V8.968ZM29.0763 9.4V19H26.7723V9.4H29.0763ZM32.8203 18.36L33.1883 19H29.0443V18.36H32.8203ZM32.2763 13.928V14.568H29.0443V13.928H32.2763ZM32.9963 9.4V10.04H29.0443V9.4H32.9963ZM33.8443 16.056L33.2362 19H30.4683L30.9643 18.36C31.4229 18.36 31.8283 18.2693 32.1803 18.088C32.5429 17.896 32.8523 17.6293 33.1083 17.288C33.3643 16.936 33.5616 16.5253 33.7003 16.056H33.8443ZM32.2763 14.536V15.944H32.1163V15.816C32.1163 15.464 32.0043 15.1707 31.7803 14.936C31.5669 14.7013 31.2736 14.5787 30.9003 14.568V14.536H32.2763ZM32.2763 12.552V13.96H30.9003V13.928C31.2736 13.9173 31.5669 13.7947 31.7803 13.56C32.0043 13.3147 32.1163 13.016 32.1163 12.664V12.552H32.2763ZM32.9963 10.008V11.704H32.8363V11.56C32.8363 11.0907 32.7083 10.7227 32.4523 10.456C32.2069 10.1893 31.8496 10.0507 31.3803 10.04V10.008H32.9963ZM32.9963 9.16V9.544L31.3163 9.4C31.6256 9.4 31.9509 9.37333 32.2923 9.32C32.6336 9.256 32.8683 9.20267 32.9963 9.16ZM26.8043 17.992L26.8843 19H25.7003V18.84C25.7003 18.84 25.7323 18.84 25.7963 18.84C25.8603 18.84 25.8976 18.84 25.9083 18.84C26.1429 18.84 26.3403 18.76 26.5003 18.6C26.6709 18.4293 26.7616 18.2267 26.7723 17.992H26.8043ZM26.8043 10.408H26.7723C26.7616 10.1627 26.6709 9.96 26.5003 9.8C26.3403 9.64 26.1429 9.56 25.9083 9.56C25.8976 9.56 25.8603 9.56 25.7963 9.56C25.7323 9.56 25.7003 9.56 25.7003 9.56V9.4H26.8843L26.8043 10.408ZM37.869 9.4H39.405C40.269 9.4 40.9677 9.51733 41.501 9.752C42.0343 9.98667 42.4343 10.3067 42.701 10.712C42.9677 11.1067 43.1117 11.5547 43.133 12.056C43.1543 12.6853 43.0263 13.2347 42.749 13.704C42.4823 14.1733 42.1197 14.5307 41.661 14.776C41.2023 15.0213 40.701 15.1333 40.157 15.112C39.613 15.08 39.0743 14.888 38.541 14.536V14.392C38.541 14.392 38.5943 14.392 38.701 14.392C38.8183 14.392 38.9623 14.376 39.133 14.344C39.3037 14.3013 39.4797 14.2267 39.661 14.12C39.853 14.0133 40.0343 13.8533 40.205 13.64C40.3757 13.4267 40.509 13.1387 40.605 12.776C40.637 12.648 40.6583 12.5093 40.669 12.36C40.6903 12.2 40.6957 12.0613 40.685 11.944C40.6743 11.3573 40.4983 10.8933 40.157 10.552C39.8263 10.2 39.3623 10.024 38.765 10.024H38.013C38.013 10.024 38.0023 9.976 37.981 9.88C37.9597 9.77333 37.933 9.66667 37.901 9.56C37.8797 9.45333 37.869 9.4 37.869 9.4ZM38.045 9.4V19H35.741V9.4H38.045ZM35.773 17.992L35.837 19H34.685V18.84C34.6957 18.84 34.7277 18.84 34.781 18.84C34.8343 18.84 34.8663 18.84 34.877 18.84C35.1117 18.84 35.309 18.76 35.469 18.6C35.6397 18.4293 35.7303 18.2267 35.741 17.992H35.773ZM35.773 10.392H35.741C35.7303 10.1467 35.6397 9.94933 35.469 9.8C35.309 9.64 35.1117 9.56 34.877 9.56C34.8557 9.56 34.8183 9.56 34.765 9.56C34.7223 9.56 34.6903 9.56 34.669 9.56V9.4H35.837L35.773 10.392ZM38.013 17.992H38.045C38.0557 18.2267 38.141 18.4293 38.301 18.6C38.461 18.76 38.6637 18.84 38.909 18.84C38.9303 18.84 38.9623 18.84 39.005 18.84C39.0583 18.84 39.0903 18.84 39.101 18.84V19H37.933L38.013 17.992ZM49.9268 9.192C50.7801 9.192 51.5534 9.30933 52.2468 9.544C52.9401 9.768 53.5374 10.0987 54.0388 10.536C54.5401 10.9733 54.9241 11.5013 55.1908 12.12C55.4681 12.7387 55.6068 13.4373 55.6068 14.216C55.6068 14.984 55.4681 15.6773 55.1908 16.296C54.9241 16.904 54.5401 17.4267 54.0388 17.864C53.5374 18.3013 52.9401 18.6373 52.2468 18.872C51.5534 19.096 50.7801 19.208 49.9268 19.208C49.0841 19.208 48.3161 19.096 47.6228 18.872C46.9294 18.6373 46.3321 18.3013 45.8307 17.864C45.3294 17.4267 44.9454 16.904 44.6788 16.296C44.4121 15.6773 44.2788 14.984 44.2788 14.216C44.2788 13.4373 44.4121 12.7387 44.6788 12.12C44.9454 11.5013 45.3294 10.9733 45.8307 10.536C46.3321 10.0987 46.9294 9.768 47.6228 9.544C48.3161 9.30933 49.0841 9.192 49.9268 9.192ZM49.9268 18.584C50.5774 18.584 51.1428 18.408 51.6228 18.056C52.1134 17.6933 52.4868 17.1867 52.7428 16.536C53.0094 15.8853 53.1428 15.112 53.1428 14.216C53.1428 13.3093 53.0094 12.5307 52.7428 11.88C52.4868 11.2187 52.1134 10.712 51.6228 10.36C51.1428 9.99733 50.5774 9.816 49.9268 9.816C49.2868 9.816 48.7268 9.99733 48.2468 10.36C47.7668 10.712 47.3934 11.2187 47.1268 11.88C46.8601 12.5307 46.7268 13.3093 46.7268 14.216C46.7268 15.112 46.8601 15.8853 47.1268 16.536C47.3934 17.1867 47.7668 17.6933 48.2468 18.056C48.7268 18.408 49.2868 18.584 49.9268 18.584ZM59.9368 9.4V19H57.6328V9.4H59.9368ZM57.6808 17.992V19H56.5128V18.84C56.5128 18.84 56.5448 18.84 56.6088 18.84C56.6728 18.84 56.7101 18.84 56.7208 18.84C56.9661 18.84 57.1794 18.76 57.3608 18.6C57.5421 18.4293 57.6328 18.2267 57.6328 17.992H57.6808ZM59.9048 17.992H59.9368C59.9474 18.2267 60.0381 18.4293 60.2088 18.6C60.3901 18.76 60.6088 18.84 60.8648 18.84C60.8648 18.84 60.8914 18.84 60.9448 18.84C61.0088 18.84 61.0461 18.84 61.0568 18.84V19H59.9048V17.992ZM59.9048 10.408V9.4H61.0568L61.0408 9.56C61.0408 9.56 61.0141 9.56 60.9608 9.56C60.9074 9.56 60.8754 9.56 60.8648 9.56C60.6088 9.56 60.3901 9.64 60.2088 9.8C60.0381 9.96 59.9474 10.1627 59.9368 10.408H59.9048ZM57.6808 10.408H57.6328C57.6328 10.1627 57.5421 9.96 57.3608 9.8C57.1794 9.64 56.9608 9.56 56.7048 9.56C56.7048 9.56 56.6728 9.56 56.6088 9.56C56.5448 9.56 56.5128 9.56 56.5128 9.56V9.4H57.6808V10.408ZM65.4018 9.192C65.6151 9.192 65.8711 9.20267 66.1698 9.224C66.4791 9.24533 66.7831 9.272 67.0818 9.304C67.3804 9.32533 67.6418 9.35733 67.8658 9.4C68.1004 9.432 68.2604 9.464 68.3458 9.496L68.1378 11.448H67.9938C67.9938 10.9573 67.8231 10.568 67.4818 10.28C67.1404 9.992 66.6498 9.848 66.0098 9.848C65.4978 9.848 65.0818 9.96 64.7618 10.184C64.4524 10.408 64.2871 10.7067 64.2658 11.08C64.2444 11.272 64.2764 11.448 64.3618 11.608C64.4578 11.7573 64.5858 11.8907 64.7458 12.008C64.9164 12.1253 65.1031 12.2427 65.3058 12.36L67.8178 13.912C68.2444 14.1253 68.5804 14.4347 68.8258 14.84C69.0711 15.2453 69.1778 15.736 69.1458 16.312C69.1138 16.9093 68.9378 17.4267 68.6178 17.864C68.3084 18.3013 67.8764 18.6373 67.3218 18.872C66.7778 19.096 66.1324 19.208 65.3858 19.208C64.9271 19.208 64.5004 19.1707 64.1058 19.096C63.7111 19.0213 63.3698 18.92 63.0818 18.792C62.8044 18.664 62.5911 18.52 62.4418 18.36C62.3564 18.1467 62.3191 17.8907 62.3298 17.592C62.3404 17.2827 62.3884 16.9787 62.4738 16.68C62.5591 16.3707 62.6658 16.1147 62.7938 15.912H62.9218C62.8898 16.392 62.9751 16.8347 63.1778 17.24C63.3911 17.6453 63.7004 17.9707 64.1058 18.216C64.5111 18.4507 64.9964 18.568 65.5618 18.568C66.1804 18.568 66.6444 18.424 66.9538 18.136C67.2631 17.848 67.4178 17.512 67.4178 17.128C67.4178 16.84 67.3218 16.584 67.1298 16.36C66.9484 16.1253 66.6444 15.896 66.2178 15.672L63.9457 14.232C63.4124 13.9547 63.0231 13.5867 62.7778 13.128C62.5431 12.6693 62.4578 12.168 62.5218 11.624C62.5751 11.112 62.7244 10.6747 62.9698 10.312C63.2258 9.94933 63.5618 9.672 63.9778 9.48C64.3938 9.288 64.8684 9.192 65.4018 9.192ZM68.3458 9.336L68.3298 9.624H66.6178V9.336H68.3458Z" fill="#FDFBFE"/>
</svg>
