<svg width="75" height="28" viewBox="0 0 75 28" fill="none" xmlns="http://www.w3.org/2000/svg">
<mask id="path-1-inside-1_317_10283" fill="white">
<path d="M0 14C0 6.26801 6.26801 0 14 0H61C68.732 0 75 6.26801 75 14C75 21.732 68.732 28 61 28H14C6.26801 28 0 21.732 0 14Z"/>
</mask>
<path d="M0 14C0 6.26801 6.26801 0 14 0H61C68.732 0 75 6.26801 75 14C75 21.732 68.732 28 61 28H14C6.26801 28 0 21.732 0 14Z" fill="#B2872E" fill-opacity="0.2"/>
<path d="M14 0V1H61V0V-1H14V0ZM61 28V27H14V28V29H61V28ZM14 28V27C6.8203 27 1 21.1797 1 14H0H-1C-1 22.2843 5.71573 29 14 29V28ZM75 14H74C74 21.1797 68.1797 27 61 27V28V29C69.2843 29 76 22.2843 76 14H75ZM61 0V1C68.1797 1 74 6.8203 74 14H75H76C76 5.71573 69.2843 -1 61 -1V0ZM14 0V-1C5.71573 -1 -1 5.71573 -1 14H0H1C1 6.8203 6.8203 1 14 1V0Z" fill="#B2872E" fill-opacity="0.3" mask="url(#path-1-inside-1_317_10283)"/>
<path d="M17.7031 7.48L22.9351 18.904H20.0551L16.7271 10.568L17.7031 7.48ZM14.2631 17.832C14.1777 18.0453 14.1617 18.2267 14.2151 18.376C14.2684 18.5253 14.3591 18.6427 14.4871 18.728C14.6151 18.8027 14.7431 18.84 14.8711 18.84H15.0151V19H11.5911V18.84C11.5911 18.84 11.6177 18.84 11.6711 18.84C11.7137 18.84 11.7351 18.84 11.7351 18.84C11.9804 18.84 12.2311 18.7653 12.4871 18.616C12.7537 18.456 12.9724 18.1947 13.1431 17.832H14.2631ZM17.7031 7.48L17.7671 9.432L13.7991 18.952H12.6311L16.7751 9.576C16.8071 9.512 16.8604 9.39467 16.9351 9.224C17.0204 9.04267 17.1057 8.84 17.1911 8.616C17.2871 8.392 17.3724 8.17867 17.4471 7.976C17.5217 7.76267 17.5591 7.59733 17.5591 7.48H17.7031ZM19.3831 15.192V15.864H14.6791V15.192H19.3831ZM19.6231 17.832H22.4231C22.6044 18.1947 22.8231 18.456 23.0791 18.616C23.3351 18.7653 23.5857 18.84 23.8311 18.84C23.8311 18.84 23.8524 18.84 23.8951 18.84C23.9377 18.84 23.9591 18.84 23.9591 18.84V19H18.8711V18.84H19.0151C19.2284 18.84 19.4151 18.7547 19.5751 18.584C19.7351 18.4027 19.7511 18.152 19.6231 17.832ZM24.9638 9.176L34.3558 17.432L34.5158 19.208L25.1398 10.952L24.9638 9.176ZM25.0278 18.024V19H23.8438V18.84C23.8438 18.84 23.8865 18.84 23.9718 18.84C24.0571 18.84 24.0998 18.84 24.0998 18.84C24.3451 18.84 24.5531 18.7653 24.7238 18.616C24.8945 18.456 24.9798 18.2587 24.9798 18.024H25.0278ZM27.1718 18.024C27.1825 18.2587 27.2731 18.456 27.4438 18.616C27.6145 18.7653 27.8171 18.84 28.0518 18.84C28.0518 18.84 28.0945 18.84 28.1798 18.84C28.2758 18.84 28.3238 18.84 28.3238 18.84V19H27.1398V18.024H27.1718ZM24.9638 9.176L27.1718 11.576V19H24.9798V11C24.9798 10.456 24.9531 10.0187 24.8998 9.688C24.8465 9.34667 24.8198 9.176 24.8198 9.176H24.9638ZM34.4998 9.4V17.336C34.4998 17.7093 34.5105 18.04 34.5318 18.328C34.5638 18.6053 34.5905 18.824 34.6118 18.984C34.6438 19.1333 34.6598 19.208 34.6598 19.208H34.5158L32.3078 16.664V9.4H34.4998ZM34.4518 10.376V9.4H35.6518V9.56C35.6518 9.56 35.6038 9.56 35.5078 9.56C35.4225 9.56 35.3798 9.56 35.3798 9.56C35.1451 9.56 34.9371 9.64 34.7558 9.8C34.5851 9.94933 34.4998 10.1413 34.4998 10.376H34.4518ZM32.3078 10.376C32.2971 10.1413 32.2065 9.94933 32.0358 9.8C31.8758 9.64 31.6731 9.56 31.4278 9.56C31.4278 9.56 31.3798 9.56 31.2838 9.56C31.1985 9.56 31.1558 9.56 31.1558 9.56V9.4H32.3398V10.376H32.3078ZM41.9286 9.448V19H39.6086V9.448H41.9286ZM45.4166 9.384V10.024H36.1366V9.384H45.4166ZM45.4166 9.976V11.672H45.2406V11.528C45.2512 11.0693 45.1232 10.7067 44.8566 10.44C44.6006 10.1733 44.2432 10.0347 43.7846 10.024V9.976H45.4166ZM45.4166 9.144V9.544L43.7206 9.384C43.9232 9.384 44.1419 9.37333 44.3766 9.352C44.6112 9.32 44.8246 9.288 45.0166 9.256C45.2086 9.21333 45.3419 9.176 45.4166 9.144ZM39.6406 17.992V19H38.5686V18.84C38.5686 18.84 38.5952 18.84 38.6486 18.84C38.7126 18.84 38.7446 18.84 38.7446 18.84C38.9792 18.84 39.1766 18.76 39.3366 18.6C39.5072 18.4293 39.5979 18.2267 39.6086 17.992H39.6406ZM41.8806 17.992H41.9286C41.9286 18.2267 42.0139 18.4293 42.1846 18.6C42.3552 18.76 42.5632 18.84 42.8086 18.84C42.8086 18.84 42.8352 18.84 42.8886 18.84C42.9526 18.84 42.9846 18.84 42.9846 18.84V19H41.8806V17.992ZM37.7686 9.976V10.024C37.2992 10.0347 36.9366 10.1733 36.6806 10.44C36.4352 10.7067 36.3126 11.0693 36.3126 11.528V11.672H36.1366V9.976H37.7686ZM36.1366 9.144C36.2326 9.16533 36.3712 9.19733 36.5526 9.24C36.7446 9.28267 36.9526 9.32 37.1766 9.352C37.4112 9.37333 37.6246 9.384 37.8166 9.384L36.1366 9.544V9.144ZM49.6153 9.4V19H47.3113V9.4H49.6153ZM53.3593 18.36L53.7273 19H49.5833V18.36H53.3593ZM52.8153 13.928V14.568H49.5833V13.928H52.8153ZM53.5353 9.4V10.04H49.5833V9.4H53.5353ZM54.3833 16.056L53.7753 19H51.0073L51.5033 18.36C51.962 18.36 52.3673 18.2693 52.7193 18.088C53.082 17.896 53.3913 17.6293 53.6473 17.288C53.9033 16.936 54.1006 16.5253 54.2393 16.056H54.3833ZM52.8153 14.536V15.944H52.6553V15.816C52.6553 15.464 52.5433 15.1707 52.3193 14.936C52.106 14.7013 51.8126 14.5787 51.4393 14.568V14.536H52.8153ZM52.8153 12.552V13.96H51.4393V13.928C51.8126 13.9173 52.106 13.7947 52.3193 13.56C52.5433 13.3147 52.6553 13.016 52.6553 12.664V12.552H52.8153ZM53.5353 10.008V11.704H53.3753V11.56C53.3753 11.0907 53.2473 10.7227 52.9913 10.456C52.746 10.1893 52.3886 10.0507 51.9193 10.04V10.008H53.5353ZM53.5353 9.16V9.544L51.8553 9.4C52.1646 9.4 52.49 9.37333 52.8313 9.32C53.1726 9.256 53.4073 9.20267 53.5353 9.16ZM47.3433 17.992L47.4233 19H46.2393V18.84C46.2393 18.84 46.2713 18.84 46.3353 18.84C46.3993 18.84 46.4366 18.84 46.4473 18.84C46.682 18.84 46.8793 18.76 47.0393 18.6C47.21 18.4293 47.3006 18.2267 47.3113 17.992H47.3433ZM47.3433 10.408H47.3113C47.3006 10.1627 47.21 9.96 47.0393 9.8C46.8793 9.64 46.682 9.56 46.4473 9.56C46.4366 9.56 46.3993 9.56 46.3353 9.56C46.2713 9.56 46.2393 9.56 46.2393 9.56V9.4H47.4233L47.3433 10.408ZM58.5346 9.192C58.7479 9.192 59.0039 9.20267 59.3026 9.224C59.6119 9.24533 59.9159 9.272 60.2146 9.304C60.5132 9.32533 60.7746 9.35733 60.9986 9.4C61.2332 9.432 61.3932 9.464 61.4786 9.496L61.2706 11.448H61.1266C61.1266 10.9573 60.9559 10.568 60.6146 10.28C60.2732 9.992 59.7826 9.848 59.1426 9.848C58.6306 9.848 58.2146 9.96 57.8946 10.184C57.5852 10.408 57.4199 10.7067 57.3986 11.08C57.3772 11.272 57.4092 11.448 57.4946 11.608C57.5906 11.7573 57.7186 11.8907 57.8786 12.008C58.0492 12.1253 58.2359 12.2427 58.4386 12.36L60.9506 13.912C61.3772 14.1253 61.7132 14.4347 61.9586 14.84C62.2039 15.2453 62.3106 15.736 62.2786 16.312C62.2466 16.9093 62.0706 17.4267 61.7506 17.864C61.4412 18.3013 61.0092 18.6373 60.4546 18.872C59.9106 19.096 59.2652 19.208 58.5186 19.208C58.0599 19.208 57.6332 19.1707 57.2386 19.096C56.8439 19.0213 56.5026 18.92 56.2146 18.792C55.9372 18.664 55.7239 18.52 55.5746 18.36C55.4892 18.1467 55.4519 17.8907 55.4626 17.592C55.4732 17.2827 55.5212 16.9787 55.6066 16.68C55.6919 16.3707 55.7986 16.1147 55.9266 15.912H56.0546C56.0226 16.392 56.1079 16.8347 56.3106 17.24C56.5239 17.6453 56.8332 17.9707 57.2386 18.216C57.6439 18.4507 58.1292 18.568 58.6946 18.568C59.3132 18.568 59.7772 18.424 60.0866 18.136C60.3959 17.848 60.5506 17.512 60.5506 17.128C60.5506 16.84 60.4546 16.584 60.2626 16.36C60.0812 16.1253 59.7772 15.896 59.3506 15.672L57.0786 14.232C56.5452 13.9547 56.1559 13.5867 55.9106 13.128C55.6759 12.6693 55.5906 12.168 55.6546 11.624C55.7079 11.112 55.8572 10.6747 56.1026 10.312C56.3586 9.94933 56.6946 9.672 57.1106 9.48C57.5266 9.288 58.0012 9.192 58.5346 9.192ZM61.4786 9.336L61.4626 9.624H59.7506V9.336H61.4786Z" fill="#FDFBFE"/>
</svg>
