<svg width="185" height="150" viewBox="0 0 185 150" fill="none" xmlns="http://www.w3.org/2000/svg">
<circle cx="109.446" cy="75" r="70" fill="#502665" stroke="#BA7E1B" stroke-width="10"/>
<path d="M80.5531 65V48.08H92.3611V51.488H84.9691V54.896H91.8331V58.28H84.9691V65H80.5531ZM93.9292 65V53.192H98.0812V56.096H97.8412C98.0012 55.136 98.4012 54.392 99.0412 53.864C99.6972 53.32 100.553 53.016 101.609 52.952L102.785 52.856L103.025 56.456L100.697 56.672C99.8492 56.752 99.2332 56.992 98.8492 57.392C98.4652 57.776 98.2732 58.352 98.2732 59.12V65H93.9292ZM110.556 65.264C109.116 65.264 107.868 65.016 106.812 64.52C105.772 64.008 104.972 63.288 104.412 62.36C103.852 61.432 103.572 60.336 103.572 59.072C103.572 57.856 103.836 56.792 104.364 55.88C104.908 54.952 105.644 54.232 106.572 53.72C107.516 53.192 108.588 52.928 109.788 52.928C110.988 52.928 112.02 53.176 112.884 53.672C113.748 54.168 114.412 54.88 114.876 55.808C115.356 56.72 115.596 57.792 115.596 59.024V59.96H107.148V57.944H112.476L112.092 58.256C112.092 57.392 111.908 56.752 111.54 56.336C111.172 55.904 110.652 55.688 109.98 55.688C109.484 55.688 109.052 55.808 108.684 56.048C108.332 56.272 108.06 56.608 107.868 57.056C107.676 57.504 107.58 58.064 107.58 58.736V58.952C107.58 59.704 107.684 60.312 107.892 60.776C108.116 61.24 108.46 61.584 108.924 61.808C109.388 62.016 109.972 62.12 110.676 62.12C111.284 62.12 111.916 62.032 112.572 61.856C113.244 61.664 113.836 61.392 114.348 61.04L115.404 63.848C114.796 64.28 114.052 64.624 113.172 64.88C112.292 65.136 111.42 65.264 110.556 65.264ZM123.535 65.264C121.743 65.264 120.415 64.848 119.551 64.016C118.687 63.184 118.255 61.928 118.255 60.248V56.336H116.047V53.192H118.255V49.76H122.527V53.192H125.887V56.336H122.527V60.104C122.527 60.696 122.663 61.136 122.935 61.424C123.223 61.696 123.671 61.832 124.279 61.832C124.471 61.832 124.679 61.808 124.903 61.76C125.143 61.712 125.407 61.656 125.695 61.592L126.271 64.664C125.903 64.856 125.471 65 124.975 65.096C124.495 65.208 124.015 65.264 123.535 65.264ZM133.877 65.264C132.437 65.264 131.189 65.016 130.133 64.52C129.093 64.008 128.293 63.288 127.733 62.36C127.173 61.432 126.893 60.336 126.893 59.072C126.893 57.856 127.157 56.792 127.685 55.88C128.229 54.952 128.965 54.232 129.893 53.72C130.837 53.192 131.909 52.928 133.109 52.928C134.309 52.928 135.341 53.176 136.205 53.672C137.069 54.168 137.733 54.88 138.197 55.808C138.677 56.72 138.917 57.792 138.917 59.024V59.96H130.469V57.944H135.797L135.413 58.256C135.413 57.392 135.229 56.752 134.861 56.336C134.493 55.904 133.973 55.688 133.301 55.688C132.805 55.688 132.373 55.808 132.005 56.048C131.653 56.272 131.381 56.608 131.189 57.056C130.997 57.504 130.901 58.064 130.901 58.736V58.952C130.901 59.704 131.005 60.312 131.213 60.776C131.437 61.24 131.781 61.584 132.245 61.808C132.709 62.016 133.293 62.12 133.997 62.12C134.605 62.12 135.237 62.032 135.893 61.856C136.565 61.664 137.157 61.392 137.669 61.04L138.725 63.848C138.117 64.28 137.373 64.624 136.493 64.88C135.613 65.136 134.741 65.264 133.877 65.264Z" fill="#FAE4C1"/>
<path d="M74.6853 94.264C72.7493 94.264 71.1013 93.904 69.7413 93.184C68.3973 92.464 67.3733 91.456 66.6693 90.16C65.9653 88.864 65.6133 87.352 65.6133 85.624C65.6133 83.832 65.9813 82.28 66.7173 80.968C67.4693 79.64 68.5413 78.616 69.9333 77.896C71.3253 77.176 73.0053 76.816 74.9733 76.816C75.7573 76.816 76.5253 76.888 77.2773 77.032C78.0293 77.16 78.7173 77.36 79.3413 77.632C79.9813 77.888 80.5253 78.192 80.9733 78.544L79.6293 81.952C78.8773 81.472 78.1333 81.128 77.3973 80.92C76.6613 80.696 75.8613 80.584 74.9973 80.584C73.3813 80.584 72.1733 81.016 71.3733 81.88C70.5893 82.728 70.1973 83.976 70.1973 85.624C70.1973 87.256 70.5973 88.488 71.3973 89.32C72.1973 90.152 73.3813 90.568 74.9493 90.568C75.4293 90.568 75.9493 90.52 76.5093 90.424C77.0853 90.328 77.6613 90.192 78.2373 90.016L77.4213 91.672V87.568H74.0373V84.472H81.0213V92.968C80.4293 93.24 79.7813 93.472 79.0773 93.664C78.3893 93.856 77.6693 94 76.9173 94.096C76.1813 94.208 75.4373 94.264 74.6853 94.264ZM83.975 94V77.08H92.111C94.031 77.08 95.511 77.552 96.551 78.496C97.607 79.424 98.135 80.72 98.135 82.384C98.135 83.456 97.895 84.392 97.415 85.192C96.951 85.976 96.271 86.584 95.375 87.016C94.495 87.432 93.407 87.64 92.111 87.64L92.303 87.208H93.455C94.143 87.208 94.751 87.376 95.279 87.712C95.807 88.032 96.247 88.528 96.599 89.2L99.239 94H94.391L91.463 88.624C91.335 88.384 91.183 88.2 91.007 88.072C90.831 87.944 90.631 87.848 90.407 87.784C90.199 87.72 89.967 87.688 89.711 87.688H88.391V94H83.975ZM88.391 84.568H91.319C92.167 84.568 92.815 84.4 93.263 84.064C93.711 83.728 93.935 83.208 93.935 82.504C93.935 81.832 93.711 81.328 93.263 80.992C92.815 80.64 92.167 80.464 91.319 80.464H88.391V84.568ZM98.5522 94L106.472 77.08H109.952L117.872 94H113.456L111.464 89.344L113.144 90.568H103.256L104.96 89.344L102.968 94H98.5522ZM108.176 81.688L105.392 88.336L104.72 87.184H111.704L111.032 88.336L108.224 81.688H108.176ZM106.736 75.64L109.568 71.416H113.84L109.664 75.64H106.736ZM120.982 94V80.68H115.606V77.08H130.774V80.68H125.398V94H120.982ZM132.444 94V77.08H136.86V94H132.444ZM146.208 94.264C145.328 94.264 144.464 94.192 143.616 94.048C142.768 93.904 141.984 93.696 141.264 93.424C140.544 93.152 139.92 92.832 139.392 92.464L140.616 89.032C141.112 89.352 141.664 89.632 142.272 89.872C142.88 90.112 143.52 90.304 144.192 90.448C144.864 90.576 145.536 90.64 146.208 90.64C147.264 90.64 148 90.504 148.416 90.232C148.848 89.944 149.064 89.592 149.064 89.176C149.064 88.92 149 88.704 148.872 88.528C148.744 88.352 148.528 88.2 148.224 88.072C147.936 87.928 147.544 87.808 147.048 87.712L144.24 87.112C142.704 86.792 141.56 86.232 140.808 85.432C140.056 84.632 139.68 83.6 139.68 82.336C139.68 81.216 139.976 80.248 140.568 79.432C141.176 78.6 142.016 77.96 143.088 77.512C144.176 77.048 145.424 76.816 146.832 76.816C147.616 76.816 148.368 76.888 149.088 77.032C149.824 77.176 150.504 77.392 151.128 77.68C151.752 77.952 152.28 78.272 152.712 78.64L151.488 81.856C150.88 81.408 150.168 81.064 149.352 80.824C148.552 80.568 147.696 80.44 146.784 80.44C146.192 80.44 145.688 80.512 145.272 80.656C144.856 80.784 144.536 80.976 144.312 81.232C144.104 81.488 144 81.784 144 82.12C144 82.456 144.136 82.744 144.408 82.984C144.696 83.208 145.216 83.4 145.968 83.56L148.752 84.16C150.304 84.496 151.464 85.048 152.232 85.816C153 86.584 153.384 87.584 153.384 88.816C153.384 89.904 153.088 90.864 152.496 91.696C151.904 92.512 151.072 93.144 150 93.592C148.928 94.04 147.664 94.264 146.208 94.264Z" fill="#FAE4C1"/>
<path d="M73.1752 118.16V110.168H74.1232V111.548H74.0032C74.1312 111.092 74.3832 110.732 74.7592 110.468C75.1432 110.196 75.5992 110.06 76.1272 110.06C76.6472 110.06 77.0992 110.184 77.4832 110.432C77.8752 110.672 78.1752 111.02 78.3832 111.476C78.5992 111.924 78.7072 112.46 78.7072 113.084C78.7072 113.7 78.5992 114.236 78.3832 114.692C78.1752 115.14 77.8792 115.488 77.4952 115.736C77.1112 115.984 76.6552 116.108 76.1272 116.108C75.5992 116.108 75.1472 115.976 74.7712 115.712C74.3952 115.44 74.1392 115.08 74.0032 114.632H74.1472V118.16H73.1752ZM75.9232 115.328C76.4752 115.328 76.9112 115.136 77.2312 114.752C77.5592 114.36 77.7232 113.804 77.7232 113.084C77.7232 112.356 77.5592 111.8 77.2312 111.416C76.9112 111.032 76.4752 110.84 75.9232 110.84C75.3792 110.84 74.9432 111.032 74.6152 111.416C74.2872 111.8 74.1232 112.356 74.1232 113.084C74.1232 113.804 74.2872 114.36 74.6152 114.752C74.9432 115.136 75.3792 115.328 75.9232 115.328ZM79.7993 116.756L79.0313 116.528L82.1033 106.976L82.8833 107.204L79.7993 116.756ZM89.5197 116.108C89.0797 116.108 88.6637 116.068 88.2717 115.988C87.8877 115.908 87.5317 115.796 87.2037 115.652C86.8837 115.5 86.5917 115.316 86.3277 115.1L86.6757 114.308C86.9477 114.508 87.2237 114.68 87.5037 114.824C87.7917 114.96 88.0997 115.064 88.4277 115.136C88.7637 115.2 89.1277 115.232 89.5197 115.232C90.2397 115.232 90.7717 115.1 91.1157 114.836C91.4677 114.564 91.6437 114.208 91.6437 113.768C91.6437 113.536 91.5877 113.336 91.4757 113.168C91.3717 113 91.1957 112.856 90.9477 112.736C90.7077 112.616 90.3917 112.516 89.9997 112.436L88.7517 112.184C87.9997 112.024 87.4357 111.764 87.0597 111.404C86.6917 111.036 86.5077 110.548 86.5077 109.94C86.5077 109.436 86.6357 108.996 86.8917 108.62C87.1557 108.244 87.5197 107.952 87.9837 107.744C88.4557 107.536 88.9917 107.432 89.5917 107.432C89.9757 107.432 90.3397 107.472 90.6837 107.552C91.0277 107.632 91.3437 107.752 91.6317 107.912C91.9277 108.064 92.1877 108.252 92.4117 108.476L92.0637 109.244C91.7037 108.916 91.3237 108.68 90.9237 108.536C90.5237 108.384 90.0757 108.308 89.5797 108.308C89.1557 108.308 88.7877 108.372 88.4757 108.5C88.1717 108.628 87.9317 108.816 87.7557 109.064C87.5877 109.304 87.5037 109.584 87.5037 109.904C87.5037 110.288 87.6197 110.592 87.8517 110.816C88.0917 111.04 88.4797 111.204 89.0157 111.308L90.2637 111.572C91.0717 111.74 91.6677 111.996 92.0517 112.34C92.4437 112.676 92.6397 113.136 92.6397 113.72C92.6397 114.184 92.5117 114.6 92.2557 114.968C92.0077 115.328 91.6477 115.608 91.1757 115.808C90.7117 116.008 90.1597 116.108 89.5197 116.108ZM96.0986 116.108C95.6266 116.108 95.2346 116.024 94.9226 115.856C94.6186 115.68 94.3866 115.42 94.2266 115.076C94.0746 114.732 93.9986 114.304 93.9986 113.792V110.168H94.9706V113.78C94.9706 114.124 95.0146 114.412 95.1026 114.644C95.1986 114.868 95.3466 115.036 95.5466 115.148C95.7466 115.252 95.9946 115.304 96.2906 115.304C96.6266 115.304 96.9186 115.228 97.1666 115.076C97.4146 114.924 97.6106 114.712 97.7546 114.44C97.8986 114.168 97.9706 113.848 97.9706 113.48V110.168H98.9426V116H97.9946V114.656H98.1506C97.9906 115.128 97.7266 115.488 97.3586 115.736C96.9986 115.984 96.5786 116.108 96.0986 116.108ZM102.549 116.108C101.957 116.108 101.509 115.932 101.205 115.58C100.909 115.228 100.761 114.724 100.761 114.068V107.54H101.733V113.996C101.733 114.276 101.769 114.512 101.841 114.704C101.921 114.896 102.037 115.04 102.189 115.136C102.341 115.232 102.529 115.28 102.753 115.28C102.849 115.28 102.941 115.276 103.029 115.268C103.125 115.252 103.213 115.232 103.293 115.208L103.269 116.024C103.141 116.048 103.017 116.068 102.897 116.084C102.785 116.1 102.669 116.108 102.549 116.108ZM109.614 116.108C109.094 116.108 108.638 115.984 108.246 115.736C107.862 115.488 107.562 115.14 107.346 114.692C107.138 114.236 107.034 113.7 107.034 113.084C107.034 112.46 107.138 111.924 107.346 111.476C107.562 111.02 107.862 110.672 108.246 110.432C108.638 110.184 109.094 110.06 109.614 110.06C110.142 110.06 110.594 110.192 110.97 110.456C111.346 110.72 111.598 111.076 111.726 111.524H111.594V107.54H112.566V116H111.618V114.608H111.738C111.61 115.064 111.354 115.428 110.97 115.7C110.594 115.972 110.142 116.108 109.614 116.108ZM109.818 115.328C110.37 115.328 110.806 115.136 111.126 114.752C111.454 114.36 111.618 113.804 111.618 113.084C111.618 112.356 111.454 111.8 111.126 111.416C110.806 111.032 110.37 110.84 109.818 110.84C109.274 110.84 108.838 111.032 108.51 111.416C108.182 111.8 108.018 112.356 108.018 113.084C108.018 113.804 108.182 114.36 108.51 114.752C108.838 115.136 109.274 115.328 109.818 115.328ZM116.814 116.108C116.246 116.108 115.754 115.984 115.338 115.736C114.922 115.488 114.598 115.14 114.366 114.692C114.142 114.236 114.03 113.7 114.03 113.084C114.03 112.468 114.142 111.936 114.366 111.488C114.598 111.032 114.922 110.68 115.338 110.432C115.754 110.184 116.246 110.06 116.814 110.06C117.382 110.06 117.874 110.184 118.29 110.432C118.706 110.68 119.026 111.032 119.25 111.488C119.482 111.936 119.598 112.468 119.598 113.084C119.598 113.7 119.482 114.236 119.25 114.692C119.026 115.14 118.706 115.488 118.29 115.736C117.874 115.984 117.382 116.108 116.814 116.108ZM116.814 115.328C117.366 115.328 117.802 115.136 118.122 114.752C118.45 114.36 118.614 113.8 118.614 113.072C118.614 112.352 118.45 111.8 118.122 111.416C117.802 111.032 117.366 110.84 116.814 110.84C116.27 110.84 115.834 111.032 115.506 111.416C115.178 111.8 115.014 112.352 115.014 113.072C115.014 113.8 115.178 114.36 115.506 114.752C115.834 115.136 116.27 115.328 116.814 115.328ZM124.272 116V107.54H127.656C128.52 107.54 129.192 107.732 129.672 108.116C130.152 108.5 130.392 109.044 130.392 109.748C130.392 110.276 130.236 110.716 129.924 111.068C129.62 111.42 129.204 111.652 128.676 111.764V111.596C129.076 111.644 129.42 111.76 129.708 111.944C129.996 112.12 130.216 112.356 130.368 112.652C130.52 112.94 130.596 113.28 130.596 113.672C130.596 114.176 130.484 114.604 130.26 114.956C130.044 115.3 129.728 115.56 129.312 115.736C128.896 115.912 128.392 116 127.8 116H124.272ZM125.232 115.208H127.704C127.96 115.208 128.188 115.188 128.388 115.148C128.596 115.108 128.776 115.048 128.928 114.968C129.08 114.88 129.208 114.776 129.312 114.656C129.416 114.536 129.492 114.392 129.54 114.224C129.596 114.056 129.624 113.868 129.624 113.66C129.624 113.444 129.596 113.256 129.54 113.096C129.492 112.928 129.416 112.784 129.312 112.664C129.208 112.536 129.08 112.432 128.928 112.352C128.776 112.272 128.596 112.212 128.388 112.172C128.188 112.132 127.96 112.112 127.704 112.112H125.232V115.208ZM125.232 111.32H127.512C128.136 111.32 128.608 111.192 128.928 110.936C129.256 110.68 129.42 110.312 129.42 109.832C129.42 109.336 129.256 108.964 128.928 108.716C128.608 108.46 128.136 108.332 127.512 108.332H125.232V111.32ZM132.249 116V110.168H133.197V111.548H133.077C133.213 111.076 133.449 110.72 133.785 110.48C134.121 110.232 134.565 110.088 135.117 110.048L135.465 110.012L135.537 110.852L134.925 110.924C134.381 110.972 133.961 111.148 133.665 111.452C133.377 111.748 133.233 112.156 133.233 112.676V116H132.249ZM138.328 116.108C137.928 116.108 137.568 116.032 137.248 115.88C136.936 115.72 136.688 115.504 136.504 115.232C136.32 114.96 136.228 114.656 136.228 114.32C136.228 113.888 136.336 113.548 136.552 113.3C136.776 113.052 137.14 112.876 137.644 112.772C138.156 112.668 138.852 112.616 139.732 112.616H140.272V113.252H139.744C139.256 113.252 138.848 113.268 138.52 113.3C138.192 113.332 137.932 113.388 137.74 113.468C137.548 113.548 137.412 113.652 137.332 113.78C137.252 113.908 137.212 114.068 137.212 114.26C137.212 114.588 137.324 114.856 137.548 115.064C137.78 115.272 138.092 115.376 138.484 115.376C138.804 115.376 139.084 115.3 139.324 115.148C139.572 114.996 139.764 114.788 139.9 114.524C140.044 114.26 140.116 113.956 140.116 113.612V112.244C140.116 111.748 140.016 111.392 139.816 111.176C139.616 110.952 139.288 110.84 138.832 110.84C138.48 110.84 138.14 110.892 137.812 110.996C137.484 111.092 137.148 111.252 136.804 111.476L136.468 110.768C136.676 110.624 136.912 110.5 137.176 110.396C137.44 110.284 137.716 110.2 138.004 110.144C138.292 110.088 138.568 110.06 138.832 110.06C139.336 110.06 139.752 110.144 140.08 110.312C140.408 110.472 140.652 110.72 140.812 111.056C140.972 111.384 141.052 111.808 141.052 112.328V116H140.14V114.644H140.248C140.184 114.948 140.06 115.208 139.876 115.424C139.7 115.64 139.48 115.808 139.216 115.928C138.952 116.048 138.656 116.108 138.328 116.108ZM144.823 116.108C144.519 116.108 144.223 116.076 143.935 116.012C143.655 115.956 143.391 115.876 143.143 115.772C142.903 115.66 142.695 115.528 142.519 115.376L142.831 114.692C143.023 114.844 143.231 114.972 143.455 115.076C143.679 115.172 143.907 115.244 144.139 115.292C144.371 115.34 144.607 115.364 144.847 115.364C145.303 115.364 145.647 115.28 145.879 115.112C146.111 114.944 146.227 114.716 146.227 114.428C146.227 114.204 146.151 114.028 145.999 113.9C145.847 113.764 145.607 113.66 145.279 113.588L144.187 113.348C143.683 113.244 143.307 113.064 143.059 112.808C142.819 112.552 142.699 112.22 142.699 111.812C142.699 111.452 142.791 111.144 142.975 110.888C143.167 110.624 143.435 110.42 143.779 110.276C144.123 110.132 144.523 110.06 144.979 110.06C145.251 110.06 145.511 110.088 145.759 110.144C146.007 110.2 146.239 110.284 146.455 110.396C146.679 110.5 146.871 110.632 147.031 110.792L146.707 111.476C146.555 111.332 146.383 111.212 146.191 111.116C145.999 111.012 145.799 110.936 145.591 110.888C145.391 110.832 145.187 110.804 144.979 110.804C144.531 110.804 144.191 110.892 143.959 111.068C143.727 111.244 143.611 111.476 143.611 111.764C143.611 111.988 143.683 112.172 143.827 112.316C143.971 112.46 144.195 112.564 144.499 112.628L145.591 112.856C146.111 112.968 146.499 113.148 146.755 113.396C147.019 113.636 147.151 113.964 147.151 114.38C147.151 114.732 147.055 115.04 146.863 115.304C146.671 115.56 146.399 115.76 146.047 115.904C145.703 116.04 145.295 116.108 144.823 116.108ZM148.512 108.716V107.624H149.712V108.716H148.512ZM148.632 116V110.168H149.604V116H148.632ZM153.209 116.108C152.617 116.108 152.169 115.932 151.865 115.58C151.569 115.228 151.421 114.724 151.421 114.068V107.54H152.393V113.996C152.393 114.276 152.429 114.512 152.501 114.704C152.581 114.896 152.697 115.04 152.849 115.136C153.001 115.232 153.189 115.28 153.413 115.28C153.509 115.28 153.601 115.276 153.689 115.268C153.785 115.252 153.873 115.232 153.953 115.208L153.929 116.024C153.801 116.048 153.677 116.068 153.557 116.084C153.445 116.1 153.329 116.108 153.209 116.108Z" fill="#FAE4C1"/>
<circle cx="109.263" cy="75" r="69.5" stroke="#FAE4C1"/>
<path d="M33.35 84L36.5 87.2667L40.32 84.6867L42.67 88.4824L46.98 86.6913L48.43 90.8675L53.05 89.9487L53.54 94.3105L58.26 94.3012L57.76 98.6537L62.38 99.5632L60.91 103.73L65.23 105.503L62.86 109.298L66.69 111.869L63.52 115.117L66.69 118.365L62.86 120.936L65.23 124.732L60.91 126.504L62.38 130.671L57.76 131.58L58.26 135.933L53.54 135.924L53.05 140.285L48.43 139.367L46.98 143.543L42.67 141.752L40.32 145.547L36.5 142.968L33.35 146.234L30.19 142.968L26.38 145.547L24.02 141.752L19.71 143.543L18.26 139.367L13.64 140.285L13.16 135.924L8.43 135.933L8.94 131.58L4.31 130.671L5.78 126.504L1.46 124.732L3.83 120.936L0 118.365L3.17 115.117L0 111.869L3.83 109.298L1.46 105.503L5.78 103.73L4.31 99.5632L8.94 98.6537L8.43 94.3012L13.16 94.3105L13.64 89.9487L18.26 90.8675L19.71 86.6913L24.02 88.4824L26.38 84.6867L30.19 87.2667L33.35 84Z" fill="#FAE4C1"/>
<path d="M10.8694 119.688C10.7728 119.688 10.6969 119.661 10.6417 119.605C10.6003 119.55 10.5865 119.474 10.6003 119.378L10.9315 116.687C10.9453 116.59 10.9798 116.514 11.035 116.459C11.104 116.404 11.1799 116.376 11.2627 116.376H18.1972C18.2938 116.376 18.3628 116.404 18.4042 116.459C18.4594 116.514 18.4801 116.59 18.4663 116.687L18.1351 119.378C18.1213 119.474 18.0799 119.55 18.0109 119.605C17.9557 119.661 17.8798 119.688 17.7832 119.688H10.8694ZM22.3631 109.524C22.4735 109.469 22.6046 109.442 22.7564 109.442H26.027C26.1236 109.442 26.1926 109.469 26.234 109.524C26.2892 109.58 26.3099 109.656 26.2961 109.752L24.5987 123.621C24.5849 123.718 24.5435 123.794 24.4745 123.849C24.4193 123.904 24.3434 123.932 24.2468 123.932H21.0797C20.9831 123.932 20.9072 123.904 20.852 123.849C20.8106 123.794 20.7968 123.718 20.8106 123.621L22.1147 113.106C22.1147 112.995 22.0733 112.954 21.9905 112.981L20.0654 113.375H19.9826C19.817 113.375 19.748 113.278 19.7756 113.085L20.0654 110.704C20.093 110.525 20.1896 110.401 20.3552 110.332L22.3631 109.524ZM36.1229 117.37C36.3299 117.825 36.4334 118.363 36.4334 118.984C36.4334 119.84 36.1919 120.682 35.7089 121.51C35.2259 122.31 34.5566 122.945 33.701 123.414C32.8454 123.87 31.8587 124.097 30.7409 124.097C29.6921 124.097 28.7744 123.883 27.9878 123.456C27.2012 123.014 26.6492 122.372 26.3318 121.53C26.18 121.075 26.1041 120.606 26.1041 120.123C26.1041 119.64 26.18 119.15 26.3318 118.653C26.4836 118.143 26.6768 117.715 26.9114 117.37C27.1736 116.97 27.4496 116.666 27.7394 116.459C27.8222 116.404 27.836 116.349 27.7808 116.293C27.5048 116.004 27.2978 115.672 27.1598 115.3C27.0218 114.886 26.9528 114.479 26.9528 114.078C26.9528 113.471 27.0701 112.892 27.3047 112.34C27.5393 111.774 27.8636 111.27 28.2776 110.829C28.7882 110.29 29.4161 109.876 30.1613 109.587C30.9065 109.283 31.7069 109.131 32.5625 109.131C33.4319 109.131 34.1909 109.283 34.8395 109.587C35.5019 109.89 36.0194 110.304 36.392 110.829C36.8336 111.463 37.0544 112.195 37.0544 113.023C37.0544 113.92 36.8129 114.713 36.3299 115.403C36.1229 115.707 35.8469 115.997 35.5019 116.273C35.4329 116.328 35.426 116.383 35.4812 116.438C35.771 116.687 35.9849 116.997 36.1229 117.37ZM30.9479 113.106C30.8375 113.285 30.7616 113.513 30.7202 113.789C30.7064 113.844 30.6995 113.92 30.6995 114.016C30.6995 114.21 30.7409 114.382 30.8237 114.534C30.9893 114.906 31.3205 115.093 31.8173 115.093C32.3141 115.093 32.7005 114.913 32.9765 114.555C33.1421 114.334 33.2456 114.072 33.287 113.768V113.602C33.287 113.409 33.2663 113.244 33.2249 113.106C33.1559 112.912 33.0248 112.761 32.8316 112.65C32.6384 112.526 32.4038 112.464 32.1278 112.464C31.6034 112.464 31.2101 112.678 30.9479 113.106ZM32.1692 120.288C32.4176 120.012 32.5625 119.647 32.6039 119.191C32.6177 119.109 32.6246 118.991 32.6246 118.839C32.6246 118.605 32.597 118.425 32.5418 118.301C32.3624 117.846 32.0243 117.618 31.5275 117.618C31.0169 117.618 30.6236 117.846 30.3476 118.301C30.1958 118.563 30.0992 118.874 30.0578 119.233C30.044 119.316 30.0371 119.433 30.0371 119.585C30.0371 119.861 30.0854 120.075 30.182 120.226C30.3476 120.585 30.665 120.765 31.1342 120.765C31.5758 120.765 31.9208 120.606 32.1692 120.288ZM41.4441 116.252C40.5747 116.252 39.8571 115.962 39.2913 115.383C38.7255 114.803 38.4426 114.078 38.4426 113.209C38.4426 112.519 38.622 111.87 38.9808 111.263C39.3396 110.656 39.8157 110.173 40.4091 109.814C41.0025 109.455 41.6304 109.276 42.2928 109.276C42.8586 109.276 43.3692 109.414 43.8246 109.69C44.28 109.952 44.6388 110.318 44.901 110.787C45.1632 111.256 45.2943 111.774 45.2943 112.34C45.2943 113.03 45.1149 113.678 44.7561 114.285C44.3973 114.879 43.9212 115.355 43.3278 115.714C42.7344 116.073 42.1065 116.252 41.4441 116.252ZM39.5811 123.932C39.4155 123.932 39.3327 123.87 39.3327 123.745C39.3327 123.676 39.3534 123.614 39.3948 123.559L48.627 109.649C48.696 109.511 48.8202 109.442 48.9996 109.442H51.0075C51.1593 109.442 51.2352 109.497 51.2352 109.607C51.2352 109.662 51.2145 109.731 51.1731 109.814L41.9616 123.725C41.8926 123.863 41.7684 123.932 41.589 123.932H39.5811ZM41.7132 114.037C42.0858 114.037 42.4032 113.899 42.6654 113.623C42.9414 113.333 43.0794 112.988 43.0794 112.588C43.0794 112.271 42.9759 112.008 42.7689 111.801C42.5757 111.594 42.3273 111.491 42.0237 111.491C41.6511 111.491 41.3268 111.636 41.0508 111.926C40.7748 112.202 40.6368 112.533 40.6368 112.919C40.6368 113.237 40.7403 113.506 40.9473 113.727C41.1543 113.934 41.4096 114.037 41.7132 114.037ZM48.5235 124.097C47.6541 124.097 46.9365 123.807 46.3707 123.228C45.8049 122.634 45.522 121.903 45.522 121.034C45.522 120.344 45.7014 119.702 46.0602 119.109C46.419 118.501 46.8951 118.018 47.4885 117.66C48.0957 117.301 48.7305 117.121 49.3929 117.121C49.9587 117.121 50.4693 117.259 50.9247 117.535C51.3801 117.798 51.732 118.163 51.9804 118.632C52.2426 119.088 52.3737 119.598 52.3737 120.164C52.3737 120.868 52.1943 121.524 51.8355 122.131C51.4767 122.724 51.0006 123.2 50.4072 123.559C49.8138 123.918 49.1859 124.097 48.5235 124.097ZM48.7926 121.882C49.1652 121.882 49.4826 121.744 49.7448 121.468C50.0208 121.179 50.1588 120.834 50.1588 120.433C50.1588 120.116 50.0622 119.854 49.869 119.647C49.6758 119.44 49.4274 119.336 49.1238 119.336C48.7512 119.336 48.4269 119.481 48.1509 119.771C47.8749 120.047 47.7369 120.378 47.7369 120.765C47.7369 121.082 47.8335 121.351 48.0267 121.572C48.2337 121.779 48.489 121.882 48.7926 121.882Z" fill="#BA7E1B"/>
<path d="M104.463 25.3359L103.513 16.4175" stroke="#FAE4C1" stroke-width="1.08" stroke-linecap="round" stroke-linejoin="round"/>
<path d="M114.538 25.3268L115.996 16" stroke="#FAE4C1" stroke-width="1.08" stroke-linecap="round" stroke-linejoin="round"/>
<path d="M123.89 26.9414L127.622 18.0508" stroke="#FAE4C1" stroke-width="1.08" stroke-linecap="round" stroke-linejoin="round"/>
<path d="M132.653 30.0783L138.488 21.9951" stroke="#FAE4C1" stroke-width="1.08" stroke-linecap="round" stroke-linejoin="round"/>
<path d="M140.467 34.607L148.846 27.0435" stroke="#FAE4C1" stroke-width="1.08" stroke-linecap="round" stroke-linejoin="round"/>
<path d="M147.002 40.3334L156.264 34.8022" stroke="#FAE4C1" stroke-width="1.08" stroke-linecap="round" stroke-linejoin="round"/>
<path d="M73.0046 39.3863L64.2637 33.3076" stroke="#FAE4C1" stroke-width="1.08" stroke-linecap="round" stroke-linejoin="round"/>
<path d="M79.744 33.8369L72.688 26.4312" stroke="#FAE4C1" stroke-width="1.08" stroke-linecap="round" stroke-linejoin="round"/>
<path d="M87.7268 29.512L82.627 21.0854" stroke="#FAE4C1" stroke-width="1.08" stroke-linecap="round" stroke-linejoin="round"/>
<path d="M96.6036 26.5981L93.7993 17.856" stroke="#FAE4C1" stroke-width="1.08" stroke-linecap="round" stroke-linejoin="round"/>
</svg>
