<svg width="128" height="129" viewBox="0 0 128 129" fill="none" xmlns="http://www.w3.org/2000/svg">
<path d="M85.8249 116.686C82.8997 120.293 76.9329 122.01 72.5623 120.506C68.1917 119.003 61.074 119.127 56.7582 120.775C52.4356 122.423 46.414 120.913 43.3724 117.41C40.3307 113.908 34.1105 110.432 29.5549 109.688C24.9925 108.943 20.5328 104.599 19.6354 100.034C18.7448 95.4698 15.0798 89.3331 11.5039 86.3888C7.92105 83.4446 6.21528 77.4389 7.70869 73.0397C9.20209 68.6406 9.07878 61.4764 7.44152 57.1325C5.80425 52.7816 7.31136 46.7207 10.7914 43.6592C14.2715 40.5977 17.7241 34.3369 18.464 29.7516C19.2038 25.1663 23.5196 20.6706 28.0547 19.7673C32.5897 18.864 38.6866 15.182 41.6118 11.5827C44.5369 7.98339 50.5037 6.26648 54.8743 7.76274C59.245 9.2659 66.3626 9.14179 70.6784 7.49383C75.0011 5.84587 81.0227 7.36282 84.0643 10.8587C87.1059 14.3615 93.3262 17.8366 97.8818 18.5813C102.444 19.326 106.904 23.67 107.801 28.2346C108.692 32.7993 112.357 38.936 115.933 41.8802C119.509 44.8245 121.221 50.8302 119.728 55.2294C118.235 59.6285 118.358 66.7927 119.995 71.1366C121.632 75.4875 120.125 81.5484 116.652 84.6099C113.172 87.6714 109.719 93.9322 108.98 98.5175C108.24 103.11 103.924 107.599 99.3889 108.502C94.8538 109.405 88.7569 113.087 85.8317 116.686H85.8249Z" fill="url(#paint0_linear_560_2405)"/>
<path d="M117.022 65.3477C117.69 35.7129 94.3641 11.144 64.9215 10.4715C35.4789 9.79895 11.0693 33.2775 10.4012 62.9123C9.73305 92.5471 33.0593 117.116 62.5019 117.788C91.9445 118.461 116.354 94.9824 117.022 65.3477Z" fill="url(#paint1_linear_560_2405)"/>
<path d="M116.234 64.1307C116.234 93.3251 92.7167 116.996 63.7117 116.996C34.7067 116.996 11.189 93.3251 11.189 64.1307C11.189 34.9364 34.7067 11.2651 63.7117 11.2651C92.7167 11.2651 116.234 34.9295 116.234 64.1307Z" fill="url(#paint2_radial_560_2405)"/>
<path d="M114.31 65.2856C114.944 37.1584 92.8045 13.8394 64.8598 13.2011C36.915 12.5629 13.7472 34.847 13.1131 62.9741C12.4789 91.1013 34.6185 114.42 62.5633 115.059C90.508 115.697 113.676 93.4127 114.31 65.2856Z" fill="url(#paint3_linear_560_2405)"/>
<path d="M110.226 81.4484C119.728 55.5937 106.607 26.8811 80.9202 17.3171C55.2331 7.75315 26.7067 20.9595 17.2048 46.8142C7.70285 72.669 20.8235 101.382 46.5106 110.946C72.1977 120.509 100.724 107.303 110.226 81.4484Z" fill="url(#paint4_linear_560_2405)"/>
<path d="M64.1655 99.5033C83.5728 99.2476 99.0996 83.2049 98.8455 63.6709C98.5915 44.1369 82.6528 28.5088 63.2455 28.7645C43.8382 29.0202 28.3114 45.063 28.5655 64.5969C28.8195 84.1309 44.7582 99.7591 64.1655 99.5033Z" fill="url(#paint5_radial_560_2405)"/>
<path d="M97.3613 64.1309C97.3613 82.8308 82.297 97.9933 63.7116 97.9933C45.1262 97.9933 30.0688 82.8308 30.0688 64.1309C30.0688 45.4311 45.1331 30.2686 63.7116 30.2686C82.2902 30.2686 97.3613 45.4311 97.3613 64.1309Z" fill="url(#paint6_linear_560_2405)"/>
<path style="mix-blend-mode:screen" d="M42.7971 90.6431C48.4693 80.976 55.3472 71.9846 63.3212 63.9517C71.3705 55.8498 80.3926 48.8719 90.1066 43.1351C83.9411 35.2952 74.419 30.2617 63.7116 30.2617C45.1331 30.2617 30.0688 45.4243 30.0688 64.1241C30.0688 74.8668 35.0423 84.4374 42.7971 90.6431Z" fill="url(#paint7_radial_560_2405)"/>
<g style="mix-blend-mode:screen" opacity="0.6">
<path d="M35.9602 38.2394L30.3291 32.5509L31.7129 31.1649C31.9116 30.965 32.1102 30.8202 32.3157 30.7167C32.5213 30.6202 32.7199 30.5651 32.9117 30.5582C33.1036 30.5513 33.2954 30.5788 33.494 30.6478C33.6927 30.7167 33.8777 30.8064 34.0489 30.9236C34.2202 31.0408 34.3914 31.1856 34.5627 31.358C34.734 31.5304 34.8847 31.7028 35.008 31.8751C35.1313 32.0475 35.2341 32.2337 35.3163 32.4405C35.3985 32.6474 35.4396 32.8543 35.4396 33.0473C35.4396 33.2473 35.3916 33.4541 35.2957 33.6817C35.1998 33.9023 35.0422 34.123 34.8367 34.3298L33.953 35.2124L36.4534 37.743L35.9534 38.2394H35.9602ZM33.5557 34.8056L34.5011 33.8679C34.7819 33.592 34.8847 33.2887 34.8162 32.9715C34.7408 32.6543 34.4942 32.282 34.0832 31.8614C33.6927 31.4683 33.3433 31.2477 33.0351 31.1925C32.7268 31.1374 32.4391 31.2408 32.1787 31.5097L31.2402 32.4543L33.5694 34.8056H33.5557Z" fill="url(#paint8_linear_560_2405)"/>
<path d="M39.3307 34.9712L34.4531 28.6138L36.1383 27.3037C36.3507 27.1382 36.5631 27.021 36.7686 26.9589C36.9741 26.89 37.1659 26.8693 37.3372 26.89C37.5084 26.9107 37.6866 26.9658 37.8578 27.0624C38.0291 27.1589 38.1866 27.2761 38.3305 27.4071C38.4744 27.545 38.6114 27.7036 38.7552 27.8898C39.3786 28.6965 39.4745 29.4412 39.0567 30.1169L42.4682 32.5303L41.8722 32.9922L38.5703 30.6065L37.5084 31.4339L39.8856 34.5368L39.3307 34.9712ZM37.1659 30.9857L38.2894 30.11C38.447 29.9859 38.5566 29.848 38.6182 29.7032C38.6799 29.5515 38.6936 29.3998 38.6593 29.2412C38.6251 29.0758 38.5703 28.9241 38.4881 28.7793C38.4127 28.6345 38.31 28.4828 38.1866 28.3104C38.0839 28.1725 37.9811 28.0622 37.8852 27.9587C37.7893 27.8622 37.6866 27.7726 37.5701 27.6967C37.4536 27.6209 37.344 27.5726 37.2276 27.545C37.1111 27.5174 36.9947 27.5243 36.8645 27.5588C36.7343 27.5933 36.611 27.6553 36.4809 27.7588L35.3574 28.6276L37.1591 30.9788L37.1659 30.9857Z" fill="url(#paint9_linear_560_2405)"/>
<path d="M43.352 31.9924L39.228 25.1179L41.612 23.6699L41.9066 24.1595L40.1323 25.242L41.6942 27.8484L42.9615 27.0762L43.2356 27.5312L41.9682 28.3035L43.674 31.1374L45.4483 30.0549L45.7428 30.5444L43.3589 31.9924H43.352Z" fill="url(#paint10_linear_560_2405)"/>
<path d="M46.5376 30.0687L43.3315 22.7184L44.1262 22.3668L48.305 28.0898C48.1132 27.1796 47.9008 26.0626 47.6611 24.7318C47.4213 23.4011 47.1815 22.1944 46.9418 21.1187L47.7364 20.7671L50.9424 28.1174L50.367 28.3725L47.7981 22.4909L49.0175 28.9724L48.4557 29.2206L44.5441 23.9389L47.1062 29.8205L46.5307 30.0756L46.5376 30.0687Z" fill="url(#paint11_linear_560_2405)"/>
<path d="M52.2849 27.7313L49.8872 20.0707L50.5586 19.8569L52.9562 27.5175L52.2849 27.7313Z" fill="url(#paint12_linear_560_2405)"/>
<path d="M53.799 25.1733L52.5591 19.2503L53.251 19.1055L54.5252 25.194C54.6211 25.6422 54.7923 25.9594 55.039 26.1387C55.2856 26.3179 55.6555 26.3524 56.135 26.249C56.5872 26.1524 56.8886 25.9732 57.0325 25.7112C57.1763 25.4491 57.2037 25.0906 57.1147 24.6424L55.8405 18.5608L56.5255 18.416L57.7655 24.339C58.0532 25.7112 57.5462 26.5317 56.2515 26.8075C55.9432 26.8764 55.6555 26.8971 55.4089 26.8695C55.1554 26.8489 54.9431 26.7868 54.7649 26.6972C54.5868 26.6075 54.4361 26.4834 54.306 26.3248C54.1758 26.1662 54.073 25.9939 53.9908 25.8077C53.9155 25.6215 53.8538 25.4147 53.799 25.1802V25.1733Z" fill="url(#paint13_linear_560_2405)"/>
<path d="M59.4712 26.0558L58.9849 18.0436L59.848 17.9884L61.8073 24.8147C61.9374 23.8976 62.1224 22.7737 62.3553 21.4429C62.5882 20.1121 62.7732 18.8986 62.9239 17.8022L63.7871 17.7471L64.2803 25.7593L63.6569 25.8007L63.2664 19.3881L62.1909 25.8903L61.5812 25.9317L59.7179 19.6157L60.1083 26.0213L59.485 26.0627L59.4712 26.0558Z" fill="url(#paint14_linear_560_2405)"/>
<path d="M67.8358 23.6148L68.3016 20.2844C68.3427 20.0017 68.3975 19.7465 68.4729 19.519C68.5482 19.2915 68.6441 19.0777 68.7743 18.8846C68.9045 18.6916 69.0483 18.533 69.2196 18.4089C69.3908 18.2848 69.5964 18.202 69.843 18.1537C70.0896 18.1055 70.3568 18.0986 70.6582 18.14C70.9596 18.1813 71.2199 18.2641 71.4391 18.3744C71.6584 18.4916 71.8365 18.6295 71.9666 18.795C72.0968 18.9605 72.1927 19.1536 72.2681 19.3742C72.3366 19.5948 72.3777 19.8293 72.3845 20.0637C72.3914 20.3051 72.3845 20.5671 72.3366 20.8429L71.8707 24.1733C71.7132 25.2834 71.3021 25.966 70.6239 26.228C70.7267 26.3522 70.8089 26.4487 70.8774 26.5176C70.9459 26.5866 71.035 26.6693 71.1583 26.7521C71.2747 26.8348 71.398 26.8969 71.5214 26.9314L71.446 27.4554C71.1994 27.3795 70.9733 27.2554 70.7678 27.0624C70.5623 26.8762 70.3636 26.628 70.1581 26.3246C69.9526 26.3453 69.7334 26.3384 69.5142 26.3108C68.1715 26.1177 67.6097 25.2144 67.8358 23.5941V23.6148ZM71.1514 24.2422L71.6584 20.5947C71.8159 19.4569 71.4597 18.8295 70.576 18.7054C69.6991 18.5813 69.1785 19.0915 69.0209 20.2223L68.514 23.8699C68.3564 25.0076 68.7126 25.6419 69.5964 25.7661C70.4732 25.8902 70.9939 25.3799 71.1514 24.2422Z" fill="url(#paint15_linear_560_2405)"/>
<path d="M73.1787 24.8216L74.816 18.9951L75.4942 19.1882L73.809 25.1732C73.6857 25.6145 73.6925 25.9731 73.8295 26.2489C73.9665 26.5247 74.2748 26.7247 74.7475 26.8626C75.1928 26.9867 75.5422 26.9729 75.7956 26.8074C76.0491 26.6419 76.2341 26.3385 76.3574 25.9041L78.0426 19.9191L78.7139 20.1121L77.0767 25.9386C76.6999 27.2832 75.871 27.7727 74.5968 27.4142C74.2885 27.3245 74.0282 27.2142 73.8158 27.0763C73.6035 26.9384 73.4391 26.7867 73.3294 26.6212C73.213 26.4557 73.1376 26.2765 73.0965 26.0765C73.0554 25.8765 73.0417 25.6766 73.0554 25.4766C73.076 25.2767 73.1171 25.0629 73.1787 24.8285V24.8216Z" fill="url(#paint16_linear_560_2405)"/>
<path d="M78.0429 28.4072L77.3921 28.1245L81.9819 21.3672L82.8245 21.7326L81.1325 29.738L80.4748 29.4553L80.9269 27.3729L79.2349 26.642L78.0429 28.4003V28.4072ZM79.502 26.249L81.0366 26.9109L82.1121 22.2291L79.502 26.249Z" fill="url(#paint17_linear_560_2405)"/>
<path d="M81.9751 30.2067L85.8799 23.2012L86.4964 23.5459L82.8725 30.055L84.8181 31.1514L84.544 31.6478L81.982 30.1998L81.9751 30.2067Z" fill="url(#paint18_linear_560_2405)"/>
<path d="M85.126 32.0892L89.5377 25.4009L90.1268 25.7939L85.7151 32.4823L85.126 32.0892Z" fill="url(#paint19_linear_560_2405)"/>
<path d="M87.4761 33.7575L92.0248 27.869L90.7986 26.9106L91.1479 26.4624L94.169 28.8275L93.8196 29.2757L92.5797 28.3103L88.031 34.1988L87.4761 33.7644V33.7575Z" fill="url(#paint20_linear_560_2405)"/>
<path d="M90.4697 36.302L92.1755 34.5024L94.7102 29.2827L95.224 29.7792C95.1144 29.986 94.9637 30.2756 94.7718 30.648C94.58 31.0272 94.3814 31.4064 94.1827 31.7995C93.984 32.1925 93.7922 32.5648 93.6141 32.9234C93.4291 33.2819 93.2853 33.5784 93.1688 33.8129L92.9976 34.1576C93.6415 33.7646 94.3608 33.3371 95.1555 32.882C95.9501 32.42 96.6352 32.0201 97.2106 31.6754L97.7107 32.158L92.6893 34.9919L90.9835 36.7916L90.4697 36.302Z" fill="url(#paint21_linear_560_2405)"/>
<path d="M31.1304 97.8417L36.4669 91.9463L37.8987 93.2633C38.1042 93.4494 38.2618 93.6425 38.3645 93.8494C38.4741 94.0493 38.5358 94.2493 38.5563 94.4355C38.5769 94.6285 38.5563 94.8216 38.4947 95.0215C38.4399 95.2215 38.3577 95.4077 38.2481 95.587C38.1384 95.7662 38.0014 95.9455 37.8439 96.1179C37.6795 96.2972 37.515 96.4558 37.3575 96.5868C37.1931 96.7178 37.015 96.8281 36.8094 96.9177C36.6108 97.0074 36.4121 97.0625 36.2135 97.0694C36.0148 97.0832 35.8093 97.0418 35.5832 96.9522C35.3571 96.8626 35.1379 96.7247 34.9256 96.5247L34.0144 95.6904L31.6373 98.3106L31.1235 97.8348L31.1304 97.8417ZM34.3981 95.2767L35.3708 96.173C35.6586 96.442 35.96 96.5316 36.2683 96.442C36.5765 96.3523 36.9259 96.0903 37.3232 95.6559C37.6932 95.2491 37.8918 94.8905 37.9329 94.5803C37.9672 94.27 37.8507 93.9873 37.5836 93.739L36.6108 92.8496L34.4049 95.2905L34.3981 95.2767Z" fill="url(#paint22_linear_560_2405)"/>
<path d="M35.1724 101.393L39.7965 94.9111L41.5091 96.1523C41.7283 96.3109 41.8996 96.4763 42.016 96.6556C42.1393 96.8349 42.2147 97.0073 42.2421 97.1797C42.2695 97.352 42.2626 97.5313 42.2215 97.7244C42.1804 97.9174 42.1119 98.0967 42.0229 98.276C41.9338 98.4484 41.8242 98.6345 41.6872 98.8207C41.0981 99.6481 40.4267 99.9515 39.6663 99.7447L38.3579 103.696L37.755 103.261L39.0703 99.4206L37.9879 98.6414L35.7341 101.806L35.1655 101.393H35.1724ZM38.3236 98.1795L39.4676 99.0069C39.632 99.1241 39.7896 99.1931 39.9472 99.2068C40.1047 99.2206 40.2554 99.1931 40.3993 99.1103C40.5432 99.0345 40.6733 98.931 40.7898 98.8207C40.9062 98.7035 41.0227 98.5656 41.1392 98.4001C41.2351 98.2622 41.3173 98.1312 41.3858 98.014C41.4543 97.8968 41.5022 97.7657 41.5433 97.6347C41.5844 97.5037 41.5981 97.3796 41.5913 97.2624C41.5844 97.1452 41.5433 97.0349 41.4817 96.9176C41.4132 96.8073 41.3173 96.7039 41.1871 96.6073L40.0431 95.7799L38.3305 98.1795H38.3236Z" fill="url(#paint23_linear_560_2405)"/>
<path d="M39.7759 104.551L43.6944 97.6211L46.092 99.0001L45.8112 99.4897L44.0163 98.4623L42.5298 101.089L43.8108 101.82L43.5505 102.282L42.2695 101.551L40.6528 104.413L42.4476 105.44L42.1667 105.93L39.769 104.551H39.7759Z" fill="url(#paint24_linear_560_2405)"/>
<path d="M43.646 106.709L46.715 99.3584L47.5097 99.6963L46.2697 106.64C46.7904 105.881 47.4412 104.957 48.229 103.875C49.0168 102.792 49.7155 101.792 50.3252 100.882L51.1199 101.22L48.0509 108.57L47.4823 108.329L49.9348 102.447L46.1327 107.764L45.571 107.529L46.6739 101.082L44.2214 106.964L43.6528 106.722L43.646 106.709Z" fill="url(#paint25_linear_560_2405)"/>
<path d="M49.9966 109.164L52.312 101.538L52.9834 101.744L50.6748 109.371L50.0034 109.164H49.9966Z" fill="url(#paint26_linear_560_2405)"/>
<path d="M52.8191 107.985L54.0453 102.096L54.7304 102.241L53.4699 108.288C53.374 108.736 53.4082 109.088 53.5658 109.35C53.7165 109.612 54.0385 109.791 54.5111 109.895C54.9633 109.991 55.3058 109.95 55.5456 109.764C55.7853 109.584 55.9497 109.274 56.0388 108.826L57.2993 102.779L57.9775 102.924L56.7512 108.812C56.4704 110.17 55.6826 110.715 54.3947 110.446C54.0864 110.384 53.8192 110.288 53.6 110.164C53.3808 110.039 53.2095 109.902 53.0862 109.75C52.9629 109.598 52.8739 109.419 52.8191 109.226C52.7643 109.026 52.7369 108.833 52.7437 108.633C52.7437 108.433 52.7711 108.219 52.8259 107.985H52.8191Z" fill="url(#paint27_linear_560_2405)"/>
<path d="M58.4502 111.053L59.0188 103.096L59.8751 103.158L60.9095 110.136C61.163 109.246 61.485 108.164 61.8892 106.888C62.2933 105.612 62.6359 104.44 62.9236 103.378L63.7799 103.44L63.2113 111.398L62.5879 111.356L63.0469 104.992L61.1288 111.253L60.5191 111.211L59.5121 104.744L59.0599 111.101L58.4365 111.06L58.4502 111.053Z" fill="url(#paint28_linear_560_2405)"/>
<path d="M67.2941 108.985L66.9173 105.668C66.8831 105.385 66.8762 105.13 66.8899 104.896C66.9036 104.661 66.9516 104.427 67.0269 104.213C67.1023 103.992 67.205 103.806 67.3352 103.648C67.4654 103.489 67.6435 103.351 67.8695 103.241C68.0956 103.131 68.3491 103.062 68.6505 103.027C68.9519 102.993 69.2191 103.006 69.4589 103.062C69.6986 103.117 69.9041 103.206 70.0685 103.337C70.233 103.461 70.3768 103.627 70.5001 103.82C70.6234 104.013 70.7125 104.227 70.781 104.454C70.8495 104.682 70.8975 104.937 70.9317 105.213L71.3085 108.529C71.4318 109.633 71.2057 110.398 70.6166 110.819C70.7399 110.908 70.8495 110.984 70.9317 111.032C71.0139 111.088 71.1235 111.136 71.2605 111.191C71.3975 111.239 71.5277 111.267 71.651 111.274L71.7127 111.798C71.4523 111.791 71.2057 111.722 70.966 111.591C70.7262 111.46 70.4727 111.274 70.1987 111.032C70 111.101 69.7945 111.15 69.5753 111.177C68.2326 111.329 67.4791 110.598 67.2941 108.985ZM70.6371 108.757L70.2261 105.123C70.096 103.992 69.5959 103.475 68.719 103.572C67.8421 103.675 67.4722 104.289 67.5955 105.42L68.0065 109.054C68.1367 110.191 68.6368 110.708 69.5137 110.605C70.3905 110.502 70.7604 109.888 70.6371 108.75V108.757Z" fill="url(#paint29_linear_560_2405)"/>
<path d="M72.9664 108.584L71.5483 102.744L72.2265 102.579L73.6788 108.577C73.7884 109.019 73.9666 109.329 74.22 109.495C74.4735 109.667 74.8366 109.688 75.3093 109.57C75.7545 109.46 76.0491 109.274 76.1861 109.005C76.3231 108.736 76.3368 108.384 76.2341 107.943L74.7749 101.944L75.4463 101.779L76.8643 107.619C77.1931 108.971 76.7136 109.805 75.4394 110.115C75.1311 110.191 74.8503 110.219 74.6037 110.205C74.3502 110.191 74.1378 110.143 73.9597 110.053C73.7816 109.97 73.624 109.846 73.4939 109.695C73.3569 109.543 73.2473 109.377 73.1719 109.191C73.0897 109.012 73.0212 108.805 72.9664 108.571V108.584Z" fill="url(#paint30_linear_560_2405)"/>
<path d="M79.5359 108.805L78.8783 109.053L77.563 101.034L78.4193 100.71L82.6666 107.626L82.0021 107.874L80.906 106.068L79.1934 106.716L79.5359 108.805ZM79.1043 106.254L80.6594 105.668L78.2412 101.558L79.1043 106.247V106.254Z" fill="url(#paint31_linear_560_2405)"/>
<path d="M84.0504 106.971L80.5566 99.8137L81.1869 99.5034L84.434 106.15L86.4207 105.164L86.6673 105.675L84.0504 106.971Z" fill="url(#paint32_linear_560_2405)"/>
<path d="M87.6882 105.068L83.7012 98.1798L84.304 97.8281L88.291 104.716L87.6882 105.075V105.068Z" fill="url(#paint33_linear_560_2405)"/>
<path d="M90.4624 103.337L86.3247 97.2074L85.0505 98.0762L84.7354 97.6073L87.8797 95.4629L88.1949 95.9318L86.907 96.8144L91.0447 102.944L90.4624 103.337Z" fill="url(#paint34_linear_560_2405)"/>
<path d="M94.0453 100.675L92.4834 98.7654L87.6743 95.6281L88.2224 95.173C88.4142 95.304 88.6745 95.4902 89.0239 95.7246C89.3664 95.966 89.7226 96.2004 90.0788 96.4486C90.4351 96.69 90.7844 96.9244 91.1133 97.1451C91.4421 97.3657 91.7161 97.5519 91.9285 97.6967L92.2436 97.9104C91.9353 97.2278 91.6065 96.4624 91.2503 95.6143C90.8941 94.7731 90.5789 94.0422 90.3118 93.4354L90.8392 92.9941L93.0246 98.3104L94.5865 100.22L94.0453 100.669V100.675Z" fill="url(#paint35_linear_560_2405)"/>
<path d="M24.6569 67.4545L22.1702 65.972L19.6835 67.4545L20.3137 64.6136L18.1421 62.6968L21.0193 62.4209L22.1633 59.7456L23.3142 62.4209L26.1914 62.6899L24.0198 64.6136L24.6569 67.4545Z" fill="url(#paint36_linear_560_2405)"/>
<path d="M109.706 67.4545L107.219 65.972L104.732 67.4545L105.369 64.6136L103.191 62.6968L106.068 62.4209L107.219 59.7456L108.363 62.4209L111.247 62.6899L109.075 64.6136L109.706 67.4545Z" fill="url(#paint37_linear_560_2405)"/>
<path d="M42.2903 81.2036C41.1668 81.2036 40.2146 80.8105 39.4337 80.0176C38.6527 79.2246 38.2554 78.2731 38.2554 77.1561V67.8889C38.2554 66.7581 38.6527 65.7997 39.4405 65.0136C40.2283 64.2207 41.1805 63.8276 42.2903 63.8276C43.4001 63.8276 44.3592 64.2276 45.147 65.0205C45.9279 65.8135 46.3184 66.7719 46.3184 67.8889V69.8265H43.681V67.8338C43.681 67.4269 43.5371 67.0822 43.2494 66.7926C42.9617 66.503 42.6191 66.3582 42.215 66.3582C41.8108 66.3582 41.4683 66.503 41.1874 66.7926C40.9065 67.0822 40.7627 67.4269 40.7627 67.8338V77.1285C40.7627 77.5353 40.8997 77.8801 41.1874 78.1628C41.4683 78.4455 41.8108 78.5903 42.215 78.5903C42.6191 78.5903 42.9617 78.4455 43.2494 78.1628C43.5371 77.8801 43.681 77.5353 43.681 77.1285V74.7841H46.3184V77.1561C46.3184 78.2869 45.9211 79.2384 45.1333 80.0245C44.3455 80.8105 43.3932 81.2036 42.2903 81.2036Z" fill="url(#paint38_linear_560_2405)"/>
<path d="M50.9424 73.7911V80.9828H48.4009V64.0137H50.9424V71.2192H54.0114V64.0137H56.553V80.9828H54.0114V73.7911H50.9424Z" fill="url(#paint39_linear_560_2405)"/>
<path d="M62.8279 63.793C63.9514 63.793 64.9036 64.1929 65.6845 64.9858C66.4655 65.7788 66.8628 66.7372 66.8628 67.8542V77.1214C66.8628 78.2522 66.4655 79.2107 65.6777 79.9967C64.8899 80.7897 63.9377 81.1827 62.8279 81.1827C61.7181 81.1827 60.7522 80.7828 59.9712 79.9898C59.1903 79.1969 58.7998 78.2384 58.7998 77.1214V67.8542C58.7998 66.7234 59.1971 65.765 59.9849 64.9789C60.7727 64.186 61.7181 63.793 62.8279 63.793ZM64.2117 67.806C64.2117 67.3992 64.0678 67.0544 63.787 66.7717C63.5061 66.489 63.1567 66.3442 62.7594 66.3442C62.3621 66.3442 62.0127 66.489 61.725 66.7717C61.4372 67.0544 61.2934 67.3992 61.2934 67.806V77.1007C61.2934 77.5075 61.4372 77.8523 61.725 78.135C62.0127 78.4177 62.3552 78.5625 62.7594 78.5625C63.1636 78.5625 63.5061 78.4177 63.787 78.135C64.0678 77.8523 64.2117 77.5075 64.2117 77.1007V67.806Z" fill="url(#paint40_linear_560_2405)"/>
<path d="M71.6514 80.9828H69.1099V64.0137H71.6514V80.9828Z" fill="url(#paint41_linear_560_2405)"/>
<path d="M77.9402 81.2036C76.8167 81.2036 75.8645 80.8105 75.0767 80.0176C74.2958 79.2246 73.8984 78.2731 73.8984 77.1561V67.8889C73.8984 66.7581 74.2958 65.7997 75.0836 65.0136C75.8714 64.2207 76.8236 63.8276 77.9402 63.8276C79.0569 63.8276 80.0091 64.2276 80.79 65.0205C81.571 65.8135 81.9615 66.7719 81.9615 67.8889V69.8265H79.324V67.8338C79.324 67.4269 79.1802 67.0822 78.8924 66.7926C78.6047 66.503 78.2622 66.3582 77.858 66.3582C77.4538 66.3582 77.1113 66.503 76.8304 66.7926C76.5496 67.0822 76.4057 67.4269 76.4057 67.8338V77.1285C76.4057 77.5353 76.5496 77.8801 76.8304 78.1628C77.1113 78.4455 77.4538 78.5903 77.858 78.5903C78.2622 78.5903 78.6047 78.4455 78.8924 78.1628C79.1802 77.8801 79.324 77.5353 79.324 77.1285V74.7841H81.9615V77.1561C81.9615 78.2869 81.5641 79.2384 80.7763 80.0245C79.9885 80.8105 79.0432 81.2036 77.9402 81.2036Z" fill="url(#paint42_linear_560_2405)"/>
<path d="M84.0508 80.9829V64H91.2918V66.5719H86.5923V71.2055H90.0244V73.7774H86.5923V78.411H91.2918V80.9829H84.0508Z" fill="url(#paint43_linear_560_2405)"/>
<path d="M43.818 51.5817L43.7632 51.1611C43.8317 50.4233 44.2564 49.6855 45.0374 48.9684C45.8183 48.2444 46.798 47.5549 47.9899 46.9067C49.1819 46.2517 51.0727 45.707 53.6622 45.2657C55.135 45.0381 56.3681 44.9209 57.3546 44.9209C58.341 44.9209 59.2179 45.0036 59.9715 45.1691C60.725 45.3346 61.3484 45.6656 61.8348 46.162C62.328 46.6585 62.5678 47.2446 62.5678 47.9203C62.5678 48.596 62.2801 49.2373 61.7115 49.8372C61.1429 50.4371 60.4304 50.8922 59.5673 51.2093C57.9026 51.8299 56.3064 52.1678 54.7856 52.2436C55.5392 52.7056 56.1626 53.1055 56.649 53.4503C57.1354 53.795 57.6628 54.2501 58.2246 54.8155C58.7863 55.3809 59.1425 55.8636 59.3001 56.2704C59.4577 56.6772 59.5399 57.0358 59.5399 57.353C59.5399 58.3941 59.1425 59.3871 58.3547 60.3386C57.8273 60.9936 57.0943 61.5108 56.1626 61.8969C55.2241 62.283 54.2307 62.4761 53.1826 62.4761C50.9425 62.4761 49.7163 61.6832 49.5039 60.0973C49.4696 60.0628 49.4491 60.0076 49.4491 59.9387C48.7846 61.0143 48.2297 61.5522 47.7913 61.5522C47.668 61.5522 47.4693 61.5177 47.2021 61.4556C46.9281 61.3936 46.7911 61.3246 46.7843 61.2557C46.7774 61.1867 46.7706 61.035 46.7706 60.8075C46.7706 60.5799 46.935 60.0283 47.2706 59.1526C47.6063 58.2769 47.9831 57.4219 48.401 56.5738C49.223 54.9879 50.0382 53.4503 50.8466 51.9747C50.9836 51.6575 51.059 51.4162 51.059 51.2576C51.059 51.099 51.0521 50.9749 51.0316 50.8853C51.1001 50.3888 51.5248 49.7475 52.3058 48.9408C53.0867 48.141 53.7923 47.7341 54.4226 47.7341C54.6349 47.7341 54.9089 47.8169 55.2652 47.9755C55.6145 48.1341 55.8269 48.3547 55.8954 48.6374C55.9091 48.7615 55.916 48.8374 55.9091 48.865C55.9023 48.8925 55.8543 48.8856 55.7653 48.8512C55.6762 48.8167 55.6214 48.796 55.6077 48.796C55.0459 48.796 54.3746 49.2166 53.6005 50.0509C52.8195 50.8853 52.0728 51.9126 51.3535 53.1331C49.867 55.6016 48.7983 57.6288 48.1475 59.2147C48.0036 59.5663 47.9351 59.8421 47.9351 60.0352C47.9351 60.2972 48.0516 60.4282 48.2777 60.4282C48.5037 60.4282 48.812 60.1869 49.1956 59.7042C49.5793 59.2216 49.8533 58.9802 50.0108 58.9871C50.1684 58.994 50.2986 59.0423 50.3945 59.1319C50.4904 59.2216 50.5589 59.3112 50.5931 59.4077C50.6274 59.5043 50.6548 59.6422 50.6753 59.8215C50.6959 60.0007 50.7096 60.1111 50.7301 60.1662C51.011 61.4142 51.8947 62.0417 53.3813 62.0417H53.484C54.6897 62.0417 55.7241 61.759 56.5873 61.1936C57.5327 60.5592 58.0054 59.7663 58.0054 58.8285C58.0054 57.8908 57.5669 56.891 56.6901 55.8567C56.4092 55.5395 55.9982 55.1396 55.457 54.6638C54.2992 53.6571 53.7033 53.0159 53.669 52.7332C53.6347 52.4505 53.7512 52.216 54.0252 52.0299C54.2992 51.8437 54.5459 51.7541 54.7719 51.7541C55.6282 51.7541 56.8065 51.4438 58.2931 50.8301C60.4852 49.9268 61.6567 48.9339 61.8142 47.8376V47.679C61.8142 47.3618 61.6704 47.0653 61.3964 46.7826C60.9237 46.2724 59.9235 46.0172 58.4027 46.0172C56.3201 46.0172 53.8951 46.3965 51.1275 47.1549C49.4422 47.6169 47.9625 48.2651 46.6883 49.1132C45.284 50.0509 44.5852 51.0438 44.5852 52.0988C44.5852 52.3264 44.6537 52.5539 44.7976 52.7745C44.9346 52.9952 45.099 53.1538 45.284 53.2503C45.469 53.3468 45.7087 53.4503 46.0033 53.5675C46.3047 53.6847 46.5171 53.7744 46.6472 53.8295C46.7774 53.8916 46.8185 53.9674 46.7774 54.0571C46.7363 54.1467 46.6061 54.1743 46.3938 54.1398C45.8183 54.1053 45.236 53.864 44.6606 53.4089C44.0852 52.9607 43.7906 52.4367 43.7906 51.8368C43.7906 51.7472 43.7974 51.6575 43.818 51.5748V51.5817Z" fill="url(#paint44_linear_560_2405)"/>
<path d="M67.678 52.8506C68.6234 52.8506 69.0961 53.3057 69.0961 54.2227C69.0961 54.6985 68.9659 55.0846 68.6988 55.388C68.2603 56.0431 67.5547 56.6085 66.5683 57.0911C65.5886 57.5738 64.7529 57.8427 64.0747 57.8979C63.8281 57.9186 63.6979 57.8427 63.6842 57.6841C63.6636 57.6152 63.6842 57.5669 63.7527 57.5531C63.8144 57.5324 63.8623 57.5255 63.8966 57.5255C64.3007 57.4911 64.8145 57.298 65.4448 56.9463C66.6162 56.312 67.4794 55.6569 68.0206 54.9881C68.2466 54.6709 68.3631 54.3675 68.3631 54.0779C68.3631 53.7883 68.2192 53.6435 67.9384 53.6435C67.7123 53.6435 67.404 53.7401 67.0204 53.9331C66.1983 54.3193 65.3283 54.995 64.4172 55.9534C63.5061 56.9119 62.9101 57.8565 62.6292 58.7736C62.5402 59.0563 62.4991 59.3321 62.4991 59.6079C62.4991 59.8837 62.6155 60.1388 62.8416 60.3871C63.0677 60.6353 63.417 60.7594 63.8966 60.7594C64.424 60.7594 65.0269 60.6146 65.7119 60.3388C67.6917 59.5252 69.2125 58.3047 70.2812 56.6636C70.384 56.5257 70.4799 56.4982 70.5689 56.5809C70.6375 56.6154 70.6717 56.6636 70.6717 56.7119C70.6717 56.7602 70.6443 56.8291 70.5963 56.8981C70.0689 57.7807 69.4044 58.5667 68.596 59.2493C67.0341 60.587 65.5201 61.2627 64.0473 61.2627C62.7868 61.2627 61.9031 60.8835 61.3893 60.125C61.1975 59.8216 61.1016 59.4631 61.1016 59.0425C61.1016 58.6219 61.218 58.1185 61.4441 57.5324C61.8825 56.5257 62.821 55.4983 64.2596 54.4365C65.6982 53.3746 66.8354 52.8506 67.678 52.8506Z" fill="url(#paint45_linear_560_2405)"/>
<path d="M70.2542 60.8143C70.0281 61.0763 69.9801 61.2901 70.1103 61.4487C70.2404 61.6072 70.3912 61.69 70.5556 61.69C70.72 61.69 70.8912 61.6624 71.0694 61.6072C71.8229 61.3797 72.5559 60.9246 73.2615 60.2489C73.974 59.5732 74.3233 58.8767 74.3233 58.1734C74.3233 57.7873 73.8918 57.3598 73.0354 56.9047C72.6313 56.691 72.4052 56.5737 72.3504 56.5324C71.8777 56.2152 71.5831 55.898 71.4598 55.5808C71.2132 56.0014 70.8227 56.6151 70.2747 57.4081C70.1514 57.546 70.0349 57.5804 69.9322 57.4977C69.8294 57.4219 69.8157 57.3115 69.9048 57.1667C70.6241 56.1807 71.0968 55.3533 71.3228 54.6776C71.4461 53.7053 72.1449 52.8365 73.4259 52.0574C74.707 51.2851 75.8716 50.8921 76.9197 50.8921C77.5842 50.8921 78.0569 51.0093 78.324 51.2506C78.5981 51.492 78.7282 51.7195 78.7282 51.9539C78.7282 52.1884 78.6597 52.4504 78.5295 52.7469C78.3994 53.0434 78.1322 53.3261 77.728 53.595C77.6253 53.664 77.5362 53.6502 77.4677 53.5398C77.4335 53.4364 77.5088 53.2916 77.6938 53.1055C77.8787 52.9193 77.9952 52.6711 78.05 52.3539C78.1048 52.0367 77.961 51.8436 77.6321 51.7747H77.4746C76.7895 51.7747 75.9332 52.0298 74.9125 52.54C73.8918 53.0503 73.0834 53.7122 72.508 54.5259C72.2819 54.8293 72.1654 55.1326 72.1654 55.436C72.1654 55.7394 72.3778 56.0221 72.7957 56.2704C72.9669 56.3738 73.2684 56.5462 73.6863 56.7737C74.1041 57.0012 74.4055 57.1736 74.5768 57.2771C74.7481 57.3805 74.9604 57.5529 75.2071 57.7804C75.4537 58.0079 75.5838 58.2217 75.6044 58.4148C75.6934 58.9457 75.4468 59.5249 74.8714 60.1593C74.0493 61.0763 72.8231 61.7176 71.1927 62.0899C70.8227 62.1796 70.4528 62.2209 70.076 62.2209C69.6993 62.2209 69.4389 62.083 69.3019 61.8003C69.2471 61.7314 69.2197 61.621 69.2197 61.4693C69.2197 61.3176 69.3636 61.0763 69.6445 60.7453C69.9048 60.4833 70.3295 60.2282 70.9049 59.98C70.9598 59.9593 71.0009 59.9731 71.0351 60.0076C71.0694 60.042 71.0762 60.0903 71.0625 60.1386C71.042 60.1937 70.9529 60.2558 70.7885 60.3247C70.6241 60.3937 70.4391 60.5661 70.2473 60.8281L70.2542 60.8143Z" fill="url(#paint46_linear_560_2405)"/>
<path d="M81.9686 53.1401C83.3181 53.0159 84.1402 52.9539 84.4279 52.9539C84.7156 52.9539 84.8595 52.9953 84.8595 53.0849C84.8595 53.1883 84.654 53.2986 84.2429 53.4159C83.8319 53.5331 82.8317 53.6779 81.2356 53.8503C81.1465 54.0089 81.0437 54.195 80.9204 54.4088C80.6601 54.8294 80.5163 55.0845 80.5026 55.1741C79.5024 57.1876 78.9817 58.4632 78.9269 59.0079C78.9064 59.1665 78.8995 59.3664 78.8995 59.6147C78.8995 59.8629 78.968 60.0629 79.1119 60.2214C79.3585 60.5041 79.7079 60.5179 80.16 60.2766C80.619 60.0284 81.2493 59.5388 82.0645 58.7941C82.8797 58.0563 83.5373 57.3323 84.0511 56.6221C84.1196 56.5325 84.2087 56.5187 84.3114 56.567C84.5717 56.6911 84.1196 57.3875 82.9413 58.6562C81.8179 59.8698 80.8862 60.6214 80.1326 60.9041C79.6942 61.0627 79.3243 61.1454 79.0297 61.1454C78.3309 61.1454 77.8651 60.8075 77.639 60.1387C77.6048 60.0146 77.5842 59.8629 77.5842 59.6905C77.5842 59.0768 77.8651 58.1391 78.4269 56.8842C78.3378 57.0772 77.9953 57.5185 77.3993 58.208C77.2417 58.3873 77.1184 58.3873 77.0294 58.208C77.0088 58.1736 77.002 58.1253 77.002 58.0632C77.002 58.0012 77.0362 57.9253 77.1047 57.8357C77.961 56.76 78.6392 55.8499 79.1256 55.1121C79.1256 55.0914 79.3174 54.726 79.7011 54.002C79.5298 54.0364 79.3448 54.0571 79.1599 54.0571C78.9749 54.0571 78.8379 54.002 78.7488 53.8847C78.6598 53.7675 78.6529 53.6365 78.7214 53.471C78.8447 53.1883 79.3106 53.0297 80.1121 52.9953C80.1326 52.9608 80.1669 52.9401 80.2148 52.9401L81.5301 50.4785C81.5986 50.3406 81.6808 50.1889 81.763 50.0441C81.8521 49.8924 81.9138 49.7821 81.9617 49.6993C82.0028 49.6235 82.0508 49.5339 82.1056 49.4511C82.1604 49.3615 82.2015 49.2994 82.2357 49.265C82.27 49.2305 82.3042 49.196 82.3385 49.1615C82.407 49.0581 82.6125 49.0029 82.955 49.0029C83.2976 49.0029 83.5305 49.0995 83.6538 49.2925C83.7086 49.3615 83.736 49.4856 83.736 49.6511C83.736 49.8166 83.6743 50.0027 83.551 50.2096C83.4277 50.4096 83.2976 50.5544 83.1537 50.644C83.0167 50.7336 82.9139 50.8302 82.866 50.9336L81.6055 53.1539L81.948 53.1263L81.9686 53.1401Z" fill="url(#paint47_linear_560_2405)"/>
</g>
<path d="M35.4807 37.8874L29.8496 32.1988L31.2334 30.8129C31.4321 30.6129 31.6307 30.4681 31.8363 30.3647C32.0418 30.2682 32.2404 30.213 32.4322 30.2061C32.6241 30.1992 32.8227 30.2268 33.0145 30.2957C33.2132 30.3647 33.3982 30.4543 33.5694 30.5716C33.7407 30.6888 33.912 30.8336 34.0832 31.006C34.2545 31.1783 34.4052 31.3507 34.5285 31.5231C34.6518 31.6955 34.7546 31.8816 34.8368 32.0885C34.919 32.2954 34.9601 32.5022 34.9601 32.6953C34.9601 32.8952 34.9121 33.1021 34.8162 33.3227C34.7203 33.5434 34.5628 33.764 34.3572 33.9709L33.4735 34.8535L35.974 37.384L35.4739 37.8805L35.4807 37.8874ZM33.083 34.4536L34.0284 33.5158C34.3093 33.24 34.4189 32.9366 34.3367 32.6194C34.2613 32.3023 34.0147 31.9299 33.6037 31.5093C33.2132 31.1163 32.8638 30.8956 32.5556 30.8405C32.2473 30.7853 31.9596 30.8887 31.6992 31.1507L30.7607 32.0954L33.0899 34.4467L33.083 34.4536Z" fill="url(#paint48_radial_560_2405)"/>
<path d="M38.858 34.6191L33.9805 28.2617L35.6657 26.9516C35.8781 26.7862 36.0904 26.6689 36.2959 26.6069C36.5015 26.5379 36.6933 26.5172 36.8645 26.5379C37.0358 26.5586 37.2139 26.6138 37.3852 26.7103C37.5564 26.8068 37.714 26.9241 37.851 27.0551C37.9949 27.193 38.1387 27.3516 38.2757 27.5377C38.8991 28.3445 39.0019 29.0892 38.5771 29.7649L41.9887 32.1782L41.3927 32.6402L38.0908 30.2544L37.0289 31.0819L39.4061 34.1847L38.8512 34.6191H38.858ZM36.6864 30.6337L37.8099 29.758C37.9675 29.6339 38.0771 29.496 38.1387 29.3512C38.2004 29.1995 38.2141 29.0478 38.1798 28.8892C38.1456 28.7306 38.0908 28.572 38.0086 28.4272C37.9332 28.2824 37.8304 28.1307 37.7071 27.9583C37.6044 27.8204 37.5016 27.7032 37.4057 27.6067C37.3098 27.5102 37.2002 27.4205 37.0906 27.3447C36.9741 27.2688 36.8577 27.2206 36.7481 27.193C36.6385 27.1654 36.5152 27.1723 36.3918 27.2068C36.2617 27.2412 36.1384 27.3033 36.0082 27.4067L34.8847 28.2755L36.6864 30.6268V30.6337Z" fill="url(#paint49_radial_560_2405)"/>
<path d="M42.8725 31.6404L38.7485 24.7659L41.1257 23.3179L41.4202 23.8074L39.646 24.89L41.2079 27.4895L42.4752 26.7172L42.7492 27.1723L41.4819 27.9446L43.1877 30.7785L44.9619 29.6959L45.2565 30.1855L42.8725 31.6335V31.6404Z" fill="url(#paint50_radial_560_2405)"/>
<path d="M46.0581 29.7167L42.8521 22.3664L43.6467 22.0147L47.8255 27.7378C47.6337 26.8276 47.4213 25.7106 47.1816 24.3798C46.9418 23.049 46.702 21.8423 46.4691 20.7667L47.2638 20.415L50.4698 27.7653L49.8944 28.0205L47.3254 22.1388L48.5448 28.6203L47.9831 28.8686L44.0714 23.5868L46.6335 29.4685L46.0581 29.7236V29.7167Z" fill="url(#paint51_radial_560_2405)"/>
<path d="M51.8122 27.3792L49.4146 19.7186L50.0859 19.5049L52.4767 27.1655L51.8054 27.3792H51.8122Z" fill="url(#paint52_radial_560_2405)"/>
<path d="M53.3264 24.8212L52.0864 18.8982L52.7783 18.7534L54.0525 24.8419C54.1484 25.2901 54.3197 25.6073 54.5663 25.7865C54.8129 25.9658 55.1829 26.0003 55.6624 25.9038C56.1145 25.8072 56.4159 25.628 56.5598 25.3659C56.7105 25.1039 56.7311 24.7454 56.642 24.2972L55.3678 18.2156L56.0529 18.0708L57.2928 23.9938C57.5805 25.3659 57.0736 26.1865 55.7788 26.4623C55.4706 26.5312 55.1829 26.5519 54.9294 26.5243C54.6759 26.5036 54.4635 26.4416 54.2854 26.352C54.1073 26.2623 53.9566 26.1382 53.8265 25.9796C53.6963 25.821 53.5935 25.6486 53.5182 25.4625C53.4428 25.2763 53.3812 25.0694 53.3264 24.835V24.8212Z" fill="url(#paint53_radial_560_2405)"/>
<path d="M58.9918 25.7038L58.4985 17.6915L59.3617 17.6364L61.3209 24.4626C61.4511 23.5455 61.6361 22.4216 61.869 21.0909C62.1019 19.7601 62.2869 18.5465 62.4376 17.4502L63.3007 17.395L63.794 25.4073L63.1706 25.4486L62.7801 19.0361L61.7046 25.5383L61.0949 25.5796L59.2315 19.2636L59.622 25.6693L58.9986 25.7106L58.9918 25.7038Z" fill="url(#paint54_radial_560_2405)"/>
<path d="M67.3631 23.2559L67.829 19.9255C67.8701 19.6428 67.9249 19.3946 68.0002 19.1601C68.0756 18.9326 68.1715 18.7188 68.3016 18.5258C68.4318 18.3327 68.5757 18.1741 68.7469 18.05C68.9182 17.9259 69.1237 17.8431 69.3703 17.7949C69.6169 17.7466 69.8841 17.7397 70.1855 17.7811C70.4869 17.8224 70.7473 17.9052 70.9665 18.0155C71.1857 18.1327 71.3638 18.2706 71.494 18.4361C71.6241 18.6016 71.72 18.7947 71.7954 19.0153C71.8639 19.236 71.905 19.4704 71.9119 19.7048C71.9187 19.9462 71.9119 20.2082 71.8639 20.484L71.3981 23.8144C71.2405 24.9245 70.8295 25.6071 70.1513 25.8692C70.254 25.9933 70.3362 26.0898 70.4047 26.1588C70.4732 26.2277 70.5692 26.3104 70.6856 26.3932C70.8021 26.4759 70.9254 26.538 71.0487 26.5725L70.9733 27.0965C70.7267 27.0207 70.5007 26.8965 70.2951 26.7035C70.0896 26.5173 69.891 26.2691 69.6854 25.9657C69.4799 25.9864 69.2607 25.9795 69.0415 25.9519C67.6988 25.7588 67.1371 24.8556 67.3631 23.2352V23.2559ZM70.6719 23.8902L71.1789 20.2427C71.3364 19.105 70.9733 18.4775 70.0965 18.3534C69.2196 18.2293 68.699 18.7395 68.5414 19.8703L68.0345 23.5179C67.8769 24.6556 68.2331 25.29 69.1169 25.4141C69.9937 25.5382 70.5144 25.0279 70.6719 23.8902Z" fill="url(#paint55_radial_560_2405)"/>
<path d="M72.7065 24.4695L74.3437 18.6431L75.0219 18.8361L73.3367 24.8212C73.2134 25.2625 73.2203 25.621 73.3573 25.8968C73.4943 26.1726 73.8026 26.3726 74.2752 26.5105C74.7205 26.6346 75.0699 26.6208 75.3234 26.4553C75.5768 26.2899 75.7618 25.9865 75.8851 25.5521L77.5703 19.567L78.2417 19.7601L76.6044 25.5865C76.2276 26.9311 75.3987 27.4207 74.1245 27.0621C73.8163 26.9725 73.5559 26.8622 73.3436 26.7243C73.1312 26.5864 72.9668 26.4347 72.8572 26.2692C72.7407 26.1037 72.6654 25.9244 72.6243 25.7244C72.5832 25.5245 72.5695 25.3245 72.59 25.1246C72.6106 24.9246 72.6517 24.7109 72.7133 24.4764L72.7065 24.4695Z" fill="url(#paint56_radial_560_2405)"/>
<path d="M77.5702 28.0551L76.9194 27.7724L81.5093 21.0151L82.3519 21.3806L80.6598 29.3859L80.0022 29.1032L80.4543 27.0209L78.7622 26.29L77.5702 28.0483V28.0551ZM79.0225 25.8969L80.557 26.5589L81.6326 21.877L79.0225 25.8969Z" fill="url(#paint57_radial_560_2405)"/>
<path d="M81.4956 29.8547L85.4004 22.8491L86.0169 23.1939L82.393 29.703L84.3386 30.7993L84.0645 31.2958L81.5025 29.8478L81.4956 29.8547Z" fill="url(#paint58_radial_560_2405)"/>
<path d="M84.6538 31.7303L89.0655 25.042L89.6547 25.435L85.243 32.1234L84.6538 31.7303Z" fill="url(#paint59_radial_560_2405)"/>
<path d="M87.0034 33.4055L91.5522 27.517L90.3259 26.5585L90.6753 26.1104L93.6964 28.4754L93.347 28.9236L92.107 27.9583L87.5583 33.8468L87.0034 33.4124V33.4055Z" fill="url(#paint60_radial_560_2405)"/>
<path d="M89.9902 35.95L91.696 34.1503L94.2307 28.9307L94.7445 29.4271C94.6349 29.634 94.4842 29.9236 94.2924 30.2959C94.1005 30.6752 93.9019 31.0544 93.7032 31.4474C93.5045 31.8335 93.3127 32.2128 93.1346 32.5713C92.9565 32.9299 92.8058 33.2264 92.6893 33.4608L92.5181 33.8056C93.162 33.4126 93.8813 32.985 94.676 32.53C95.4706 32.068 96.1557 31.6681 96.7311 31.3233L97.2312 31.806L92.2166 34.6399L90.5109 36.4395L89.9971 35.95H89.9902Z" fill="url(#paint61_radial_560_2405)"/>
<path d="M30.6514 97.4896L35.9879 91.5942L37.4197 92.9112C37.6252 93.0974 37.7827 93.2905 37.8855 93.4973C37.9951 93.6973 38.0568 93.8972 38.0773 94.0903C38.091 94.2834 38.0773 94.4764 38.0156 94.6764C37.9608 94.8764 37.8786 95.0625 37.769 95.2418C37.6594 95.4211 37.5224 95.6004 37.3649 95.7727C37.2004 95.952 37.036 96.1106 36.8785 96.2416C36.7141 96.3726 36.5359 96.4829 36.3304 96.5726C36.1318 96.6622 35.9331 96.7174 35.7344 96.7243C35.5358 96.7381 35.3303 96.6967 35.1042 96.614C34.8781 96.5243 34.6589 96.3864 34.4465 96.1865L33.5354 95.3521L31.1652 97.9723L30.6514 97.4965V97.4896ZM33.9191 94.9246L34.8918 95.821C35.1795 96.0899 35.481 96.1796 35.7892 96.0899C36.0975 96.0003 36.4469 95.7383 36.8442 95.3039C37.2141 94.897 37.4128 94.5385 37.4539 94.2282C37.4882 93.9179 37.3717 93.6352 37.1045 93.387L36.1318 92.4975L33.9259 94.9384L33.9191 94.9246Z" fill="url(#paint62_radial_560_2405)"/>
<path d="M34.6934 101.041L39.3174 94.5591L41.0301 95.8002C41.2493 95.9588 41.4137 96.1243 41.537 96.3036C41.6603 96.4828 41.7357 96.6552 41.7631 96.8276C41.7905 97 41.7836 97.1793 41.7425 97.3723C41.7014 97.5654 41.6329 97.7447 41.5439 97.9239C41.4548 98.0963 41.3452 98.2825 41.2082 98.4687C40.619 99.2961 39.9477 99.5995 39.1941 99.3926L37.8857 103.344L37.2828 102.909L38.5981 99.0686L37.5158 98.2894L35.262 101.454L34.6934 101.041ZM37.8446 97.8274L38.9886 98.6548C39.153 98.7721 39.3106 98.841 39.4682 98.8548C39.6257 98.8686 39.7764 98.841 39.9203 98.7583C40.0641 98.6755 40.1943 98.579 40.3108 98.4687C40.4272 98.3514 40.5437 98.2135 40.6601 98.0481C40.756 97.9102 40.8383 97.7791 40.9068 97.6619C40.9753 97.5447 41.0232 97.4137 41.0643 97.2827C41.1054 97.1517 41.1191 97.0276 41.1123 96.9104C41.1054 96.7931 41.0643 96.6828 40.9958 96.5656C40.9273 96.4553 40.8314 96.3518 40.7012 96.2553L39.5572 95.4279L37.8446 97.8274Z" fill="url(#paint63_radial_560_2405)"/>
<path d="M39.3037 104.199L43.2222 97.269L45.6199 98.6481L45.339 99.1376L43.5442 98.1103L42.0576 100.737L43.3387 101.468L43.0784 101.93L41.7973 101.199L40.1806 104.061L41.9686 105.088L41.6877 105.578L39.29 104.199H39.3037Z" fill="url(#paint64_radial_560_2405)"/>
<path d="M43.167 106.357L46.236 99.0068L47.0307 99.3447L45.7907 106.288C46.3114 105.53 46.9622 104.606 47.75 103.523C48.5378 102.441 49.2365 101.441 49.8462 100.531L50.6409 100.869L47.5719 108.226L47.0033 107.984L49.4557 102.103L45.6537 107.419L45.092 107.185L46.1949 100.738L43.7424 106.619L43.167 106.378V106.357Z" fill="url(#paint65_radial_560_2405)"/>
<path d="M49.5176 108.812L51.833 101.186L52.5044 101.392L50.1958 109.019L49.5244 108.812H49.5176Z" fill="url(#paint66_radial_560_2405)"/>
<path d="M52.34 107.633L53.5663 101.744L54.2513 101.889L52.9908 107.936C52.8949 108.384 52.9292 108.736 53.0867 108.998C53.2375 109.26 53.5594 109.439 54.0321 109.543C54.4843 109.639 54.8268 109.598 55.0665 109.412C55.3063 109.232 55.4707 108.922 55.5598 108.474L56.8203 102.427L57.5053 102.572L56.2791 108.46C55.9914 109.818 55.2104 110.363 53.9225 110.094C53.6142 110.032 53.3471 109.936 53.1279 109.812C52.9086 109.687 52.7374 109.55 52.6141 109.398C52.4908 109.246 52.4017 109.067 52.3469 108.874C52.2921 108.674 52.2647 108.481 52.2715 108.281C52.2715 108.081 52.2989 107.867 52.3537 107.633H52.34Z" fill="url(#paint67_radial_560_2405)"/>
<path d="M57.9712 110.701L58.5398 102.744L59.3961 102.806L60.4306 109.784C60.684 108.894 61.006 107.812 61.4102 106.536C61.8144 105.26 62.1569 104.088 62.4446 103.026L63.3009 103.088L62.7323 111.045L62.1089 111.004L62.5611 104.64L60.6429 110.901L60.0332 110.852L59.0262 104.385L58.5741 110.742L57.9507 110.694L57.9712 110.701Z" fill="url(#paint68_radial_560_2405)"/>
<path d="M66.8151 108.632L66.4383 105.309C66.4041 105.026 66.3972 104.771 66.4109 104.536C66.4246 104.302 66.4726 104.067 66.5479 103.854C66.6233 103.64 66.726 103.447 66.8562 103.288C66.9863 103.13 67.1713 102.992 67.3905 102.881C67.6097 102.771 67.8701 102.702 68.1715 102.668C68.4729 102.633 68.7401 102.647 68.9798 102.702C69.2196 102.757 69.4251 102.847 69.5895 102.978C69.754 103.102 69.8978 103.268 70.0211 103.461C70.1444 103.654 70.2335 103.867 70.302 104.095C70.3705 104.323 70.4184 104.578 70.4527 104.854L70.8295 108.177C70.9528 109.28 70.7199 110.046 70.1376 110.466C70.2609 110.556 70.3705 110.632 70.4527 110.68C70.5349 110.735 70.6445 110.783 70.7815 110.839C70.9185 110.887 71.0487 110.914 71.172 110.921L71.2337 111.445C70.9733 111.438 70.7267 111.369 70.487 111.238C70.2472 111.107 69.9937 110.921 69.7197 110.68C69.521 110.749 69.3155 110.797 69.0963 110.825C67.7536 110.976 67.0001 110.246 66.8151 108.632ZM70.1581 108.405L69.7471 104.771C69.6169 103.64 69.1169 103.123 68.24 103.219C67.3631 103.323 66.9932 103.936 67.1165 105.067L67.5275 108.701C67.6577 109.839 68.1578 110.356 69.0278 110.252C69.9047 110.149 70.2746 109.535 70.1513 108.398L70.1581 108.405Z" fill="url(#paint69_radial_560_2405)"/>
<path d="M72.4874 108.232L71.0693 102.392L71.7475 102.227L73.1998 108.225C73.3094 108.667 73.4876 108.977 73.741 109.143C73.9945 109.315 74.3576 109.336 74.8303 109.218C75.2755 109.108 75.5701 108.922 75.7071 108.653C75.8441 108.384 75.8578 108.032 75.7551 107.591L74.2959 101.592L74.9741 101.427L76.3922 107.267C76.721 108.618 76.2415 109.453 74.9673 109.763C74.659 109.839 74.3781 109.866 74.1315 109.853C73.878 109.839 73.6657 109.791 73.4876 109.701C73.3094 109.618 73.1519 109.494 73.0217 109.342C72.8847 109.191 72.7751 109.025 72.6998 108.839C72.6176 108.66 72.549 108.453 72.4942 108.219L72.4874 108.232Z" fill="url(#paint70_radial_560_2405)"/>
<path d="M79.0569 108.453L78.3993 108.701L77.084 100.682L77.9403 100.358L82.1876 107.274L81.5231 107.522L80.427 105.715L78.7144 106.364L79.0569 108.453ZM78.6253 105.902L80.1736 105.316L77.7553 101.213L78.6185 105.902H78.6253Z" fill="url(#paint71_radial_560_2405)"/>
<path d="M83.5782 106.619L80.0776 99.4616L80.7079 99.1514L83.955 105.798L85.9417 104.812L86.1883 105.323L83.5714 106.619H83.5782Z" fill="url(#paint72_radial_560_2405)"/>
<path d="M87.2092 104.716L83.2222 97.8277L83.825 97.4761L87.812 104.364L87.2092 104.723V104.716Z" fill="url(#paint73_radial_560_2405)"/>
<path d="M89.9834 102.985L85.8457 96.8553L84.5715 97.7241L84.2563 97.2553L87.4007 95.1108L87.7158 95.5797L86.428 96.4623L90.5657 102.592L89.9834 102.985Z" fill="url(#paint74_radial_560_2405)"/>
<path d="M93.5663 100.323L92.0044 98.4134L87.1953 95.2761L87.7433 94.821C87.9352 94.952 88.2023 95.1382 88.5449 95.3726C88.8874 95.6139 89.2436 95.8484 89.5998 96.0966C89.9561 96.3379 90.3054 96.5724 90.6343 96.793C90.9631 97.0137 91.2371 97.1998 91.4495 97.3446L91.7646 97.5584C91.4563 96.8758 91.1206 96.1104 90.7713 95.2623C90.415 94.4211 90.0999 93.6902 89.8327 93.0834L90.3602 92.6421L92.5455 97.9583L94.1075 99.8683L93.5663 100.316V100.323Z" fill="url(#paint75_radial_560_2405)"/>
<path d="M24.1774 67.1024L21.6907 65.6199L19.204 67.1024L19.8342 64.2616L17.6626 62.3447L20.5398 62.0689L21.6838 59.3936L22.8347 62.0689L25.7119 62.3378L23.5403 64.2616L24.1774 67.1024Z" fill="url(#paint76_radial_560_2405)"/>
<path d="M109.233 67.1024L106.746 65.6199L104.26 67.1024L104.89 64.2616L102.718 62.3447L105.595 62.0689L106.74 59.3936L107.89 62.0689L110.768 62.3378L108.596 64.2616L109.233 67.1024Z" fill="url(#paint77_radial_560_2405)"/>
<path d="M41.8108 80.8515C40.6873 80.8515 39.7351 80.4585 38.9542 79.6655C38.1664 78.8726 37.7759 77.9211 37.7759 76.804V67.5369C37.7759 66.4061 38.1732 65.4476 38.961 64.6616C39.7488 63.8686 40.701 63.4756 41.8108 63.4756C42.9206 63.4756 43.8797 63.8755 44.6675 64.6685C45.4484 65.4614 45.8389 66.4198 45.8389 67.5438V69.4813H43.2015V67.4886C43.2015 67.0818 43.0576 66.737 42.7699 66.4474C42.4822 66.1578 42.1396 66.013 41.7355 66.013C41.3313 66.013 40.9888 66.1578 40.7079 66.4474C40.427 66.737 40.2832 67.0818 40.2832 67.4886V76.7833C40.2832 77.1902 40.427 77.5349 40.7079 77.8176C40.9888 78.1003 41.3313 78.2451 41.7355 78.2451C42.1396 78.2451 42.4822 78.1003 42.7699 77.8176C43.0576 77.5349 43.2015 77.1902 43.2015 76.7833V74.439H45.8389V76.8109C45.8389 77.9417 45.4416 78.8933 44.6538 79.6793C43.866 80.4654 42.9137 80.8584 41.8108 80.8584V80.8515Z" fill="url(#paint78_radial_560_2405)"/>
<path d="M50.4629 73.439V80.6307H47.9214V63.6616H50.4629V70.8671H53.5319V63.6616H56.0735V80.6307H53.5319V73.439H50.4629Z" fill="url(#paint79_radial_560_2405)"/>
<path d="M62.3484 63.4409C63.4719 63.4409 64.4241 63.8408 65.2051 64.6338C65.986 65.4267 66.3834 66.3852 66.3834 67.5022V76.7694C66.3834 77.9002 65.986 78.8586 65.1982 79.6447C64.4104 80.4376 63.4582 80.8306 62.3416 80.8306C61.2249 80.8306 60.2727 80.4307 59.4849 79.6378C58.704 78.8448 58.3135 77.8864 58.3135 76.7694V67.5022C58.3135 66.3714 58.7108 65.4129 59.4986 64.6269C60.2864 63.8339 61.2386 63.4409 62.3416 63.4409H62.3484ZM63.7322 67.4539C63.7322 67.0471 63.5884 66.7024 63.3075 66.4196C63.0266 66.1369 62.6841 65.9921 62.2799 65.9921C61.8757 65.9921 61.5332 66.1369 61.2455 66.4196C60.9578 66.7024 60.8139 67.0471 60.8139 67.4539V76.7487C60.8139 77.1555 60.9578 77.5003 61.2455 77.783C61.5332 78.0657 61.8757 78.2105 62.2799 78.2105C62.6841 78.2105 63.0266 78.0657 63.3075 77.783C63.5884 77.5003 63.7322 77.1555 63.7322 76.7487V67.4539Z" fill="url(#paint80_radial_560_2405)"/>
<path d="M71.1787 80.6307H68.6372V63.6616H71.1787V80.6307Z" fill="url(#paint81_radial_560_2405)"/>
<path d="M77.4607 80.8515C76.3372 80.8515 75.385 80.4585 74.6041 79.6655C73.8163 78.8726 73.4258 77.9211 73.4258 76.804V67.5369C73.4258 66.4061 73.8231 65.4476 74.6109 64.6616C75.3987 63.8686 76.3509 63.4756 77.4607 63.4756C78.5705 63.4756 79.5364 63.8755 80.3105 64.6685C81.0915 65.4614 81.482 66.4198 81.482 67.5438V69.4813H78.8445V67.4886C78.8445 67.0818 78.7007 66.737 78.4129 66.4474C78.1252 66.1578 77.7827 66.013 77.3785 66.013C76.9743 66.013 76.6318 66.1578 76.3509 66.4474C76.0701 66.737 75.9262 67.0818 75.9262 67.4886V76.7833C75.9262 77.1902 76.0701 77.5349 76.3509 77.8176C76.6318 78.1003 76.9743 78.2451 77.3785 78.2451C77.7827 78.2451 78.1252 78.1003 78.4129 77.8176C78.7007 77.5349 78.8445 77.1902 78.8445 76.7833V74.439H81.482V76.8109C81.482 77.9417 81.0846 78.8933 80.2968 79.6793C79.509 80.4654 78.5637 80.8584 77.4607 80.8584V80.8515Z" fill="url(#paint82_radial_560_2405)"/>
<path d="M83.5713 80.6309V63.6479H90.8123V66.2199H86.1128V70.8534H89.5449V73.4254H86.1128V78.0589H90.8123V80.6309H83.5713Z" fill="url(#paint83_radial_560_2405)"/>
<path d="M43.3385 51.2297L43.2837 50.8091C43.3522 50.0713 43.7769 49.3335 44.5579 48.6095C45.3388 47.8855 46.3185 47.196 47.5104 46.5478C48.7024 45.8928 50.5932 45.3481 53.1895 44.9068C54.6624 44.6792 55.8955 44.562 56.8819 44.562C57.8684 44.562 58.7453 44.6448 59.4988 44.8102C60.2524 44.9757 60.8758 45.3067 61.3621 45.8031C61.8554 46.2996 62.102 46.8857 62.102 47.5614C62.102 48.2372 61.8143 48.8784 61.2457 49.4783C60.6771 50.0782 59.9646 50.5333 59.1015 50.8504C57.4368 51.471 55.8406 51.8089 54.3198 51.8847C55.0734 52.3467 55.6968 52.7466 56.1832 53.0914C56.6696 53.4361 57.197 53.8912 57.7588 54.4566C58.3205 55.022 58.6768 55.5047 58.8343 55.9115C58.9919 56.3183 59.0672 56.6769 59.0672 56.9941C59.0672 58.0353 58.6699 59.0282 57.8821 59.9797C57.3546 60.6348 56.6216 61.1519 55.6899 61.538C54.7514 61.9242 53.7581 62.1172 52.71 62.1172C50.4699 62.1172 49.2436 61.3243 49.0313 59.7384C48.997 59.7039 48.9765 59.6487 48.9765 59.5798C48.312 60.6554 47.7571 61.1933 47.3186 61.1933C47.1953 61.1933 46.9967 61.1588 46.7295 61.0967C46.4555 61.0347 46.3185 60.9657 46.3116 60.8968C46.3048 60.8278 46.2979 60.6761 46.2979 60.4486C46.2979 60.221 46.4623 59.6694 46.798 58.7937C47.1268 57.918 47.5104 57.063 47.9283 56.2149C48.7504 54.629 49.5656 53.0914 50.374 51.6158C50.511 51.2986 50.5863 51.0573 50.5863 50.8987C50.5863 50.7401 50.5795 50.616 50.5589 50.5264C50.6274 50.0299 51.0522 49.3887 51.8331 48.5819C52.6141 47.7821 53.3197 47.3753 53.9499 47.3753C54.1623 47.3753 54.4363 47.458 54.7925 47.6166C55.1419 47.7752 55.3543 47.9958 55.4228 48.2785C55.4365 48.4026 55.4433 48.4785 55.4365 48.5061C55.4296 48.5337 55.3817 48.5268 55.2926 48.4923C55.2036 48.4578 55.1556 48.4371 55.1351 48.4371C54.5733 48.4371 53.902 48.8577 53.1279 49.692C52.3469 50.5264 51.6002 51.5538 50.8809 52.7742C49.3943 55.2427 48.3257 57.2699 47.6749 58.8558C47.531 59.2074 47.4625 59.4833 47.4625 59.6763C47.4625 59.9383 47.579 60.0693 47.805 60.0693C48.0311 60.0693 48.3394 59.828 48.723 59.3453C49.1066 58.8627 49.3806 58.6213 49.5382 58.6282C49.6958 58.6351 49.8259 58.6834 49.9218 58.773C50.0177 58.8627 50.0862 58.9523 50.1205 59.0489C50.1547 59.1454 50.1821 59.2833 50.2027 59.4626C50.2232 59.6418 50.2369 59.7522 50.2575 59.8073C50.5384 61.0554 51.4221 61.6828 52.9086 61.6828H53.0114C54.2171 61.6828 55.2515 61.4001 56.1147 60.8347C57.06 60.2004 57.5327 59.4074 57.5327 58.4697C57.5327 57.5319 57.0943 56.5321 56.2174 55.4909C55.9366 55.1737 55.5255 54.7738 54.9843 54.298C53.8266 53.2913 53.2306 52.6501 53.1964 52.3674C53.1621 52.0847 53.2786 51.8503 53.5526 51.6641C53.8266 51.4779 54.0732 51.3883 54.2993 51.3883C55.1556 51.3883 56.327 51.078 57.8204 50.4643C60.0126 49.561 61.184 48.5681 61.3416 47.4787V47.3201C61.3416 47.0029 61.1977 46.7064 60.9237 46.4237C60.451 45.9135 59.4509 45.6584 57.93 45.6584C55.8475 45.6584 53.4224 46.0376 50.6548 46.7961C48.9696 47.258 47.4899 47.9062 46.2157 48.7543C44.8114 49.692 44.1126 50.685 44.1126 51.7399C44.1126 51.9675 44.1811 52.195 44.325 52.4157C44.462 52.6363 44.6264 52.7949 44.8113 52.8914C44.9963 52.988 45.2361 53.0914 45.5307 53.2086C45.8321 53.3258 46.0444 53.4086 46.1746 53.4706C46.3048 53.5327 46.3459 53.6085 46.3048 53.6982C46.2637 53.7878 46.1335 53.8154 45.9211 53.7809C45.3457 53.7464 44.7634 53.5051 44.188 53.05C43.6125 52.6018 43.3179 52.0778 43.3179 51.4779C43.3179 51.3883 43.3248 51.2986 43.3453 51.2159L43.3385 51.2297Z" fill="url(#paint84_radial_560_2405)"/>
<path d="M67.1986 52.4985C68.144 52.4985 68.6166 52.9536 68.6166 53.8707C68.6166 54.3465 68.4865 54.7326 68.2193 55.036C67.7809 55.691 67.0684 56.2564 66.0888 56.7391C65.1092 57.2218 64.2734 57.4907 63.5952 57.5458C63.3486 57.5665 63.2185 57.4907 63.1979 57.3321C63.1773 57.2631 63.1979 57.2149 63.2664 57.2011C63.3281 57.1804 63.376 57.1735 63.4103 57.1735C63.8144 57.139 64.3282 56.9459 64.9585 56.5943C66.1299 55.9599 66.9931 55.3049 67.5343 54.6361C67.7603 54.3189 67.8768 54.0155 67.8768 53.7259C67.8768 53.4363 67.7329 53.2915 67.4521 53.2915C67.226 53.2915 66.9177 53.388 66.5341 53.5811C65.712 53.9672 64.842 54.6429 63.9309 55.6014C63.0198 56.5598 62.4238 57.5045 62.1429 58.4215C62.0539 58.7042 62.0128 58.98 62.0128 59.2558C62.0128 59.5317 62.1292 59.7868 62.3553 60.035C62.5814 60.2832 62.9307 60.4073 63.4034 60.4073C63.9309 60.4073 64.5337 60.2625 65.2188 59.9867C67.1986 59.1731 68.7194 57.9526 69.7881 56.3116C69.8908 56.1737 69.9867 56.1461 70.0758 56.2288C70.1443 56.2633 70.1786 56.3116 70.1786 56.3599C70.1786 56.4081 70.1512 56.4771 70.0963 56.546C69.5689 57.4286 68.9044 58.2147 68.096 58.8973C66.5341 60.235 65.0201 60.9107 63.5473 60.9107C62.2868 60.9107 61.4031 60.5315 60.8893 59.773C60.6975 59.4765 60.6016 59.111 60.6016 58.6904C60.6016 58.2698 60.718 57.7665 60.9441 57.1804C61.3825 56.1737 62.321 55.1463 63.7528 54.0844C65.1914 53.0226 66.3286 52.4985 67.1712 52.4985H67.1986Z" fill="url(#paint85_radial_560_2405)"/>
<path d="M69.7746 60.4622C69.5486 60.7243 69.5006 60.938 69.6308 61.0966C69.7609 61.2552 69.9117 61.3379 70.0761 61.3379C70.2405 61.3379 70.4117 61.3104 70.5899 61.2552C71.3434 61.0277 72.0764 60.5726 72.782 59.8968C73.4945 59.2211 73.8438 58.5247 73.8438 57.8214C73.8438 57.4352 73.4123 57.0077 72.5559 56.5527C72.1518 56.3389 71.9257 56.2217 71.8709 56.1803C71.3982 55.8631 71.1036 55.546 70.9803 55.2288C70.7337 55.6494 70.3432 56.2631 69.7952 57.056C69.6719 57.1939 69.5623 57.2284 69.4527 57.1457C69.3499 57.0698 69.3362 56.9595 69.4253 56.8147C70.1446 55.8287 70.6173 55.0012 70.8433 54.3255C70.9666 53.3533 71.6654 52.4845 72.9464 51.7053C74.2275 50.9331 75.392 50.54 76.4402 50.54C77.1047 50.54 77.5705 50.6573 77.8445 50.8986C78.1185 51.1399 78.2487 51.3675 78.2487 51.6019C78.2487 51.8363 78.1802 52.0984 78.05 52.3949C77.9199 52.6913 77.6527 52.974 77.2485 53.243C77.1458 53.3119 77.0567 53.2981 76.9882 53.1878C76.954 53.0844 77.0293 52.9396 77.2143 52.7534C77.3992 52.5672 77.5157 52.319 77.5705 52.0018C77.6253 51.6846 77.4815 51.4916 77.1526 51.4226H76.9951C76.31 51.4226 75.4606 51.6777 74.433 52.188C73.4054 52.6982 72.6108 53.3602 72.0285 54.1738C71.8024 54.4772 71.6859 54.7806 71.6859 55.084C71.6859 55.3874 71.8983 55.6701 72.3162 55.9183C72.4874 56.0217 72.7889 56.1941 73.2067 56.4217C73.6246 56.6492 73.926 56.8216 74.0973 56.925C74.2686 57.0284 74.4809 57.2008 74.7276 57.4284C74.9742 57.6559 75.1043 57.8696 75.1249 58.0627C75.2139 58.5936 74.9673 59.1728 74.3919 59.8072C73.5698 60.7243 72.3436 61.3655 70.7132 61.7379C70.3432 61.8275 69.9733 61.8689 69.5965 61.8689C69.2198 61.8689 68.9594 61.731 68.8224 61.4483C68.7676 61.3793 68.7471 61.269 68.7471 61.1173C68.7471 60.9656 68.8841 60.7243 69.165 60.3933C69.4253 60.1313 69.85 59.8762 70.4254 59.6279C70.4802 59.6141 70.5213 59.621 70.5556 59.6555C70.5899 59.69 70.5967 59.7382 70.583 59.7865C70.5625 59.8417 70.4734 59.9037 70.309 59.9727C70.1446 60.0416 69.9596 60.214 69.7678 60.476L69.7746 60.4622Z" fill="url(#paint86_radial_560_2405)"/>
<path d="M81.4959 52.788C82.8455 52.6639 83.6607 52.6018 83.9552 52.6018C84.2498 52.6018 84.3868 52.6432 84.3868 52.7328C84.3868 52.8363 84.1813 52.9466 83.7703 53.0638C83.3592 53.181 82.3522 53.3258 80.7629 53.4982C80.6739 53.6568 80.5711 53.843 80.4478 54.0567C80.1875 54.4773 80.0436 54.7325 80.0299 54.8221C79.0297 56.8355 78.5091 58.1111 78.4543 58.6558C78.4337 58.8144 78.4269 59.0144 78.4269 59.2626C78.4269 59.5108 78.4954 59.7108 78.6393 59.8694C78.8859 60.1521 79.2352 60.1728 79.6874 59.9245C80.1464 59.6763 80.7766 59.1868 81.5918 58.4421C82.407 57.7043 83.0647 56.9803 83.5785 56.2701C83.647 56.1804 83.736 56.1667 83.8388 56.2149C84.0991 56.339 83.647 57.0355 82.4687 58.3042C81.3452 59.5246 80.4135 60.2693 79.66 60.552C79.2215 60.7106 78.8516 60.7933 78.557 60.7933C77.8583 60.7933 77.3925 60.4555 77.1664 59.7866C77.1321 59.6625 77.1116 59.5108 77.1116 59.3385C77.1116 58.7248 77.3925 57.787 77.9542 56.5321C77.8651 56.7252 77.5226 57.1665 76.9266 57.856C76.7691 58.0353 76.6458 58.0353 76.5567 57.856C76.5361 57.8215 76.5293 57.7732 76.5293 57.7112C76.5293 57.6491 76.5635 57.5733 76.6321 57.4836C77.4884 56.408 78.1666 55.4978 78.6598 54.76C78.6598 54.7393 78.8516 54.3739 79.2352 53.6499C79.0571 53.6844 78.879 53.7051 78.6941 53.7051C78.5091 53.7051 78.3721 53.6499 78.2899 53.5327C78.2008 53.4155 78.194 53.2776 78.2625 53.119C78.3858 52.8363 78.8516 52.6777 79.6531 52.6432C79.6737 52.6087 79.7079 52.588 79.7559 52.588L81.0712 50.1265C81.1397 49.9885 81.215 49.8437 81.3041 49.6921C81.3931 49.5404 81.4548 49.43 81.5028 49.3473C81.5439 49.2714 81.5918 49.1818 81.6466 49.0991C81.7014 49.0094 81.7425 48.9474 81.7768 48.9129C81.811 48.8784 81.8453 48.8439 81.8795 48.8095C81.948 48.706 82.1536 48.6509 82.4961 48.6509C82.8386 48.6509 83.0715 48.7474 83.1948 48.9405C83.2496 49.0094 83.2702 49.1335 83.2702 49.299C83.2702 49.4645 83.2085 49.6507 83.0852 49.8575C82.9619 50.0575 82.8318 50.2023 82.6879 50.2919C82.544 50.3816 82.4481 50.4781 82.4002 50.5815L81.1397 52.8018L81.4822 52.7742L81.4959 52.788Z" fill="url(#paint87_radial_560_2405)"/>
<path style="mix-blend-mode:screen" d="M94.8598 99.0806C94.8598 105.204 81.2342 110.161 64.4299 110.161C47.6256 110.161 34 105.197 34 99.0806C34 92.9646 47.6256 88 64.4299 88C81.2342 88 94.8598 92.9577 94.8598 99.0806Z" fill="url(#paint88_radial_560_2405)"/>
<path style="mix-blend-mode:screen" d="M113.5 74C110.461 74 108 67.5073 108 59.5C108 51.4927 110.464 45 113.5 45C116.536 45 119 51.4927 119 59.5C119 67.5073 116.539 74 113.5 74Z" fill="url(#paint89_radial_560_2405)"/>
<path style="mix-blend-mode:screen" d="M85.5051 21.3936C91.3914 31.2335 79.3705 48.8787 58.6545 60.813C37.9386 72.7472 16.3811 74.4386 10.4949 64.5987C4.60864 54.7638 16.6295 37.1186 37.3455 25.1893C58.0614 13.26 79.6239 11.5586 85.5102 21.3936H85.5051Z" fill="url(#paint90_radial_560_2405)"/>
<defs>
<linearGradient id="paint0_linear_560_2405" x1="6.16047" y1="64.1311" x2="124.667" y2="64.1311" gradientUnits="userSpaceOnUse">
<stop stop-color="#EEBE47"/>
<stop offset="0.12" stop-color="#F8DB76"/>
<stop offset="0.21" stop-color="#FFEE96"/>
<stop offset="0.45" stop-color="#A2621E"/>
<stop offset="0.67" stop-color="#EEA54C"/>
<stop offset="1" stop-color="#EEBE47"/>
</linearGradient>
<linearGradient id="paint1_linear_560_2405" x1="105.108" y1="105.844" x2="1.56527" y2="2.97235" gradientUnits="userSpaceOnUse">
<stop stop-color="#EEBE47"/>
<stop offset="0.12" stop-color="#F8DB76"/>
<stop offset="0.21" stop-color="#FFEE96"/>
<stop offset="0.45" stop-color="#A2621E"/>
<stop offset="0.67" stop-color="#EEA54C"/>
<stop offset="1" stop-color="#EEBE47"/>
</linearGradient>
<radialGradient id="paint2_radial_560_2405" cx="0" cy="0" r="1" gradientUnits="userSpaceOnUse" gradientTransform="translate(45.7566 26.5932) scale(101.62 102.284)">
<stop stop-color="#304053"/>
<stop offset="0.23" stop-color="#2C3C4F"/>
<stop offset="0.52" stop-color="#0D1D30"/>
<stop offset="1" stop-color="#060D29"/>
</radialGradient>
<linearGradient id="paint3_linear_560_2405" x1="102.341" y1="96.5078" x2="25.538" y2="33.0461" gradientUnits="userSpaceOnUse">
<stop stop-color="#EEBE47"/>
<stop offset="0.12" stop-color="#F8DB76"/>
<stop offset="0.21" stop-color="#FFEE96"/>
<stop offset="0.45" stop-color="#A2621E"/>
<stop offset="0.67" stop-color="#EEA54C"/>
<stop offset="1" stop-color="#EEBE47"/>
</linearGradient>
<linearGradient id="paint4_linear_560_2405" x1="35.8415" y1="22.3618" x2="93.6541" y2="107.88" gradientUnits="userSpaceOnUse">
<stop stop-color="#EEBE47"/>
<stop offset="0.12" stop-color="#F8DB76"/>
<stop offset="0.21" stop-color="#FFEE96"/>
<stop offset="0.45" stop-color="#A2621E"/>
<stop offset="0.67" stop-color="#EEA54C"/>
<stop offset="1" stop-color="#EEBE47"/>
</linearGradient>
<radialGradient id="paint5_radial_560_2405" cx="0" cy="0" r="1" gradientUnits="userSpaceOnUse" gradientTransform="translate(39.9133 51.2122) scale(64.9564 65.3804)">
<stop stop-color="#304053"/>
<stop offset="0.23" stop-color="#2C3C4F"/>
<stop offset="0.52" stop-color="#0D1D30"/>
<stop offset="1" stop-color="#060D29"/>
</radialGradient>
<linearGradient id="paint6_linear_560_2405" x1="44.8111" y1="34.9159" x2="89.2011" y2="102.618" gradientUnits="userSpaceOnUse">
<stop stop-color="#EEBE47"/>
<stop offset="0.12" stop-color="#F8DB76"/>
<stop offset="0.21" stop-color="#FFEE96"/>
<stop offset="0.45" stop-color="#A2621E"/>
<stop offset="0.67" stop-color="#EEA54C"/>
<stop offset="1" stop-color="#EEBE47"/>
</linearGradient>
<radialGradient id="paint7_radial_560_2405" cx="0" cy="0" r="1" gradientUnits="userSpaceOnUse" gradientTransform="translate(92.6207 59.8698) scale(108.738 109.448)">
<stop stop-color="#FFC94C"/>
<stop offset="0.14" stop-color="#A2621E"/>
<stop offset="0.16" stop-color="#955A1B"/>
<stop offset="0.25" stop-color="#6E4214"/>
<stop offset="0.34" stop-color="#4C2E0E"/>
<stop offset="0.44" stop-color="#301D08"/>
<stop offset="0.55" stop-color="#1A1004"/>
<stop offset="0.66" stop-color="#0B0702"/>
<stop offset="0.8" stop-color="#020100"/>
<stop offset="1"/>
</radialGradient>
<linearGradient id="paint8_linear_560_2405" x1="24.2664" y1="26.5589" x2="114.834" y2="93.2855" gradientUnits="userSpaceOnUse">
<stop stop-color="#EEBE47"/>
<stop offset="0.12" stop-color="#F8DB76"/>
<stop offset="0.21" stop-color="#FFEE96"/>
<stop offset="0.45" stop-color="#A2621E"/>
<stop offset="0.67" stop-color="#EEA54C"/>
<stop offset="1" stop-color="#EEBE47"/>
</linearGradient>
<linearGradient id="paint9_linear_560_2405" x1="27.2327" y1="22.5322" x2="117.794" y2="89.245" gradientUnits="userSpaceOnUse">
<stop stop-color="#EEBE47"/>
<stop offset="0.12" stop-color="#F8DB76"/>
<stop offset="0.21" stop-color="#FFEE96"/>
<stop offset="0.45" stop-color="#A2621E"/>
<stop offset="0.67" stop-color="#EEA54C"/>
<stop offset="1" stop-color="#EEBE47"/>
</linearGradient>
<linearGradient id="paint10_linear_560_2405" x1="30.1237" y1="18.6088" x2="120.685" y2="85.3353" gradientUnits="userSpaceOnUse">
<stop stop-color="#EEBE47"/>
<stop offset="0.12" stop-color="#F8DB76"/>
<stop offset="0.21" stop-color="#FFEE96"/>
<stop offset="0.45" stop-color="#A2621E"/>
<stop offset="0.67" stop-color="#EEA54C"/>
<stop offset="1" stop-color="#EEBE47"/>
</linearGradient>
<linearGradient id="paint11_linear_560_2405" x1="32.9256" y1="14.8096" x2="123.48" y2="81.5293" gradientUnits="userSpaceOnUse">
<stop stop-color="#EEBE47"/>
<stop offset="0.12" stop-color="#F8DB76"/>
<stop offset="0.21" stop-color="#FFEE96"/>
<stop offset="0.45" stop-color="#A2621E"/>
<stop offset="0.67" stop-color="#EEA54C"/>
<stop offset="1" stop-color="#EEBE47"/>
</linearGradient>
<linearGradient id="paint12_linear_560_2405" x1="35.2134" y1="11.6999" x2="125.781" y2="78.4196" gradientUnits="userSpaceOnUse">
<stop stop-color="#EEBE47"/>
<stop offset="0.12" stop-color="#F8DB76"/>
<stop offset="0.21" stop-color="#FFEE96"/>
<stop offset="0.45" stop-color="#A2621E"/>
<stop offset="0.67" stop-color="#EEA54C"/>
<stop offset="1" stop-color="#EEBE47"/>
</linearGradient>
<linearGradient id="paint13_linear_560_2405" x1="37.2962" y1="8.87304" x2="127.857" y2="75.5858" gradientUnits="userSpaceOnUse">
<stop stop-color="#EEBE47"/>
<stop offset="0.12" stop-color="#F8DB76"/>
<stop offset="0.21" stop-color="#FFEE96"/>
<stop offset="0.45" stop-color="#A2621E"/>
<stop offset="0.67" stop-color="#EEA54C"/>
<stop offset="1" stop-color="#EEBE47"/>
</linearGradient>
<linearGradient id="paint14_linear_560_2405" x1="39.735" y1="5.56323" x2="130.296" y2="72.276" gradientUnits="userSpaceOnUse">
<stop stop-color="#EEBE47"/>
<stop offset="0.12" stop-color="#F8DB76"/>
<stop offset="0.21" stop-color="#FFEE96"/>
<stop offset="0.45" stop-color="#A2621E"/>
<stop offset="0.67" stop-color="#EEA54C"/>
<stop offset="1" stop-color="#EEBE47"/>
</linearGradient>
<linearGradient id="paint15_linear_560_2405" x1="42.578" y1="1.70177" x2="133.139" y2="68.4214" gradientUnits="userSpaceOnUse">
<stop stop-color="#EEBE47"/>
<stop offset="0.12" stop-color="#F8DB76"/>
<stop offset="0.21" stop-color="#FFEE96"/>
<stop offset="0.45" stop-color="#A2621E"/>
<stop offset="0.67" stop-color="#EEA54C"/>
<stop offset="1" stop-color="#EEBE47"/>
</linearGradient>
<linearGradient id="paint16_linear_560_2405" x1="44.1327" y1="-0.401118" x2="134.68" y2="66.3117" gradientUnits="userSpaceOnUse">
<stop stop-color="#EEBE47"/>
<stop offset="0.12" stop-color="#F8DB76"/>
<stop offset="0.21" stop-color="#FFEE96"/>
<stop offset="0.45" stop-color="#A2621E"/>
<stop offset="0.67" stop-color="#EEA54C"/>
<stop offset="1" stop-color="#EEBE47"/>
</linearGradient>
<linearGradient id="paint17_linear_560_2405" x1="44.8522" y1="-1.38011" x2="135.413" y2="65.3328" gradientUnits="userSpaceOnUse">
<stop stop-color="#EEBE47"/>
<stop offset="0.12" stop-color="#F8DB76"/>
<stop offset="0.21" stop-color="#FFEE96"/>
<stop offset="0.45" stop-color="#A2621E"/>
<stop offset="0.67" stop-color="#EEA54C"/>
<stop offset="1" stop-color="#EEBE47"/>
</linearGradient>
<linearGradient id="paint18_linear_560_2405" x1="45.3934" y1="-2.11115" x2="135.948" y2="64.6017" gradientUnits="userSpaceOnUse">
<stop stop-color="#EEBE47"/>
<stop offset="0.12" stop-color="#F8DB76"/>
<stop offset="0.21" stop-color="#FFEE96"/>
<stop offset="0.45" stop-color="#A2621E"/>
<stop offset="0.67" stop-color="#EEA54C"/>
<stop offset="1" stop-color="#EEBE47"/>
</linearGradient>
<linearGradient id="paint19_linear_560_2405" x1="45.6397" y1="-2.40062" x2="136.153" y2="64.278" gradientUnits="userSpaceOnUse">
<stop stop-color="#EEBE47"/>
<stop offset="0.12" stop-color="#F8DB76"/>
<stop offset="0.21" stop-color="#FFEE96"/>
<stop offset="0.45" stop-color="#A2621E"/>
<stop offset="0.67" stop-color="#EEA54C"/>
<stop offset="1" stop-color="#EEBE47"/>
</linearGradient>
<linearGradient id="paint20_linear_560_2405" x1="45.6606" y1="-2.46302" x2="136.201" y2="64.2361" gradientUnits="userSpaceOnUse">
<stop stop-color="#EEBE47"/>
<stop offset="0.12" stop-color="#F8DB76"/>
<stop offset="0.21" stop-color="#FFEE96"/>
<stop offset="0.45" stop-color="#A2621E"/>
<stop offset="0.67" stop-color="#EEA54C"/>
<stop offset="1" stop-color="#EEBE47"/>
</linearGradient>
<linearGradient id="paint21_linear_560_2405" x1="45.5374" y1="-2.27667" x2="136.064" y2="64.4224" gradientUnits="userSpaceOnUse">
<stop stop-color="#EEBE47"/>
<stop offset="0.12" stop-color="#F8DB76"/>
<stop offset="0.21" stop-color="#FFEE96"/>
<stop offset="0.45" stop-color="#A2621E"/>
<stop offset="0.67" stop-color="#EEA54C"/>
<stop offset="1" stop-color="#EEBE47"/>
</linearGradient>
<linearGradient id="paint22_linear_560_2405" x1="-4.85526" y1="66.0824" x2="85.7127" y2="132.809" gradientUnits="userSpaceOnUse">
<stop stop-color="#EEBE47"/>
<stop offset="0.12" stop-color="#F8DB76"/>
<stop offset="0.21" stop-color="#FFEE96"/>
<stop offset="0.45" stop-color="#A2621E"/>
<stop offset="0.67" stop-color="#EEA54C"/>
<stop offset="1" stop-color="#EEBE47"/>
</linearGradient>
<linearGradient id="paint23_linear_560_2405" x1="-5.07426" y1="66.3719" x2="85.5005" y2="133.098" gradientUnits="userSpaceOnUse">
<stop stop-color="#EEBE47"/>
<stop offset="0.12" stop-color="#F8DB76"/>
<stop offset="0.21" stop-color="#FFEE96"/>
<stop offset="0.45" stop-color="#A2621E"/>
<stop offset="0.67" stop-color="#EEA54C"/>
<stop offset="1" stop-color="#EEBE47"/>
</linearGradient>
<linearGradient id="paint24_linear_560_2405" x1="-4.85506" y1="66.0962" x2="85.6991" y2="132.809" gradientUnits="userSpaceOnUse">
<stop stop-color="#EEBE47"/>
<stop offset="0.12" stop-color="#F8DB76"/>
<stop offset="0.21" stop-color="#FFEE96"/>
<stop offset="0.45" stop-color="#A2621E"/>
<stop offset="0.67" stop-color="#EEA54C"/>
<stop offset="1" stop-color="#EEBE47"/>
</linearGradient>
<linearGradient id="paint25_linear_560_2405" x1="-4.32803" y1="65.365" x2="86.233" y2="132.085" gradientUnits="userSpaceOnUse">
<stop stop-color="#EEBE47"/>
<stop offset="0.12" stop-color="#F8DB76"/>
<stop offset="0.21" stop-color="#FFEE96"/>
<stop offset="0.45" stop-color="#A2621E"/>
<stop offset="0.67" stop-color="#EEA54C"/>
<stop offset="1" stop-color="#EEBE47"/>
</linearGradient>
<linearGradient id="paint26_linear_560_2405" x1="-3.59475" y1="64.3448" x2="86.9937" y2="131.078" gradientUnits="userSpaceOnUse">
<stop stop-color="#EEBE47"/>
<stop offset="0.12" stop-color="#F8DB76"/>
<stop offset="0.21" stop-color="#FFEE96"/>
<stop offset="0.45" stop-color="#A2621E"/>
<stop offset="0.67" stop-color="#EEA54C"/>
<stop offset="1" stop-color="#EEBE47"/>
</linearGradient>
<linearGradient id="paint27_linear_560_2405" x1="-2.56719" y1="63.0003" x2="87.9801" y2="129.713" gradientUnits="userSpaceOnUse">
<stop stop-color="#EEBE47"/>
<stop offset="0.12" stop-color="#F8DB76"/>
<stop offset="0.21" stop-color="#FFEE96"/>
<stop offset="0.45" stop-color="#A2621E"/>
<stop offset="0.67" stop-color="#EEA54C"/>
<stop offset="1" stop-color="#EEBE47"/>
</linearGradient>
<linearGradient id="paint28_linear_560_2405" x1="-1.01889" y1="60.8763" x2="89.549" y2="127.596" gradientUnits="userSpaceOnUse">
<stop stop-color="#EEBE47"/>
<stop offset="0.12" stop-color="#F8DB76"/>
<stop offset="0.21" stop-color="#FFEE96"/>
<stop offset="0.45" stop-color="#A2621E"/>
<stop offset="0.67" stop-color="#EEA54C"/>
<stop offset="1" stop-color="#EEBE47"/>
</linearGradient>
<linearGradient id="paint29_linear_560_2405" x1="1.89241" y1="56.9257" x2="92.4535" y2="123.645" gradientUnits="userSpaceOnUse">
<stop stop-color="#EEBE47"/>
<stop offset="0.12" stop-color="#F8DB76"/>
<stop offset="0.21" stop-color="#FFEE96"/>
<stop offset="0.45" stop-color="#A2621E"/>
<stop offset="0.67" stop-color="#EEA54C"/>
<stop offset="1" stop-color="#EEBE47"/>
</linearGradient>
<linearGradient id="paint30_linear_560_2405" x1="4.44087" y1="53.4916" x2="94.9882" y2="120.204" gradientUnits="userSpaceOnUse">
<stop stop-color="#EEBE47"/>
<stop offset="0.12" stop-color="#F8DB76"/>
<stop offset="0.21" stop-color="#FFEE96"/>
<stop offset="0.45" stop-color="#A2621E"/>
<stop offset="0.67" stop-color="#EEA54C"/>
<stop offset="1" stop-color="#EEBE47"/>
</linearGradient>
<linearGradient id="paint31_linear_560_2405" x1="6.33142" y1="50.9127" x2="96.8857" y2="117.626" gradientUnits="userSpaceOnUse">
<stop stop-color="#EEBE47"/>
<stop offset="0.12" stop-color="#F8DB76"/>
<stop offset="0.21" stop-color="#FFEE96"/>
<stop offset="0.45" stop-color="#A2621E"/>
<stop offset="0.67" stop-color="#EEA54C"/>
<stop offset="1" stop-color="#EEBE47"/>
</linearGradient>
<linearGradient id="paint32_linear_560_2405" x1="8.51685" y1="47.9341" x2="99.0779" y2="114.654" gradientUnits="userSpaceOnUse">
<stop stop-color="#EEBE47"/>
<stop offset="0.12" stop-color="#F8DB76"/>
<stop offset="0.21" stop-color="#FFEE96"/>
<stop offset="0.45" stop-color="#A2621E"/>
<stop offset="0.67" stop-color="#EEA54C"/>
<stop offset="1" stop-color="#EEBE47"/>
</linearGradient>
<linearGradient id="paint33_linear_560_2405" x1="10.5585" y1="45.1487" x2="101.133" y2="111.868" gradientUnits="userSpaceOnUse">
<stop stop-color="#EEBE47"/>
<stop offset="0.12" stop-color="#F8DB76"/>
<stop offset="0.21" stop-color="#FFEE96"/>
<stop offset="0.45" stop-color="#A2621E"/>
<stop offset="0.67" stop-color="#EEA54C"/>
<stop offset="1" stop-color="#EEBE47"/>
</linearGradient>
<linearGradient id="paint34_linear_560_2405" x1="12.6749" y1="42.3077" x2="103.229" y2="109.021" gradientUnits="userSpaceOnUse">
<stop stop-color="#EEBE47"/>
<stop offset="0.12" stop-color="#F8DB76"/>
<stop offset="0.21" stop-color="#FFEE96"/>
<stop offset="0.45" stop-color="#A2621E"/>
<stop offset="0.67" stop-color="#EEA54C"/>
<stop offset="1" stop-color="#EEBE47"/>
</linearGradient>
<linearGradient id="paint35_linear_560_2405" x1="15.0454" y1="39.0736" x2="105.606" y2="105.793" gradientUnits="userSpaceOnUse">
<stop stop-color="#EEBE47"/>
<stop offset="0.12" stop-color="#F8DB76"/>
<stop offset="0.21" stop-color="#FFEE96"/>
<stop offset="0.45" stop-color="#A2621E"/>
<stop offset="0.67" stop-color="#EEA54C"/>
<stop offset="1" stop-color="#EEBE47"/>
</linearGradient>
<linearGradient id="paint36_linear_560_2405" x1="5.48923" y1="52.0505" x2="96.0434" y2="118.763" gradientUnits="userSpaceOnUse">
<stop stop-color="#EEBE47"/>
<stop offset="0.12" stop-color="#F8DB76"/>
<stop offset="0.21" stop-color="#FFEE96"/>
<stop offset="0.45" stop-color="#A2621E"/>
<stop offset="0.67" stop-color="#EEA54C"/>
<stop offset="1" stop-color="#EEBE47"/>
</linearGradient>
<linearGradient id="paint37_linear_560_2405" x1="35.6518" y1="11.0861" x2="126.227" y2="77.8126" gradientUnits="userSpaceOnUse">
<stop stop-color="#EEBE47"/>
<stop offset="0.12" stop-color="#F8DB76"/>
<stop offset="0.21" stop-color="#FFEE96"/>
<stop offset="0.45" stop-color="#A2621E"/>
<stop offset="0.67" stop-color="#EEA54C"/>
<stop offset="1" stop-color="#EEBE47"/>
</linearGradient>
<linearGradient id="paint38_linear_560_2405" x1="8.81878" y1="47.5342" x2="99.373" y2="114.247" gradientUnits="userSpaceOnUse">
<stop stop-color="#EEBE47"/>
<stop offset="0.12" stop-color="#F8DB76"/>
<stop offset="0.21" stop-color="#FFEE96"/>
<stop offset="0.45" stop-color="#A2621E"/>
<stop offset="0.67" stop-color="#EEA54C"/>
<stop offset="1" stop-color="#EEBE47"/>
</linearGradient>
<linearGradient id="paint39_linear_560_2405" x1="12.4358" y1="42.6178" x2="102.997" y2="109.331" gradientUnits="userSpaceOnUse">
<stop stop-color="#EEBE47"/>
<stop offset="0.12" stop-color="#F8DB76"/>
<stop offset="0.21" stop-color="#FFEE96"/>
<stop offset="0.45" stop-color="#A2621E"/>
<stop offset="0.67" stop-color="#EEA54C"/>
<stop offset="1" stop-color="#EEBE47"/>
</linearGradient>
<linearGradient id="paint40_linear_560_2405" x1="16.1144" y1="37.6256" x2="106.675" y2="104.345" gradientUnits="userSpaceOnUse">
<stop stop-color="#EEBE47"/>
<stop offset="0.12" stop-color="#F8DB76"/>
<stop offset="0.21" stop-color="#FFEE96"/>
<stop offset="0.45" stop-color="#A2621E"/>
<stop offset="0.67" stop-color="#EEA54C"/>
<stop offset="1" stop-color="#EEBE47"/>
</linearGradient>
<linearGradient id="paint41_linear_560_2405" x1="18.7861" y1="33.9919" x2="109.354" y2="100.712" gradientUnits="userSpaceOnUse">
<stop stop-color="#EEBE47"/>
<stop offset="0.12" stop-color="#F8DB76"/>
<stop offset="0.21" stop-color="#FFEE96"/>
<stop offset="0.45" stop-color="#A2621E"/>
<stop offset="0.67" stop-color="#EEA54C"/>
<stop offset="1" stop-color="#EEBE47"/>
</linearGradient>
<linearGradient id="paint42_linear_560_2405" x1="21.4647" y1="30.3652" x2="112.026" y2="97.0848" gradientUnits="userSpaceOnUse">
<stop stop-color="#EEBE47"/>
<stop offset="0.12" stop-color="#F8DB76"/>
<stop offset="0.21" stop-color="#FFEE96"/>
<stop offset="0.45" stop-color="#A2621E"/>
<stop offset="0.67" stop-color="#EEA54C"/>
<stop offset="1" stop-color="#EEBE47"/>
</linearGradient>
<linearGradient id="paint43_linear_560_2405" x1="24.931" y1="25.6695" x2="115.485" y2="92.3824" gradientUnits="userSpaceOnUse">
<stop stop-color="#EEBE47"/>
<stop offset="0.12" stop-color="#F8DB76"/>
<stop offset="0.21" stop-color="#FFEE96"/>
<stop offset="0.45" stop-color="#A2621E"/>
<stop offset="0.67" stop-color="#EEA54C"/>
<stop offset="1" stop-color="#EEBE47"/>
</linearGradient>
<linearGradient id="paint44_linear_560_2405" x1="22.0266" y1="29.5997" x2="112.588" y2="96.3194" gradientUnits="userSpaceOnUse">
<stop stop-color="#EEBE47"/>
<stop offset="0.12" stop-color="#F8DB76"/>
<stop offset="0.21" stop-color="#FFEE96"/>
<stop offset="0.45" stop-color="#A2621E"/>
<stop offset="0.67" stop-color="#EEA54C"/>
<stop offset="1" stop-color="#EEBE47"/>
</linearGradient>
<linearGradient id="paint45_linear_560_2405" x1="24.3966" y1="26.3799" x2="114.958" y2="93.0995" gradientUnits="userSpaceOnUse">
<stop stop-color="#EEBE47"/>
<stop offset="0.12" stop-color="#F8DB76"/>
<stop offset="0.21" stop-color="#FFEE96"/>
<stop offset="0.45" stop-color="#A2621E"/>
<stop offset="0.67" stop-color="#EEA54C"/>
<stop offset="1" stop-color="#EEBE47"/>
</linearGradient>
<linearGradient id="paint46_linear_560_2405" x1="27.5756" y1="22.0563" x2="118.144" y2="88.7828" gradientUnits="userSpaceOnUse">
<stop stop-color="#EEBE47"/>
<stop offset="0.12" stop-color="#F8DB76"/>
<stop offset="0.21" stop-color="#FFEE96"/>
<stop offset="0.45" stop-color="#A2621E"/>
<stop offset="0.67" stop-color="#EEA54C"/>
<stop offset="1" stop-color="#EEBE47"/>
</linearGradient>
<linearGradient id="paint47_linear_560_2405" x1="30.8022" y1="17.6849" x2="121.37" y2="84.4045" gradientUnits="userSpaceOnUse">
<stop stop-color="#EEBE47"/>
<stop offset="0.12" stop-color="#F8DB76"/>
<stop offset="0.21" stop-color="#FFEE96"/>
<stop offset="0.45" stop-color="#A2621E"/>
<stop offset="0.67" stop-color="#EEA54C"/>
<stop offset="1" stop-color="#EEBE47"/>
</linearGradient>
<radialGradient id="paint48_radial_560_2405" cx="0" cy="0" r="1" gradientUnits="userSpaceOnUse" gradientTransform="translate(21.8277 30.6474) scale(72.1494 72.6204)">
<stop offset="0.06" stop-color="#2C3C4F"/>
<stop offset="0.52" stop-color="#0D1D30"/>
<stop offset="1" stop-color="#060D29"/>
</radialGradient>
<radialGradient id="paint49_radial_560_2405" cx="0" cy="0" r="1" gradientUnits="userSpaceOnUse" gradientTransform="translate(21.8345 30.6475) scale(72.1357 72.6066)">
<stop offset="0.06" stop-color="#2C3C4F"/>
<stop offset="0.52" stop-color="#0D1D30"/>
<stop offset="1" stop-color="#060D29"/>
</radialGradient>
<radialGradient id="paint50_radial_560_2405" cx="0" cy="0" r="1" gradientUnits="userSpaceOnUse" gradientTransform="translate(21.8278 30.6475) scale(72.1426 72.6135)">
<stop offset="0.06" stop-color="#2C3C4F"/>
<stop offset="0.52" stop-color="#0D1D30"/>
<stop offset="1" stop-color="#060D29"/>
</radialGradient>
<radialGradient id="paint51_radial_560_2405" cx="0" cy="0" r="1" gradientUnits="userSpaceOnUse" gradientTransform="translate(21.8279 30.6475) scale(72.1425 72.6135)">
<stop offset="0.06" stop-color="#2C3C4F"/>
<stop offset="0.52" stop-color="#0D1D30"/>
<stop offset="1" stop-color="#060D29"/>
</radialGradient>
<radialGradient id="paint52_radial_560_2405" cx="0" cy="0" r="1" gradientUnits="userSpaceOnUse" gradientTransform="translate(21.8276 30.6475) scale(72.1494 72.6204)">
<stop offset="0.06" stop-color="#2C3C4F"/>
<stop offset="0.52" stop-color="#0D1D30"/>
<stop offset="1" stop-color="#060D29"/>
</radialGradient>
<radialGradient id="paint53_radial_560_2405" cx="0" cy="0" r="1" gradientUnits="userSpaceOnUse" gradientTransform="translate(21.8346 30.6477) scale(72.1426 72.6135)">
<stop offset="0.06" stop-color="#2C3C4F"/>
<stop offset="0.52" stop-color="#0D1D30"/>
<stop offset="1" stop-color="#060D29"/>
</radialGradient>
<radialGradient id="paint54_radial_560_2405" cx="0" cy="0" r="1" gradientUnits="userSpaceOnUse" gradientTransform="translate(21.8278 30.6476) scale(72.1494 72.6204)">
<stop offset="0.06" stop-color="#2C3C4F"/>
<stop offset="0.52" stop-color="#0D1D30"/>
<stop offset="1" stop-color="#060D29"/>
</radialGradient>
<radialGradient id="paint55_radial_560_2405" cx="0" cy="0" r="1" gradientUnits="userSpaceOnUse" gradientTransform="translate(21.8279 30.6475) scale(72.1494 72.6204)">
<stop offset="0.06" stop-color="#2C3C4F"/>
<stop offset="0.52" stop-color="#0D1D30"/>
<stop offset="1" stop-color="#060D29"/>
</radialGradient>
<radialGradient id="paint56_radial_560_2405" cx="0" cy="0" r="1" gradientUnits="userSpaceOnUse" gradientTransform="translate(21.8278 30.6476) scale(72.1426 72.6135)">
<stop offset="0.06" stop-color="#2C3C4F"/>
<stop offset="0.52" stop-color="#0D1D30"/>
<stop offset="1" stop-color="#060D29"/>
</radialGradient>
<radialGradient id="paint57_radial_560_2405" cx="0" cy="0" r="1" gradientUnits="userSpaceOnUse" gradientTransform="translate(21.8278 30.6478) scale(72.1494 72.6204)">
<stop offset="0.06" stop-color="#2C3C4F"/>
<stop offset="0.52" stop-color="#0D1D30"/>
<stop offset="1" stop-color="#060D29"/>
</radialGradient>
<radialGradient id="paint58_radial_560_2405" cx="0" cy="0" r="1" gradientUnits="userSpaceOnUse" gradientTransform="translate(21.8346 30.6476) scale(72.1426 72.6135)">
<stop offset="0.06" stop-color="#2C3C4F"/>
<stop offset="0.52" stop-color="#0D1D30"/>
<stop offset="1" stop-color="#060D29"/>
</radialGradient>
<radialGradient id="paint59_radial_560_2405" cx="0" cy="0" r="1" gradientUnits="userSpaceOnUse" gradientTransform="translate(21.8416 30.6478) scale(72.1289 72.5997)">
<stop offset="0.06" stop-color="#2C3C4F"/>
<stop offset="0.52" stop-color="#0D1D30"/>
<stop offset="1" stop-color="#060D29"/>
</radialGradient>
<radialGradient id="paint60_radial_560_2405" cx="0" cy="0" r="1" gradientUnits="userSpaceOnUse" gradientTransform="translate(21.8346 30.6474) scale(72.1357 72.6066)">
<stop offset="0.06" stop-color="#2C3C4F"/>
<stop offset="0.52" stop-color="#0D1D30"/>
<stop offset="1" stop-color="#060D29"/>
</radialGradient>
<radialGradient id="paint61_radial_560_2405" cx="0" cy="0" r="1" gradientUnits="userSpaceOnUse" gradientTransform="translate(21.8346 30.6476) scale(72.1426 72.6135)">
<stop offset="0.06" stop-color="#2C3C4F"/>
<stop offset="0.52" stop-color="#0D1D30"/>
<stop offset="1" stop-color="#060D29"/>
</radialGradient>
<radialGradient id="paint62_radial_560_2405" cx="0" cy="0" r="1" gradientUnits="userSpaceOnUse" gradientTransform="translate(21.8279 29.8821) scale(72.1426 72.6135)">
<stop offset="0.06" stop-color="#2C3C4F"/>
<stop offset="0.52" stop-color="#0D1D30"/>
<stop offset="1" stop-color="#060D29"/>
</radialGradient>
<radialGradient id="paint63_radial_560_2405" cx="0" cy="0" r="1" gradientUnits="userSpaceOnUse" gradientTransform="translate(21.835 29.8751) scale(72.1426 72.6135)">
<stop offset="0.06" stop-color="#2C3C4F"/>
<stop offset="0.52" stop-color="#0D1D30"/>
<stop offset="1" stop-color="#060D29"/>
</radialGradient>
<radialGradient id="paint64_radial_560_2405" cx="0" cy="0" r="1" gradientUnits="userSpaceOnUse" gradientTransform="translate(21.835 29.8822) scale(72.1425 72.6134)">
<stop offset="0.06" stop-color="#2C3C4F"/>
<stop offset="0.52" stop-color="#0D1D30"/>
<stop offset="1" stop-color="#060D29"/>
</radialGradient>
<radialGradient id="paint65_radial_560_2405" cx="0" cy="0" r="1" gradientUnits="userSpaceOnUse" gradientTransform="translate(21.8277 29.8823) scale(72.1357 72.6066)">
<stop offset="0.06" stop-color="#2C3C4F"/>
<stop offset="0.52" stop-color="#0D1D30"/>
<stop offset="1" stop-color="#060D29"/>
</radialGradient>
<radialGradient id="paint66_radial_560_2405" cx="0" cy="0" r="1" gradientUnits="userSpaceOnUse" gradientTransform="translate(21.8279 29.8822) scale(72.1426 72.6135)">
<stop offset="0.06" stop-color="#2C3C4F"/>
<stop offset="0.52" stop-color="#0D1D30"/>
<stop offset="1" stop-color="#060D29"/>
</radialGradient>
<radialGradient id="paint67_radial_560_2405" cx="0" cy="0" r="1" gradientUnits="userSpaceOnUse" gradientTransform="translate(21.8279 29.8822) scale(72.1426 72.6135)">
<stop offset="0.06" stop-color="#2C3C4F"/>
<stop offset="0.52" stop-color="#0D1D30"/>
<stop offset="1" stop-color="#060D29"/>
</radialGradient>
<radialGradient id="paint68_radial_560_2405" cx="0" cy="0" r="1" gradientUnits="userSpaceOnUse" gradientTransform="translate(21.828 29.8819) scale(72.1426 72.6135)">
<stop offset="0.06" stop-color="#2C3C4F"/>
<stop offset="0.52" stop-color="#0D1D30"/>
<stop offset="1" stop-color="#060D29"/>
</radialGradient>
<radialGradient id="paint69_radial_560_2405" cx="0" cy="0" r="1" gradientUnits="userSpaceOnUse" gradientTransform="translate(21.8279 29.875) scale(72.1426 72.6135)">
<stop offset="0.06" stop-color="#2C3C4F"/>
<stop offset="0.52" stop-color="#0D1D30"/>
<stop offset="1" stop-color="#060D29"/>
</radialGradient>
<radialGradient id="paint70_radial_560_2405" cx="0" cy="0" r="1" gradientUnits="userSpaceOnUse" gradientTransform="translate(21.8279 29.882) scale(72.1426 72.6135)">
<stop offset="0.06" stop-color="#2C3C4F"/>
<stop offset="0.52" stop-color="#0D1D30"/>
<stop offset="1" stop-color="#060D29"/>
</radialGradient>
<radialGradient id="paint71_radial_560_2405" cx="0" cy="0" r="1" gradientUnits="userSpaceOnUse" gradientTransform="translate(21.8279 29.8888) scale(72.1357 72.6066)">
<stop offset="0.06" stop-color="#2C3C4F"/>
<stop offset="0.52" stop-color="#0D1D30"/>
<stop offset="1" stop-color="#060D29"/>
</radialGradient>
<radialGradient id="paint72_radial_560_2405" cx="0" cy="0" r="1" gradientUnits="userSpaceOnUse" gradientTransform="translate(21.8279 29.8752) scale(72.1426 72.6135)">
<stop offset="0.06" stop-color="#2C3C4F"/>
<stop offset="0.52" stop-color="#0D1D30"/>
<stop offset="1" stop-color="#060D29"/>
</radialGradient>
<radialGradient id="paint73_radial_560_2405" cx="0" cy="0" r="1" gradientUnits="userSpaceOnUse" gradientTransform="translate(21.8349 29.8754) scale(72.1425 72.6135)">
<stop offset="0.06" stop-color="#2C3C4F"/>
<stop offset="0.52" stop-color="#0D1D30"/>
<stop offset="1" stop-color="#060D29"/>
</radialGradient>
<radialGradient id="paint74_radial_560_2405" cx="0" cy="0" r="1" gradientUnits="userSpaceOnUse" gradientTransform="translate(21.8277 29.8752) scale(72.1426 72.6135)">
<stop offset="0.06" stop-color="#2C3C4F"/>
<stop offset="0.52" stop-color="#0D1D30"/>
<stop offset="1" stop-color="#060D29"/>
</radialGradient>
<radialGradient id="paint75_radial_560_2405" cx="0" cy="0" r="1" gradientUnits="userSpaceOnUse" gradientTransform="translate(21.8348 29.875) scale(72.1425 72.6135)">
<stop offset="0.06" stop-color="#2C3C4F"/>
<stop offset="0.52" stop-color="#0D1D30"/>
<stop offset="1" stop-color="#060D29"/>
</radialGradient>
<radialGradient id="paint76_radial_560_2405" cx="0" cy="0" r="1" gradientUnits="userSpaceOnUse" gradientTransform="translate(34.3093 36.2877) scale(221.881 223.329)">
<stop offset="0.06" stop-color="#2C3C4F"/>
<stop offset="0.52" stop-color="#0D1D30"/>
<stop offset="1" stop-color="#060D29"/>
</radialGradient>
<radialGradient id="paint77_radial_560_2405" cx="0" cy="0" r="1" gradientUnits="userSpaceOnUse" gradientTransform="translate(34.3024 36.2877) scale(221.888 223.336)">
<stop offset="0.06" stop-color="#2C3C4F"/>
<stop offset="0.52" stop-color="#0D1D30"/>
<stop offset="1" stop-color="#060D29"/>
</radialGradient>
<radialGradient id="paint78_radial_560_2405" cx="0" cy="0" r="1" gradientUnits="userSpaceOnUse" gradientTransform="translate(33.7752 46.8926) scale(92.009 92.6096)">
<stop offset="0.06" stop-color="#2C3C4F"/>
<stop offset="0.52" stop-color="#0D1D30"/>
<stop offset="1" stop-color="#060D29"/>
</radialGradient>
<radialGradient id="paint79_radial_560_2405" cx="0" cy="0" r="1" gradientUnits="userSpaceOnUse" gradientTransform="translate(33.7751 46.8925) scale(92.0159 92.6165)">
<stop offset="0.06" stop-color="#2C3C4F"/>
<stop offset="0.52" stop-color="#0D1D30"/>
<stop offset="1" stop-color="#060D29"/>
</radialGradient>
<radialGradient id="paint80_radial_560_2405" cx="0" cy="0" r="1" gradientUnits="userSpaceOnUse" gradientTransform="translate(33.7819 46.8924) scale(92.009 92.6096)">
<stop offset="0.06" stop-color="#2C3C4F"/>
<stop offset="0.52" stop-color="#0D1D30"/>
<stop offset="1" stop-color="#060D29"/>
</radialGradient>
<radialGradient id="paint81_radial_560_2405" cx="0" cy="0" r="1" gradientUnits="userSpaceOnUse" gradientTransform="translate(33.7956 46.8925) scale(91.9884 92.5889)">
<stop offset="0.06" stop-color="#2C3C4F"/>
<stop offset="0.52" stop-color="#0D1D30"/>
<stop offset="1" stop-color="#060D29"/>
</radialGradient>
<radialGradient id="paint82_radial_560_2405" cx="0" cy="0" r="1" gradientUnits="userSpaceOnUse" gradientTransform="translate(33.782 46.8926) scale(92.009 92.6096)">
<stop offset="0.06" stop-color="#2C3C4F"/>
<stop offset="0.52" stop-color="#0D1D30"/>
<stop offset="1" stop-color="#060D29"/>
</radialGradient>
<radialGradient id="paint83_radial_560_2405" cx="0" cy="0" r="1" gradientUnits="userSpaceOnUse" gradientTransform="translate(33.7819 46.8926) scale(92.0091 92.6096)">
<stop offset="0.06" stop-color="#2C3C4F"/>
<stop offset="0.52" stop-color="#0D1D30"/>
<stop offset="1" stop-color="#060D29"/>
</radialGradient>
<radialGradient id="paint84_radial_560_2405" cx="0" cy="0" r="1" gradientUnits="userSpaceOnUse" gradientTransform="translate(33.7752 46.8926) scale(92.0159 92.6165)">
<stop offset="0.06" stop-color="#2C3C4F"/>
<stop offset="0.52" stop-color="#0D1D30"/>
<stop offset="1" stop-color="#060D29"/>
</radialGradient>
<radialGradient id="paint85_radial_560_2405" cx="0" cy="0" r="1" gradientUnits="userSpaceOnUse" gradientTransform="translate(33.775 46.8927) scale(92.0159 92.6165)">
<stop offset="0.06" stop-color="#2C3C4F"/>
<stop offset="0.52" stop-color="#0D1D30"/>
<stop offset="1" stop-color="#060D29"/>
</radialGradient>
<radialGradient id="paint86_radial_560_2405" cx="0" cy="0" r="1" gradientUnits="userSpaceOnUse" gradientTransform="translate(33.7822 46.8925) scale(92.0021 92.6027)">
<stop offset="0.06" stop-color="#2C3C4F"/>
<stop offset="0.52" stop-color="#0D1D30"/>
<stop offset="1" stop-color="#060D29"/>
</radialGradient>
<radialGradient id="paint87_radial_560_2405" cx="0" cy="0" r="1" gradientUnits="userSpaceOnUse" gradientTransform="translate(33.7822 46.8926) scale(92.0022 92.6027)">
<stop offset="0.06" stop-color="#2C3C4F"/>
<stop offset="0.52" stop-color="#0D1D30"/>
<stop offset="1" stop-color="#060D29"/>
</radialGradient>
<radialGradient id="paint88_radial_560_2405" cx="0" cy="0" r="1" gradientUnits="userSpaceOnUse" gradientTransform="translate(64.3611 99.0806) scale(30.3841 11.0806)">
<stop stop-color="#FFC94C"/>
<stop offset="0.14" stop-color="#A2621E"/>
<stop offset="0.16" stop-color="#955A1B"/>
<stop offset="0.25" stop-color="#6E4214"/>
<stop offset="0.34" stop-color="#4C2E0E"/>
<stop offset="0.44" stop-color="#301D08"/>
<stop offset="0.55" stop-color="#1A1004"/>
<stop offset="0.66" stop-color="#0B0702"/>
<stop offset="0.8" stop-color="#020100"/>
<stop offset="1"/>
</radialGradient>
<radialGradient id="paint89_radial_560_2405" cx="0" cy="0" r="1" gradientUnits="userSpaceOnUse" gradientTransform="translate(113.5 59.5311) rotate(90) scale(14.4782 5.5)">
<stop stop-color="#FFC94C"/>
<stop offset="0.14" stop-color="#A2621E"/>
<stop offset="0.16" stop-color="#955A1B"/>
<stop offset="0.25" stop-color="#6E4214"/>
<stop offset="0.34" stop-color="#4C2E0E"/>
<stop offset="0.44" stop-color="#301D08"/>
<stop offset="0.55" stop-color="#1A1004"/>
<stop offset="0.66" stop-color="#0B0702"/>
<stop offset="0.8" stop-color="#020100"/>
<stop offset="1"/>
</radialGradient>
<radialGradient id="paint90_radial_560_2405" cx="0" cy="0" r="1" gradientTransform="matrix(37.437 -21.56 10.6453 17.7963 48.002 42.8717)" gradientUnits="userSpaceOnUse">
<stop stop-color="#FFC94C"/>
<stop offset="0.14" stop-color="#A2621E"/>
<stop offset="0.16" stop-color="#955A1B"/>
<stop offset="0.25" stop-color="#6E4214"/>
<stop offset="0.34" stop-color="#4C2E0E"/>
<stop offset="0.44" stop-color="#301D08"/>
<stop offset="0.55" stop-color="#1A1004"/>
<stop offset="0.66" stop-color="#0B0702"/>
<stop offset="0.8" stop-color="#020100"/>
<stop offset="1"/>
</radialGradient>
</defs>
</svg>
