<svg width="48" height="48" viewBox="0 0 48 48" fill="none" xmlns="http://www.w3.org/2000/svg">
<path d="M17.332 26.7334C17.9726 26.864 18.5607 27.1801 19.023 27.6424C19.4852 28.1047 19.8014 28.6928 19.932 29.3334M17.332 24.0334C18.6859 24.1839 19.9482 24.7907 20.9114 25.7539C21.8747 26.7172 22.4815 27.9795 22.632 29.3334M17.332 21.3334V20C17.332 19.6464 17.4725 19.3073 17.7226 19.0572C17.9726 18.8072 18.3117 18.6667 18.6654 18.6667H29.332C29.6857 18.6667 30.0248 18.8072 30.2748 19.0572C30.5249 19.3073 30.6654 19.6464 30.6654 20V28C30.6654 28.3536 30.5249 28.6928 30.2748 28.9428C30.0248 29.1929 29.6857 29.3334 29.332 29.3334H25.332" stroke="#7D37A1" stroke-width="2" stroke-linecap="round" stroke-linejoin="round"/>
<path d="M17.332 29.3333H17.3387" stroke="#7D37A1" stroke-width="2" stroke-linecap="round" stroke-linejoin="round"/>
</svg>
