<svg width="23" height="24" viewBox="0 0 23 24" fill="none" xmlns="http://www.w3.org/2000/svg">
<path d="M8.62435 21.6774C9.15366 21.6774 9.58268 21.2442 9.58268 20.7097C9.58268 20.1752 9.15366 19.7419 8.62435 19.7419C8.09504 19.7419 7.66602 20.1752 7.66602 20.7097C7.66602 21.2442 8.09504 21.6774 8.62435 21.6774Z" stroke="#502665" stroke-width="1.5" stroke-linecap="round" stroke-linejoin="round"/>
<path d="M19.1673 21.6774C19.6966 21.6774 20.1257 21.2442 20.1257 20.7097C20.1257 20.1752 19.6966 19.7419 19.1673 19.7419C18.638 19.7419 18.209 20.1752 18.209 20.7097C18.209 21.2442 18.638 21.6774 19.1673 21.6774Z" stroke="#502665" stroke-width="1.5" stroke-linecap="round" stroke-linejoin="round"/>
<path d="M0.958984 1.35486H4.79232L7.36065 14.3129C7.44829 14.7585 7.68832 15.1587 8.03869 15.4436C8.38913 15.7284 8.82759 15.8797 9.27732 15.871H18.5923C19.042 15.8797 19.4805 15.7284 19.8309 15.4436C20.1813 15.1587 20.4214 14.7585 20.509 14.3129L22.0423 6.19357H5.75065" stroke="#502665" stroke-width="1.5" stroke-linecap="round" stroke-linejoin="round"/>
</svg>
