<svg width="23" height="13" viewBox="0 0 23 13" fill="none" xmlns="http://www.w3.org/2000/svg">
<path d="M20.3209 0.293838C20.414 0.20065 20.5244 0.126731 20.646 0.0762978C20.7675 0.0258646 20.8978 -9.44138e-05 21.0294 -9.44138e-05C21.161 -9.44138e-05 21.2913 0.0258646 21.4128 0.0762978C21.5344 0.126731 21.6448 0.20065 21.7379 0.293838C21.8309 0.387026 21.9047 0.497656 21.9551 0.619411C22.0054 0.741168 22.0313 0.871665 22.0313 1.00345C22.0313 1.13524 22.0054 1.26574 21.9551 1.38749C21.9047 1.50925 21.8309 1.61988 21.7379 1.71307L11.7241 11.7429C11.6311 11.8362 11.5207 11.9102 11.3991 11.9607C11.2776 12.0111 11.1473 12.0371 11.0157 12.0371C10.8841 12.0371 10.7538 12.0111 10.6322 11.9607C10.5106 11.9102 10.4002 11.8362 10.3072 11.7429L0.293458 1.71307C0.10556 1.52487 -5.23814e-09 1.26961 0 1.00345C5.23814e-09 0.737295 0.10556 0.482039 0.293458 0.293838C0.481357 0.105637 0.736201 -9.44138e-05 1.00193 -9.44138e-05C1.26766 -9.44138e-05 1.5225 0.105637 1.7104 0.293838L11.0157 9.61536L20.3209 0.293838Z" fill="#FDFBFE"/>
</svg>
