<svg width="48" height="48" viewBox="0 0 48 48" fill="none" xmlns="http://www.w3.org/2000/svg">
<path d="M27.636 30.0907V28.6357C27.636 27.8642 27.3295 27.1243 26.784 26.5787C26.2384 26.0332 25.4985 25.7267 24.727 25.7267H18.909C18.1375 25.7267 17.3976 26.0332 16.852 26.5787C16.3065 27.1243 16 27.8642 16 28.6357V30.0907" stroke="#7D37A1" stroke-width="2" stroke-linecap="round" stroke-linejoin="round"/>
<path d="M21.8192 22.818C23.4258 22.818 24.7282 21.5156 24.7282 19.909C24.7282 18.3024 23.4258 17 21.8192 17C20.2126 17 18.9102 18.3024 18.9102 19.909C18.9102 21.5156 20.2126 22.818 21.8192 22.818Z" stroke="#7D37A1" stroke-width="2" stroke-linecap="round" stroke-linejoin="round"/>
<path d="M31.9984 30.0924V28.6374C31.998 27.9927 31.7835 27.3664 31.3886 26.8569C30.9936 26.3474 30.4406 25.9835 29.8164 25.8224" stroke="#7D37A1" stroke-width="2" stroke-linecap="round" stroke-linejoin="round"/>
<path d="M26.9102 17.095C27.5358 17.2553 28.0903 17.6192 28.4863 18.1295C28.8823 18.6397 29.0972 19.2672 29.0972 19.913C29.0972 20.5589 28.8823 21.1864 28.4863 21.6966C28.0903 22.2068 27.5358 22.5708 26.9102 22.731" stroke="#7D37A1" stroke-width="2" stroke-linecap="round" stroke-linejoin="round"/>
</svg>
