<svg width="16" height="16" viewBox="0 0 16 16" fill="none" xmlns="http://www.w3.org/2000/svg">
<g clip-path="url(#clip0_196_5703)">
<path d="M9.77264 13.3399L8.7593 14.3533C8.34597 14.7666 7.66597 14.7666 7.25264 14.3533L6.2393 13.3399C6.06597 13.1666 5.72597 13.0266 5.48597 13.0266H4.05264C3.46597 13.0266 2.98597 12.5466 2.98597 11.9599V10.5266C2.98597 10.2866 2.84597 9.9466 2.67264 9.77327L1.6593 8.75994C1.24597 8.3466 1.24597 7.6666 1.6593 7.25327L2.67264 6.23994C2.84597 6.0666 2.98597 5.7266 2.98597 5.4866V4.05327C2.98597 3.4666 3.46597 2.9866 4.05264 2.9866M6.22664 2.65927L7.23997 1.64594C7.6533 1.2326 8.3333 1.2326 8.74664 1.64594L9.75997 2.65927C9.9333 2.8326 10.2733 2.9726 10.5133 2.9726H11.9466C12.5333 2.9726 13.0133 3.4526 13.0133 4.03927V5.4726C13.0133 5.7126 13.1533 6.0526 13.3266 6.22594L14.34 7.23927C14.7533 7.6526 14.7533 8.3326 14.34 8.74594L13.3266 9.75927C13.1533 9.9326 13.0133 10.2726 13.0133 10.5126V11.9459C13.0133 12.5326 12.5333 13.0126 11.9466 13.0126M5.99997 9.99994L9.99997 5.99994" stroke="#BA7E1B" stroke-width="1.5" stroke-linecap="round" stroke-linejoin="round"/>
<path d="M9.66335 9.66659H9.66935M6.33002 6.33325H6.33535" stroke="#BA7E1B" stroke-width="2" stroke-linecap="round" stroke-linejoin="round"/>
</g>
<defs>
<clipPath id="clip0_196_5703">
<rect width="16" height="16" fill="white"/>
</clipPath>
</defs>
</svg>
