<svg width="32" height="28" viewBox="0 0 32 28" fill="none" xmlns="http://www.w3.org/2000/svg">
<path fill-rule="evenodd" clip-rule="evenodd" d="M2.60645 0.0687917C1.54302 0.269864 0.545791 1.16978 0.150783 2.28491L0 2.71064V9.81695V16.9233L0.150783 17.349C0.556021 18.4931 1.54719 19.3684 2.66731 19.5713C2.92046 19.6172 4.82832 19.6414 8.19292 19.6414C13.7434 19.6414 13.5646 19.6522 13.8102 19.2997C13.9686 19.0723 13.9411 18.6349 13.7547 18.417L13.5975 18.2332L8.23228 18.2004L2.86709 18.1677L2.52552 18.0125C2.13116 17.8333 1.77219 17.4629 1.5728 17.0295C1.43453 16.7289 1.43342 16.6882 1.41517 11.176L1.39673 5.62521H14.594H27.7913L27.7915 8.16318C27.7917 10.5499 27.7992 10.7135 27.9168 10.9073C28.1769 11.336 28.8392 11.336 29.0993 10.9073C29.2189 10.7102 29.2243 10.5321 29.2236 6.83688C29.223 3.6211 29.2064 2.90221 29.1245 2.55299C28.8363 1.32389 27.8501 0.347412 26.636 0.088768C26.2615 0.0090594 24.4351 -0.00423655 14.5635 0.00100313C7.60295 0.0047364 2.80141 0.0319175 2.60645 0.0687917ZM26.6984 1.61875C27.1193 1.8271 27.5697 2.34471 27.6929 2.76166C27.747 2.94479 27.7913 3.33979 27.7913 3.6395V4.1843H14.5867H1.382L1.41745 3.53739C1.48112 2.37622 1.94865 1.72735 2.88234 1.5042C3.0229 1.4706 8.09713 1.44997 14.759 1.45587L26.3903 1.46621L26.6984 1.61875ZM3.1929 11.2543C2.93213 11.3615 2.80193 11.5827 2.80193 11.9182C2.80193 12.1796 2.83464 12.2702 2.9825 12.4189L3.16306 12.6005L4.78785 12.6201C6.18198 12.6369 6.44151 12.6246 6.61608 12.5339C7.07286 12.2964 7.09795 11.5894 6.65922 11.3205C6.46751 11.203 6.32644 11.1932 4.88709 11.1968C4.02697 11.1989 3.26458 11.2248 3.1929 11.2543ZM23.4319 12.641C21.7526 12.8367 20.122 13.645 18.8968 14.8891C15.1641 18.6791 16.2898 24.9838 21.1089 27.2784C23.9891 28.6497 27.4698 28.0288 29.7503 25.7367C32.6868 22.785 32.7571 18.092 29.911 15.0072C28.7258 13.7225 26.9569 12.841 25.1522 12.6356C24.4853 12.5597 24.1195 12.5608 23.4319 12.641ZM25.641 14.1832C27.4394 14.5435 29.0875 15.8298 29.9071 17.5127C31.7015 21.1977 29.5914 25.5712 25.6084 26.4221C24.9248 26.5681 23.754 26.5685 23.0671 26.423C20.6745 25.9161 18.7473 23.9782 18.2445 21.5735C18.1009 20.8872 18.1008 19.7069 18.2441 19.0191C18.6319 17.1581 19.8685 15.5488 21.5571 14.7075C22.8544 14.061 24.1809 13.8908 25.641 14.1832ZM3.18085 14.7595C2.9419 14.8639 2.76935 15.1547 2.76935 15.4529C2.76935 15.6002 2.83276 15.7229 2.9909 15.8819L3.21245 16.1046H6.28656H9.36067L9.55114 15.9131C9.89089 15.5716 9.78924 14.9899 9.34992 14.7615C9.08113 14.6218 3.49994 14.62 3.18085 14.7595ZM26.8464 18.9307C26.7748 18.9698 26.181 19.5359 25.5271 20.1886L24.338 21.3754L23.4573 20.492L22.5765 19.6086H22.2532C21.9866 19.6086 21.898 19.6405 21.7491 19.7902C21.6 19.94 21.5684 20.0289 21.5684 20.2976V20.6233L22.7903 21.8516L24.0124 23.0799H24.3374H24.6625L26.166 21.5735C27.613 20.1239 27.8564 19.8404 27.8564 19.6054C27.8564 19.1209 27.2452 18.7126 26.8464 18.9307Z" fill="#502665"/>
</svg>
