<svg width="48" height="48" viewBox="0 0 48 48" fill="none" xmlns="http://www.w3.org/2000/svg">
<path d="M34.2559 19.5522C34.9186 19.5522 35.4561 20.0896 35.4561 20.7524V23.1567C35.4559 23.8189 34.9209 24.3529 34.2627 24.3569C33.6732 24.3603 33.0802 24.3999 32.6514 24.5961C32.4585 24.6845 32.3346 24.7903 32.2539 24.9116C32.1752 25.03 32.0908 25.2339 32.0908 25.6C32.0909 26.2793 32.3839 26.6685 32.7881 26.936C33.2402 27.2351 33.8417 27.3755 34.3105 27.4008C34.9208 27.4337 35.4561 27.933 35.4561 28.6049V31.0092C35.4558 31.6718 34.9185 32.2094 34.2559 32.2094H16.708C16.0455 32.2093 15.508 31.6717 15.5078 31.0092V28.6049C15.5078 27.9331 16.0432 27.4339 16.6533 27.4008L16.835 27.3852C17.2703 27.3374 17.7802 27.1976 18.1758 26.936C18.5799 26.6685 18.873 26.2793 18.873 25.6C18.873 25.2336 18.7887 25.03 18.71 24.9116C18.6293 24.7902 18.5056 24.6845 18.3125 24.5961C17.8836 24.3999 17.2907 24.3603 16.7012 24.3569C16.0431 24.3527 15.508 23.8188 15.5078 23.1567V20.7524C15.5078 20.0897 16.0454 19.5523 16.708 19.5522H34.2559ZM24.4824 21.5522C24.4443 21.8908 24.2391 22.1787 23.9492 22.3286C24.2706 22.4948 24.4912 22.8295 24.4912 23.2162V24.9926C24.4911 25.3794 24.2706 25.7141 23.9492 25.8803C24.2707 26.0466 24.4912 26.3821 24.4912 26.769V28.5444L24.4863 28.6469C24.4515 28.9902 24.2421 29.2816 23.9492 29.433C24.2393 29.5831 24.4447 29.8705 24.4824 30.2094H33.4561V29.3012C32.8885 29.191 32.2527 28.9806 31.6836 28.6039C30.797 28.0171 30.0909 27.0377 30.0908 25.6C30.0908 24.9083 30.2566 24.3027 30.5889 23.8032C30.9191 23.3069 31.3674 22.9847 31.8193 22.7778C32.3585 22.5311 32.9486 22.4293 33.4561 22.3871V21.5522H24.4824ZM17.5078 22.3871C18.0153 22.4293 18.6053 22.5311 19.1445 22.7778C19.5966 22.9846 20.0447 23.3068 20.375 23.8032C20.7073 24.3028 20.873 24.9082 20.873 25.6C20.873 27.0377 20.1669 28.0171 19.2803 28.6039C18.7112 28.9805 18.0753 29.1911 17.5078 29.3012V30.2094H22.499C22.5368 29.8703 22.7429 29.5831 23.0332 29.433C22.7402 29.2817 22.531 28.9902 22.4961 28.6469L22.4912 28.5444V26.769C22.4912 26.3819 22.7115 26.0465 23.0332 25.8803C22.7117 25.7141 22.4913 25.3795 22.4912 24.9926V23.2162C22.4913 22.8293 22.7116 22.4948 23.0332 22.3286C22.7432 22.1787 22.5371 21.8909 22.499 21.5522H17.5078V22.3871Z" fill="#7D37A1"/>
</svg>
