<svg width="32" height="32" viewBox="0 0 32 32" fill="none" xmlns="http://www.w3.org/2000/svg">
<path fill-rule="evenodd" clip-rule="evenodd" d="M14.1862 0.0598298C10.5721 0.472457 7.2917 2.0657 4.6822 4.67575C2.05145 7.30713 0.459643 10.6095 0.063614 14.2577C-0.0212047 15.0388 -0.0212047 16.9514 0.063614 17.7324C0.459705 21.381 2.0552 24.6909 4.68176 27.313C7.006 29.6333 9.69813 31.079 12.8736 31.7123C13.9818 31.9334 14.7061 32 15.9988 32C17.2922 32 18.0166 31.9333 19.1241 31.7121C22.3105 31.0758 24.9967 29.6337 27.3155 27.3144C30.3972 24.2319 32 20.3642 32 16.0101C32 14.7017 31.9338 13.9795 31.7122 12.8691C31.0754 9.67886 29.6365 6.99728 27.3155 4.67575C24.6847 2.04438 21.3831 0.452201 17.7358 0.0560787C17.0313 -0.0204449 14.8696 -0.0181317 14.1862 0.0598298ZM18.4053 1.10697C20.9214 1.53841 23.1329 2.50152 25.2183 4.07401C25.8625 4.55984 27.4314 6.12908 27.9171 6.77346C29.192 8.46499 30.1034 10.3246 30.5983 12.2439C31.1312 14.3108 31.2054 16.6879 30.8032 18.8084C30.3733 21.075 29.4267 23.2036 28.0283 25.0484C27.7758 25.3816 27.51 25.7223 27.4379 25.8053L27.3067 25.9563L25.6326 24.2892C24.0637 22.727 23.9444 22.6221 23.7335 22.6221C23.5648 22.6221 23.476 22.6634 23.3789 22.7868C23.1105 23.1281 23.1257 23.1493 24.9411 24.9696L26.6329 26.6658L26.1443 27.1224C24.394 28.7582 22.0385 30.0233 19.6241 30.6243C18.2573 30.9646 17.6681 31.0306 15.9988 31.0306C14.8123 31.0306 14.3127 31.0051 13.7799 30.917C10.3919 30.3568 7.51985 28.8673 5.18442 26.4592C3.99971 25.2376 3.20303 24.1051 2.4631 22.5908C1.76905 21.1705 1.34821 19.8387 1.08025 18.2145C0.919114 17.2376 0.919114 14.7525 1.08025 13.7756C1.58347 10.7256 2.91363 7.94595 4.87471 5.84662L5.33169 5.35734L7.36815 7.3879C8.48823 8.50469 9.46467 9.4361 9.53805 9.45767C9.84958 9.54926 10.1764 9.21578 10.096 8.8883C10.0669 8.76939 9.39654 8.05348 8.04801 6.701L6.0433 4.69045L6.2755 4.48651C7.08563 3.77504 8.24658 3.02206 9.40461 2.45701C11.0142 1.67158 12.4418 1.24726 14.2487 1.01725C15.2217 0.893337 17.4385 0.941227 18.4053 1.10697ZM11.8925 6.31689C11.6879 6.41573 11.6235 6.68575 11.6235 7.44467V8.12845L10.4777 9.6079C9.84751 10.4215 9.29904 11.1488 9.25885 11.2238C9.20453 11.3255 9.18584 13.0206 9.18584 17.8552C9.18584 25.1787 9.16165 24.7893 9.64738 25.2752C10.144 25.772 9.82301 25.7481 15.9988 25.7481C22.1747 25.7481 21.8536 25.772 22.3503 25.2752C22.8361 24.7893 22.8119 25.1801 22.8115 17.8436C22.8112 11.7611 22.8041 11.3264 22.7021 11.1686C22.6421 11.0759 22.0798 10.3399 21.4524 9.53332L20.3117 8.0668V7.284C20.3117 6.51282 20.3092 6.49925 20.1469 6.37165C19.9841 6.24349 19.9372 6.24211 16.006 6.2463C13.3378 6.24911 11.9846 6.27237 11.8925 6.31689ZM19.3741 7.49244V7.80503H15.9988H12.6236V7.49244V7.17984H15.9988H19.3741V7.49244ZM18.8004 8.85223C18.7492 8.91244 18.3636 9.40478 17.9434 9.94632L17.1795 10.931H13.9296C11.2666 10.931 10.6888 10.9162 10.7297 10.8491C10.7572 10.804 11.1313 10.3118 11.561 9.75526L12.3423 8.74339L15.6179 8.74307C18.7312 8.74282 18.8888 8.74826 18.8004 8.85223ZM20.6494 10.0557L21.3061 10.8997L19.8934 10.9166C19.1163 10.9258 18.4688 10.9216 18.4543 10.9072C18.4399 10.8927 18.7457 10.4704 19.1338 9.9687C19.6932 9.24554 19.8553 9.07255 19.916 9.13407C19.9581 9.17677 20.2881 9.59152 20.6494 10.0557ZM16.9364 18.3724V24.8136L13.7188 24.7963L10.5012 24.779L10.3279 24.6057L10.1547 24.4324L10.1382 18.1818L10.1217 11.9313H13.529H16.9364V18.3724ZM21.8595 18.1818L21.843 24.4324L21.6698 24.6057L21.4965 24.779L19.6853 24.7973L17.874 24.8157V18.3735V11.9313H19.875H21.876L21.8595 18.1818Z" fill="#502665"/>
</svg>
