<svg width="48" height="48" viewBox="0 0 48 48" fill="none" xmlns="http://www.w3.org/2000/svg">
<path d="M31.9773 27.1219C31.467 28.324 30.6702 29.3829 29.6564 30.2062C28.6426 31.0295 27.4426 31.592 26.1614 31.8447C24.8801 32.0974 23.5564 32.0326 22.306 31.656C21.0555 31.2793 19.9163 30.6023 18.9877 29.6839C18.0592 28.7656 17.3696 27.6339 16.9792 26.3876C16.5887 25.1414 16.5093 23.8185 16.7479 22.5345C16.9865 21.2506 17.5357 20.0445 18.3478 19.0217C19.1598 17.9989 20.2098 17.1904 21.4063 16.6669" stroke="#7D37A1" stroke-width="2" stroke-linecap="round" stroke-linejoin="round"/>
<path d="M32.6055 24.0028C32.6055 21.8811 31.7626 19.8462 30.2623 18.346C28.762 16.8457 26.7272 16.0028 24.6055 16.0028V24.0028H32.6055Z" stroke="#7D37A1" stroke-width="2" stroke-linecap="round" stroke-linejoin="round"/>
</svg>
