<svg width="32" height="33" viewBox="0 0 32 33" fill="none" xmlns="http://www.w3.org/2000/svg">
<path fill-rule="evenodd" clip-rule="evenodd" d="M15.1165 0.1158C14.5154 0.318922 14.1675 0.582059 12.969 1.73981C12.0726 2.60567 11.7234 2.90239 11.5424 2.9519C11.3525 3.00379 10.9553 2.9693 9.63207 2.78597C8.17874 2.58459 7.90211 2.56287 7.50578 2.61876C6.71878 2.72976 6.10739 3.08875 5.57918 3.74995C5.22021 4.19932 5.09824 4.59454 4.80416 6.26077C4.65836 7.08692 4.50709 7.84326 4.4681 7.94144C4.35901 8.21598 4.11622 8.38249 2.93484 8.99289C2.33433 9.30321 1.66071 9.67033 1.43797 9.80879C0.457916 10.4181 -0.0873416 11.4469 0.0114647 12.5001C0.0654242 13.075 0.13136 13.2454 0.931705 14.8775C1.40159 15.8357 1.61554 16.3425 1.61554 16.4976C1.61554 16.6526 1.40159 17.1594 0.931705 18.1176C0.13136 19.7498 0.0654242 19.9201 0.0114647 20.495C-0.0873416 21.5483 0.457916 22.577 1.43797 23.1863C1.66071 23.3248 2.33433 23.6919 2.93484 24.0022C4.11622 24.6126 4.35901 24.7791 4.4681 25.0537C4.50709 25.1519 4.65836 25.9082 4.80416 26.7344C5.09921 28.4061 5.21982 28.7952 5.58485 29.2525C6.10159 29.9 6.66514 30.2331 7.47662 30.371C7.8734 30.4383 8.08059 30.4229 9.61078 30.212C10.9482 30.0277 11.3557 29.9922 11.5438 30.0436C11.723 30.0926 12.0762 30.3929 12.969 31.2553C14.5105 32.7444 14.9545 33 16 33C17.0455 33 17.4895 32.7444 19.031 31.2553C19.9262 30.3906 20.2767 30.0927 20.4572 30.0434C20.6464 29.9916 21.0451 30.0263 22.3675 30.2098C23.8251 30.4121 24.0968 30.4334 24.4942 30.3769C25.282 30.2649 25.8929 29.906 26.4208 29.2452C26.7798 28.7958 26.9018 28.4006 27.1958 26.7344C27.3416 25.9082 27.4929 25.1519 27.5319 25.0537C27.641 24.7791 27.8838 24.6126 29.0652 24.0022C29.6657 23.6919 30.3393 23.3248 30.562 23.1863C31.5421 22.577 32.0873 21.5483 31.9885 20.495C31.9346 19.9201 31.8686 19.7498 31.0683 18.1176C30.5984 17.1594 30.3845 16.6526 30.3845 16.4976C30.3845 16.3425 30.5984 15.8357 31.0683 14.8775C31.8686 13.2454 31.9346 13.075 31.9885 12.5001C32.0873 11.4469 31.5421 10.4181 30.562 9.80879C30.3393 9.67033 29.6657 9.30321 29.0652 8.99289C27.8838 8.38249 27.641 8.21598 27.5319 7.94144C27.4929 7.84326 27.3416 7.08692 27.1958 6.26077C26.9018 4.59454 26.7798 4.19932 26.4208 3.74995C25.8926 3.08875 25.2812 2.72976 24.4942 2.61876C24.0979 2.56287 23.8213 2.58459 22.3679 2.78597C21.0447 2.9693 20.6475 3.00379 20.4576 2.9519C20.2766 2.90239 19.9274 2.60567 19.031 1.73981C17.8146 0.564718 17.4826 0.315957 16.8586 0.112126C16.3965 -0.0388458 15.5689 -0.0371053 15.1165 0.1158ZM16.4075 2.03434C16.5206 2.09229 17.1435 2.65073 17.7917 3.27524C19.0219 4.46071 19.3398 4.68826 20.0053 4.85993C20.5456 4.9993 20.7952 4.98711 22.5576 4.73552C24.265 4.49165 24.4045 4.49623 24.7319 4.80694C24.9724 5.03514 24.9965 5.12242 25.3063 6.89263C25.7359 9.34762 25.8864 9.551 28.1442 10.7282C28.8922 11.1182 29.5992 11.5194 29.7151 11.6198C29.9821 11.851 30.0812 12.1813 29.9872 12.5271C29.9489 12.6678 29.6432 13.3259 29.3079 13.9895C28.5526 15.4838 28.4219 15.854 28.4219 16.4976C28.4219 17.141 28.5527 17.5114 29.3064 19.0028C29.641 19.6649 29.9467 20.3211 29.9858 20.4612C30.0822 20.807 29.9827 21.1437 29.7158 21.3747C29.5994 21.4754 28.8922 21.877 28.1442 22.267C25.8864 23.4441 25.7359 23.6475 25.3063 26.1025C24.9965 27.8727 24.9724 27.96 24.7319 28.1882C24.4045 28.4989 24.265 28.5035 22.5576 28.2596C20.7952 28.008 20.5456 27.9958 20.0053 28.1352C19.3398 28.3069 19.0219 28.5344 17.7917 29.7199C16.5749 30.8923 16.3435 31.0661 16 31.0661C15.6568 31.0661 15.4186 30.8887 14.2731 29.7802C13.0656 28.6117 12.6095 28.2877 11.9587 28.1357C11.3752 27.9995 11.2058 28.0078 9.4424 28.2596C7.73496 28.5035 7.59554 28.4989 7.26807 28.1882C7.02763 27.96 7.00354 27.8727 6.69372 26.1025C6.26406 23.6475 6.11357 23.4441 3.8558 22.267C3.10779 21.877 2.40085 21.4757 2.28486 21.3753C2.01786 21.1442 1.91879 20.8139 2.01285 20.468C2.05105 20.3273 2.35678 19.6692 2.69212 19.0056C3.44736 17.5114 3.57813 17.1412 3.57813 16.4976C3.57813 15.8542 3.4473 15.4837 2.69356 13.9923C2.35899 13.3303 2.05327 12.674 2.01421 12.5339C1.91782 12.1882 2.01734 11.8514 2.28421 11.6204C2.40059 11.5197 3.10779 11.1182 3.8558 10.7282C6.11357 9.551 6.26406 9.34762 6.69372 6.89263C7.00354 5.12242 7.02763 5.03514 7.26807 4.80694C7.59554 4.49623 7.73496 4.49165 9.4424 4.73552C11.2048 4.98711 11.4544 4.9993 11.9947 4.85993C12.6604 4.6882 12.9798 4.46065 14.174 3.30735C14.8024 2.70043 15.4191 2.14212 15.5444 2.0667C15.8171 1.90245 16.1272 1.89084 16.4075 2.03434ZM11.2663 8.02324C10.1372 8.32441 9.18653 9.2049 8.79905 10.3084C8.5918 10.8987 8.567 11.7501 8.73988 12.3429C9.23652 14.0466 10.9473 15.1602 12.6622 14.8962C14.0329 14.6851 15.2351 13.6288 15.5749 12.337C15.7057 11.8396 15.7031 10.9436 15.5696 10.4982C15.2064 9.28651 14.2234 8.32911 13.0252 8.02002C12.5642 7.90108 11.7184 7.90263 11.2663 8.02324ZM22.0235 9.30908C21.819 9.38179 20.4286 10.7262 15.2752 15.8339C9.60174 21.4569 8.77588 22.2997 8.71599 22.5269C8.52463 23.2529 9.18483 23.9043 9.91618 23.7109C10.1391 23.652 11.0613 22.7657 16.6389 17.2498C20.1944 13.7339 23.1501 10.7701 23.2073 10.6637C23.6166 9.90142 22.8439 9.01732 22.0235 9.30908ZM12.8604 10.0436C13.9383 10.5882 14.0036 12.0964 12.9764 12.7248C12.6899 12.9001 12.6041 12.9198 12.132 12.919C11.6766 12.9181 11.5717 12.8956 11.3461 12.75C11.0092 12.5327 10.8943 12.4013 10.7327 12.0485C10.3397 11.1902 10.8077 10.226 11.7688 9.91438C12.0216 9.83238 12.5711 9.89743 12.8604 10.0436ZM19.2219 18.1102C18.4986 18.253 17.8594 18.5987 17.318 19.1399C16.6355 19.8222 16.3254 20.588 16.3254 21.592C16.3254 22.5623 16.6549 23.339 17.3647 24.0419C18.9536 25.6156 21.5027 25.3641 22.7948 23.5061C23.5124 22.4742 23.5707 21.0569 22.9435 19.8864C22.2661 18.6221 20.6166 17.8348 19.2219 18.1102ZM20.6544 20.2496C20.9887 20.4599 21.1048 20.5919 21.2673 20.9466C21.6083 21.6913 21.2874 22.5666 20.5282 22.9622C20.16 23.1541 19.5185 23.1529 19.1475 22.9598C17.9986 22.3614 17.9936 20.7817 19.1388 20.2059C19.4377 20.0557 19.5416 20.0367 19.9384 20.0596C20.2837 20.0797 20.4577 20.1258 20.6544 20.2496Z" fill="#502665"/>
</svg>
