<svg width="56" height="64" viewBox="0 0 56 64" fill="none" xmlns="http://www.w3.org/2000/svg">
<path d="M55.4876 8.49081L46.1818 0H9.7978L0.492028 8.49081C0.27539 8.66764 0.11982 8.90809 0.0473146 9.17817C-0.0251905 9.44824 -0.0109611 9.73428 0.0879907 9.99583C0.29044 10.5291 0.814224 10.884 1.4009 10.884H54.5779C54.8607 10.8863 55.1375 10.8025 55.3716 10.6439C55.6058 10.4853 55.7862 10.2593 55.8891 9.99583C55.9886 9.7345 56.0033 9.44847 55.9311 9.17831C55.8589 8.90816 55.7043 8.66761 55.4876 8.49081Z" fill="#C4C4C4"/>
<path d="M54.5777 8.55176H1.40076C0.628871 8.55176 0.00170898 9.16944 0.00170898 9.93186V60.9896C0.00170898 62.5144 1.25431 63.7498 2.80068 63.7498H53.1787C54.7251 63.7498 55.9777 62.5144 55.9777 60.9896V9.93272C55.9777 9.1703 55.3505 8.55262 54.5777 8.55262V8.55176Z" fill="#E4E4E4"/>
<path d="M27.9897 38.8722C21.1297 38.8722 15.5498 33.3182 15.5498 26.4927V22.3662C15.5503 22.1851 15.5864 22.0058 15.6561 21.8387C15.7259 21.6716 15.8279 21.5199 15.9563 21.3922C16.0847 21.2645 16.237 21.1634 16.4045 21.0946C16.572 21.0258 16.7514 20.9907 16.9325 20.9912C17.1135 20.9908 17.2928 21.026 17.4602 21.0948C17.6276 21.1637 17.7798 21.2648 17.9082 21.3925C18.0365 21.5202 18.1384 21.6719 18.2081 21.8389C18.2778 22.006 18.3139 22.1851 18.3143 22.3662V26.4927C18.3143 31.802 22.6562 36.1215 27.9888 36.1215C33.3231 36.1215 37.6642 31.802 37.6642 26.4927V22.3662C37.6646 22.1851 37.7007 22.006 37.7704 21.8389C37.8401 21.6719 37.942 21.5202 38.0703 21.3925C38.1986 21.2648 38.3508 21.1637 38.5182 21.0948C38.6856 21.026 38.865 20.9908 39.046 20.9912C39.2271 20.9907 39.4065 21.0258 39.574 21.0946C39.7415 21.1634 39.8938 21.2645 40.0222 21.3922C40.1506 21.5199 40.2526 21.6716 40.3223 21.8387C40.3921 22.0058 40.4282 22.1851 40.4287 22.3662V26.4927C40.4287 33.3182 34.8497 38.8722 27.9897 38.8722Z" fill="#6D6D6D"/>
</svg>
