<svg width="335" height="306" viewBox="0 0 335 306" fill="none" xmlns="http://www.w3.org/2000/svg">
<g clip-path="url(#clip0_1343_5813)">
<g clip-path="url(#clip1_1343_5813)">
<circle cx="162" cy="157.96" r="142" fill="#502665"/>
<mask id="mask0_1343_5813" style="mask-type:luminance" maskUnits="userSpaceOnUse" x="-470" y="-283" width="1000" height="1001">
<path d="M530 -282.04H-470V717.96H530V-282.04Z" fill="white"/>
</mask>
<g mask="url(#mask0_1343_5813)">
<mask id="mask1_1343_5813" style="mask-type:luminance" maskUnits="userSpaceOnUse" x="-470" y="-283" width="1000" height="1001">
<path d="M530 -282.04H-470V717.96H530V-282.04Z" fill="white"/>
</mask>
<g mask="url(#mask1_1343_5813)">
<mask id="mask2_1343_5813" style="mask-type:luminance" maskUnits="userSpaceOnUse" x="93" y="42" width="126" height="227">
<path d="M129.749 42.3285L93.4349 253.225L182.13 268.497L218.444 57.6009L129.749 42.3285Z" fill="white"/>
</mask>
<g mask="url(#mask2_1343_5813)">
<mask id="mask3_1343_5813" style="mask-type:luminance" maskUnits="userSpaceOnUse" x="93" y="42" width="126" height="227">
<path d="M129.749 42.3285L93.4349 253.225L182.13 268.497L218.444 57.6009L129.749 42.3285Z" fill="white"/>
</mask>
<g mask="url(#mask3_1343_5813)">
<path d="M109.92 158.066L212.907 58.1462L168.827 154.92L201.947 152.68L104.133 253.453L147.04 158.253L109.92 158.066Z" fill="#CC9E44"/>
<path d="M147.04 158.253L155.2 159.666L104.107 253.453L147.04 158.253Z" fill="#EFD68B"/>
</g>
</g>
</g>
</g>
<mask id="mask4_1343_5813" style="mask-type:luminance" maskUnits="userSpaceOnUse" x="11" y="7" width="301" height="301">
<path d="M311.5 7.45996H11.5V307.46H311.5V7.45996Z" fill="white"/>
</mask>
<g mask="url(#mask4_1343_5813)">
<path d="M161.5 294.13C86.17 294.13 24.83 232.8 24.83 157.46C24.83 82.12 86.17 20.79 161.5 20.79C236.83 20.79 298.17 82.12 298.17 157.46C298.17 232.8 236.84 294.13 161.5 294.13ZM161.5 7.45996C78.5 7.45996 11.5 74.46 11.5 157.46C11.5 240.46 78.5 307.46 161.5 307.46C244.5 307.46 311.5 240.46 311.5 157.46C311.5 74.46 244.5 7.45996 161.5 7.45996Z" fill="#BA7E1B"/>
</g>
</g>
</g>
<defs>
<clipPath id="clip0_1343_5813">
<rect width="335" height="306" fill="white"/>
</clipPath>
<clipPath id="clip1_1343_5813">
<rect width="375" height="383.04" fill="white" transform="translate(-26 -30.04)"/>
</clipPath>
</defs>
</svg>
