<svg width="16" height="16" viewBox="0 0 16 16" fill="none" xmlns="http://www.w3.org/2000/svg">
<path fill-rule="evenodd" clip-rule="evenodd" d="M6.40156 3.19998C5.55287 3.19998 4.73894 3.53712 4.13882 4.13724C3.5387 4.73735 3.20156 5.55129 3.20156 6.39998C3.20156 7.24867 3.5387 8.0626 4.13882 8.66272C4.73894 9.26284 5.55287 9.59998 6.40156 9.59998C7.25026 9.59998 8.06419 9.26284 8.6643 8.66272C9.26442 8.0626 9.60156 7.24867 9.60156 6.39998C9.60156 5.55129 9.26442 4.73735 8.6643 4.13724C8.06419 3.53712 7.25026 3.19998 6.40156 3.19998ZM1.60156 6.39998C1.60147 5.64454 1.77968 4.89975 2.1217 4.22617C2.46372 3.5526 2.9599 2.96926 3.56988 2.5236C4.17986 2.07794 4.88641 1.78255 5.63208 1.66144C6.37775 1.54034 7.14147 1.59695 7.86113 1.82666C8.5808 2.05637 9.23608 2.4527 9.7737 2.98342C10.3113 3.51413 10.7161 4.16424 10.955 4.88088C11.194 5.59752 11.2605 6.36045 11.149 7.10762C11.0376 7.85479 10.7513 8.5651 10.3136 9.18078L14.1672 13.0344C14.3129 13.1853 14.3935 13.3873 14.3917 13.5971C14.3899 13.8069 14.3057 14.0075 14.1574 14.1558C14.0091 14.3042 13.8084 14.3883 13.5987 14.3901C13.3889 14.3919 13.1868 14.3113 13.036 14.1656L9.18316 10.3128C8.46505 10.8234 7.62024 11.1265 6.7413 11.1889C5.86237 11.2512 4.98322 11.0705 4.2002 10.6664C3.41718 10.2622 2.76051 9.6504 2.30214 8.89786C1.84377 8.14532 1.60139 7.28113 1.60156 6.39998Z" fill="#502665"/>
</svg>
