<svg width="32" height="32" viewBox="0 0 32 32" fill="none" xmlns="http://www.w3.org/2000/svg">
<path fill-rule="evenodd" clip-rule="evenodd" d="M13.9985 0.0802083C11.0047 0.493485 8.24048 1.67351 5.93375 3.52309C5.25288 4.06904 4.07954 5.24488 3.53557 5.92638C2.0818 7.74768 1.03999 9.84853 0.465071 12.1179C-0.0932175 14.3218 -0.152041 16.9263 0.305792 19.1736C1.36755 24.3852 4.93182 28.7336 9.82246 30.7839C11.7408 31.5882 13.4115 31.9395 15.5717 31.9929C17.9489 32.0517 19.7254 31.7512 21.8286 30.9346C24.3198 29.9673 26.5962 28.3284 28.3274 26.2555C30.2659 23.9345 31.5199 21.0363 31.908 17.9799C32.0317 17.0064 32.0304 15.0053 31.9056 13.9961C31.5458 11.0881 30.3988 8.37138 28.5116 5.95765C27.992 5.29311 26.4209 3.75954 25.7324 3.24486C23.5661 1.6256 21.303 0.650551 18.5847 0.165403C17.6032 -0.00974038 15.0008 -0.0580925 13.9985 0.0802083ZM17.2491 1.89207C19.4061 2.03256 21.8625 2.88751 23.7857 4.167C24.4654 4.61918 25.4919 5.41158 25.4981 5.48883C25.4995 5.50622 24.4911 6.53025 23.2573 7.76451L21.0141 10.0086L19.9911 10.0221C19.4285 10.0296 18.8442 10.0583 18.6927 10.086C18.4223 10.1355 18.4181 10.1337 18.4631 9.98614C18.4883 9.90345 18.5244 9.55097 18.5432 9.20281C18.6252 7.68857 18.1664 6.65766 16.8274 5.34778C16.2305 4.76386 16.1922 4.7379 15.9295 4.73765C15.6601 4.73746 15.6401 4.75266 14.8374 5.56646C14.1263 6.28742 13.9858 6.46482 13.7597 6.9272C13.4622 7.53551 13.3242 8.02103 13.2707 8.64736C13.2372 9.03936 13.3133 9.82513 13.4088 10.0743C13.4399 10.1552 13.4066 10.1595 13.1748 10.1042C13.0262 10.0688 12.4967 10.0362 11.9982 10.0317C10.9669 10.0224 10.7769 10.0795 10.6001 10.4524C10.4651 10.7371 10.4604 12.1505 10.5923 12.7739C10.6849 13.211 11.0477 14.0587 11.2271 14.2571C11.3328 14.374 11.2922 14.4959 11.1474 14.4959C10.9585 14.4959 10.6994 14.6841 10.6001 14.8935C10.4656 15.1772 10.4604 16.5916 10.5916 17.2114C10.6868 17.6611 10.9597 18.3069 11.193 18.6347C11.3044 18.7913 11.3129 18.8346 11.2413 18.88C11.1934 18.9103 11.1181 18.9355 11.0739 18.9361C10.919 18.9379 10.6675 19.1522 10.5832 19.3544C10.5359 19.4675 10.4979 19.7758 10.4979 20.0456V20.5327L8.00744 23.0241L5.51699 25.5156L5.25082 25.2131C3.8038 23.5689 2.62721 21.1899 2.16232 18.9683C1.91127 17.7685 1.85307 17.0539 1.88795 15.5983C1.92252 14.1556 2.02967 13.4057 2.38073 12.1502C3.98346 6.41765 9.14477 2.23085 15.0612 1.86392C15.8232 1.81663 16.1578 1.82095 17.2491 1.89207ZM16.8877 7.49504C17.5178 8.75263 17.3111 10.0817 16.3224 11.1305L15.9064 11.5717L15.5167 11.1519C14.2732 9.81244 14.2701 8.0787 15.5088 6.71452L15.9007 6.28298L16.3093 6.7194C16.5339 6.95941 16.7942 7.30845 16.8877 7.49504ZM26.9288 6.97667C30.5189 11.3409 31.176 17.4845 28.5895 22.5055C28.2519 23.1607 27.5612 24.2298 27.0845 24.835C26.6278 25.4149 25.4107 26.6328 24.8311 27.0898C22.7976 28.6937 20.3367 29.7228 17.6867 30.0775C16.8332 30.1918 15.0006 30.176 14.1015 30.0466C12.0105 29.7457 9.93117 28.9658 8.25849 27.8552C7.60987 27.4245 6.73702 26.7508 6.57587 26.5565C6.51623 26.4846 6.89424 26.0766 8.61955 24.3507L10.7365 22.2331L10.923 22.6028C11.3597 23.4686 12.0065 24.1188 12.8421 24.5322C13.4111 24.8137 13.8901 24.9341 14.6343 24.983L15.2389 25.0227L15.2594 26.1356L15.28 27.2484L15.4636 27.44C15.8172 27.8091 16.4196 27.6462 16.559 27.1441C16.5944 27.0166 16.6234 26.4872 16.6236 25.9677L16.624 25.023L17.2065 24.982C17.5269 24.9595 17.9559 24.8977 18.1598 24.8447C19.3586 24.5334 20.3482 23.717 20.8853 22.5963C21.2129 21.9127 21.31 21.3982 21.3113 20.3381C21.3123 19.5227 21.3015 19.4399 21.1698 19.2434C21.0764 19.1041 20.9398 19.0029 20.7732 18.9498L20.519 18.8687L20.8243 18.2617C20.9987 17.9148 21.1682 17.4671 21.2198 17.2169C21.3432 16.619 21.3444 15.1147 21.2218 14.8774C21.1164 14.6736 20.8702 14.4959 20.6931 14.4959C20.5027 14.4959 20.4789 14.3881 20.6241 14.184C20.9878 13.6729 21.3124 12.6194 21.3124 11.9499V11.6504L23.8906 9.06983C25.3087 7.6506 26.4832 6.49046 26.5005 6.4919C26.5179 6.49328 26.7106 6.71139 26.9288 6.97667ZM13.5864 11.6371C14.6442 12.1397 15.2488 13.1186 15.2488 14.3289V14.8274L14.7018 14.7883C13.6627 14.7139 12.8576 14.2831 12.3437 13.5264C12.0118 13.0376 11.8694 12.5914 11.8268 11.907L11.7923 11.3511L12.4501 11.3804C13.0454 11.4069 13.1534 11.4313 13.5864 11.6371ZM19.9996 11.7931C19.9996 12.6305 19.7025 13.3645 19.1328 13.9346C18.5739 14.4938 17.7683 14.8067 16.8829 14.8082L16.6105 14.8087L16.6329 14.1036C16.6534 13.4587 16.6725 13.3635 16.8579 12.9867C17.3523 11.9818 18.3321 11.3792 19.4839 11.3717L19.9996 11.3683V11.7931ZM13.5785 16.0743C14.6414 16.5797 15.2488 17.5565 15.2488 18.7608V19.2498L15.0143 19.2485C13.1161 19.2385 11.8106 17.9697 11.8106 16.1349V15.7953L12.4514 15.8191C13.0353 15.8409 13.1352 15.8635 13.5785 16.0743ZM19.9843 16.3881C19.9301 17.3558 19.556 18.0841 18.8312 18.633C18.3699 18.9823 17.8425 19.1658 17.1327 19.2242L16.6099 19.2672L16.6326 18.5535C16.6535 17.8976 16.6718 17.8061 16.8595 17.4247C17.2094 16.7133 17.8787 16.1442 18.6556 15.8973C18.7931 15.8536 19.1557 15.816 19.4611 15.8137L20.0167 15.8095L19.9843 16.3881ZM13.2626 20.3805C14.4892 20.794 15.2488 21.873 15.2488 23.2019V23.6909L15.0143 23.6897C13.1131 23.6797 11.8106 22.4167 11.8106 20.5831V20.2506H12.344C12.7184 20.2506 12.992 20.2893 13.2626 20.3805ZM19.9843 20.8292C19.9301 21.7969 19.556 22.5252 18.8312 23.0741C18.3703 23.4232 17.8426 23.6069 17.1342 23.6652L16.6128 23.7081L16.6341 22.994C16.6537 22.332 16.6705 22.249 16.8648 21.8545C17.2144 21.1447 17.8729 20.5872 18.6556 20.3384C18.7931 20.2947 19.1557 20.2571 19.4611 20.2548L20.0167 20.2506L19.9843 20.8292Z" fill="#502665"/>
</svg>
