<svg width="48" height="48" viewBox="0 0 48 48" fill="none" xmlns="http://www.w3.org/2000/svg">
<path d="M39.6924 11.1899C39.6924 9.59463 38.3995 8.30653 36.8102 8.30653C35.2208 8.30653 33.9268 9.59463 33.9268 11.1899C33.9268 12.7793 35.2208 14.0674 36.8102 14.0674C38.3995 14.0674 39.6924 12.7793 39.6924 11.1899Z" fill="url(#paint0_linear_317_10384)"/>
<path d="M43.5331 33.6969C43.4264 36.0371 43.035 37.3085 42.71 38.153C42.2735 39.2727 41.7528 40.0733 40.9084 40.9131C40.0733 41.7528 39.2727 42.2723 38.153 42.704C37.3085 43.0338 36.0323 43.4264 33.6922 43.5379C31.1622 43.6494 30.4126 43.6731 23.997 43.6731C17.5874 43.6731 16.8318 43.6494 14.3019 43.5379C11.9618 43.4264 10.6915 43.0338 9.84691 42.704C8.72134 42.2723 7.92669 41.7528 7.08693 40.9131C6.24122 40.0733 5.72055 39.2727 5.29 38.153C4.96495 37.3085 4.56767 36.0371 4.46679 33.6969C4.3435 31.1669 4.3209 30.4055 4.3209 24.003C4.3209 17.5874 4.3435 16.8318 4.46679 14.3019C4.56767 11.9618 4.96495 10.6915 5.29 9.83979C5.72055 8.72134 6.24122 7.92544 7.08693 7.08569C7.92669 6.24718 8.72134 5.72643 9.84691 5.29C10.6915 4.95908 11.9618 4.57239 14.3019 4.46093C16.8318 4.34937 17.5874 4.3209 23.997 4.3209C30.4126 4.3209 31.1622 4.34937 33.6922 4.46093C36.0323 4.57239 37.3085 4.95908 38.153 5.29C39.2727 5.72643 40.0733 6.24718 40.9084 7.08569C41.7528 7.92544 42.2735 8.72134 42.71 9.83979C43.035 10.6915 43.4264 11.9618 43.5331 14.3019C43.6505 16.8318 43.679 17.5874 43.679 24.003C43.679 30.4055 43.6505 31.1669 43.5331 33.6969ZM47.8541 14.105C47.7367 11.5478 47.3334 9.80065 46.7344 8.27895C46.1248 6.70024 45.3075 5.36233 43.9696 4.02441C42.6377 2.69246 41.2998 1.87521 39.7211 1.25848C38.1934 0.665401 36.4521 0.257355 33.8937 0.145893C31.3353 0.0225067 30.5182 0 23.997 0C17.4818 0 16.6587 0.0225067 14.1003 0.145893C11.5478 0.257355 9.80777 0.665401 8.27299 1.25848C6.70024 1.87521 5.36232 2.69246 4.03037 4.02441C2.69246 5.36233 1.87521 6.70024 1.25963 8.27895C0.666554 9.80065 0.263312 11.5478 0.139929 14.105C0.0284662 16.6634 0 17.4818 0 24.003C0 30.5182 0.0284662 31.3353 0.139929 33.8937C0.263312 36.4463 0.666554 38.1921 1.25963 39.721C1.87521 41.2938 2.69246 42.6377 4.03037 43.9696C5.36232 45.3016 6.70024 46.1248 8.27299 46.7404C9.80777 47.3334 11.5478 47.7367 14.1003 47.8541C16.6587 47.9715 17.4818 48 23.997 48C30.5182 48 31.3353 47.9715 33.8937 47.8541C36.4521 47.7367 38.1934 47.3334 39.7211 46.7404C41.2998 46.1248 42.6377 45.3016 43.9696 43.9696C45.3075 42.6377 46.1248 41.2938 46.7344 39.721C47.3334 38.1921 47.7367 36.4463 47.8541 33.8937C47.9715 31.3353 48 30.5182 48 24.003C48 17.4818 47.9715 16.6634 47.8541 14.105Z" fill="url(#paint1_linear_317_10384)"/>
<path d="M23.9972 31.9964C19.5813 31.9964 15.9982 28.4191 15.9982 24.0032C15.9982 19.5803 19.5813 15.9984 23.9972 15.9984C28.4142 15.9984 32.0021 19.5803 32.0021 24.0032C32.0021 28.4191 28.4142 31.9964 23.9972 31.9964ZM23.9972 11.6715C17.1902 11.6715 11.6772 17.1963 11.6772 24.0032C11.6772 30.8044 17.1902 36.3232 23.9972 36.3232C30.8041 36.3232 36.323 30.8044 36.323 24.0032C36.323 17.1963 30.8041 11.6715 23.9972 11.6715Z" fill="url(#paint2_linear_317_10384)"/>
<defs>
<linearGradient id="paint0_linear_317_10384" x1="0.432776" y1="47.504" x2="44.0019" y2="3.93504" gradientUnits="userSpaceOnUse">
<stop stop-color="#F3DE8B"/>
<stop offset="1" stop-color="#B2872E"/>
</linearGradient>
<linearGradient id="paint1_linear_317_10384" x1="0.432953" y1="47.5635" x2="44.0379" y2="3.95858" gradientUnits="userSpaceOnUse">
<stop stop-color="#F3DE8B"/>
<stop offset="1" stop-color="#B2872E"/>
</linearGradient>
<linearGradient id="paint2_linear_317_10384" x1="11.6772" y1="23.9974" x2="36.323" y2="23.9974" gradientUnits="userSpaceOnUse">
<stop stop-color="#F3DE8B"/>
<stop offset="1" stop-color="#B2872E"/>
</linearGradient>
</defs>
</svg>
