<svg width="36" height="36" viewBox="0 0 36 36" fill="none" xmlns="http://www.w3.org/2000/svg">
<g clip-path="url(#clip0_317_10391)">
<path d="M0 31.5C0 32.6935 0.474106 33.8381 1.31802 34.682C2.16193 35.5259 3.30653 36 4.5 36H31.5C32.6935 36 33.8381 35.5259 34.682 34.682C35.5259 33.8381 36 32.6935 36 31.5V4.5C36 3.30653 35.5259 2.16193 34.682 1.31802C33.8381 0.474106 32.6935 0 31.5 0L4.5 0C3.30653 0 2.16193 0.474106 1.31802 1.31802C0.474106 2.16193 0 3.30653 0 4.5L0 31.5ZM10.125 16.875H23.1593L18.3285 12.0465C18.1173 11.8353 17.9986 11.5487 17.9986 11.25C17.9986 10.9513 18.1173 10.6647 18.3285 10.4535C18.5397 10.2423 18.8263 10.1236 19.125 10.1236C19.4237 10.1236 19.7103 10.2423 19.9215 10.4535L26.6715 17.2035C26.7763 17.308 26.8594 17.4321 26.9161 17.5688C26.9728 17.7055 27.002 17.852 27.002 18C27.002 18.148 26.9728 18.2945 26.9161 18.4312C26.8594 18.5679 26.7763 18.692 26.6715 18.7965L19.9215 25.5465C19.7103 25.7577 19.4237 25.8764 19.125 25.8764C18.8263 25.8764 18.5397 25.7577 18.3285 25.5465C18.1173 25.3353 17.9986 25.0487 17.9986 24.75C17.9986 24.4513 18.1173 24.1647 18.3285 23.9535L23.1593 19.125H10.125C9.82663 19.125 9.54048 19.0065 9.3295 18.7955C9.11853 18.5845 9 18.2984 9 18C9 17.7016 9.11853 17.4155 9.3295 17.2045C9.54048 16.9935 9.82663 16.875 10.125 16.875Z" fill="url(#paint0_linear_317_10391)" fill-opacity="0.8"/>
</g>
<defs>
<linearGradient id="paint0_linear_317_10391" x1="-16.4078" y1="-16.4168" x2="47.255" y2="47.2614" gradientUnits="userSpaceOnUse">
<stop stop-color="#F3DE8B"/>
<stop offset="1" stop-color="#B2872E"/>
</linearGradient>
<clipPath id="clip0_317_10391">
<rect width="36" height="36" rx="10" fill="white"/>
</clipPath>
</defs>
</svg>
