<svg width="110" height="20" viewBox="0 0 110 20" fill="none" xmlns="http://www.w3.org/2000/svg">
<path d="M9.89998 12.8549C9.89998 12.5187 9.83244 12.1858 9.70122 11.8753C9.57 11.5647 9.37767 11.2825 9.13521 11.0448C8.89275 10.8071 8.6049 10.6185 8.28811 10.4899C7.97132 10.3613 7.63178 10.295 7.28889 10.295V10.3007C7.24359 10.3007 7.19756 10.2957 7.15226 10.2957H0C0 10.2957 5.2797 11.0712 9.89926 17.1546V13.3131L9.89998 12.8549Z" fill="white"/>
<path d="M13.1353 10.2936C12.4427 10.2936 11.7786 10.5633 11.2889 11.0434C10.7993 11.5234 10.5242 12.1746 10.5242 12.8535H10.5299C10.5299 12.8979 10.5249 12.943 10.5249 12.9874V20C10.5249 20 11.3159 14.8232 17.5204 10.2943H13.1338L13.1353 10.2936Z" fill="white"/>
<path d="M10.5242 7.14442C10.5242 7.82333 10.7993 8.47443 11.2889 8.95449C11.7786 9.43456 12.4427 9.70425 13.1353 9.70425V9.69861C13.1806 9.69861 13.2266 9.70355 13.2719 9.70355H20.4249C20.4249 9.70355 15.1444 8.92805 10.5249 2.84536V6.68687L10.5242 7.14442Z" fill="white"/>
<path d="M7.2889 9.70637C7.63185 9.70637 7.97144 9.64014 8.28828 9.51145C8.60512 9.38276 8.89299 9.19414 9.13547 8.95636C9.37794 8.71859 9.57025 8.43631 9.70143 8.12565C9.83261 7.815 9.90007 7.48205 9.89998 7.14583H9.89423C9.89783 7.10142 9.89926 7.057 9.89926 7.01188V0C9.89926 0 9.10824 5.17607 2.90377 9.70496H6.82219L7.2889 9.70637Z" fill="white"/>
<path d="M30.9469 14.2945H28.494C28.7363 14.083 28.8205 13.7615 28.8205 13.1573V6.79756C28.8205 6.19338 28.7363 5.87331 28.494 5.6604H30.9469C30.7053 5.8719 30.6089 6.19338 30.6089 6.79756V13.1573C30.6089 13.7594 30.7053 14.0816 30.9469 14.2945Z" fill="white"/>
<path d="M42.7992 14.2945H40.3471C40.5887 14.083 40.6728 13.7615 40.6728 13.1573V6.79756C40.6728 6.19338 40.5887 5.87331 40.3471 5.6604H42.7992C42.5576 5.8719 42.4613 6.19338 42.4613 6.79756V13.1573C42.4613 13.7594 42.5576 14.0816 42.7992 14.2945Z" fill="white"/>
<path d="M45.9655 9.90025C45.9532 12.6497 46.9801 13.8919 48.4176 13.8919C49.0087 13.8919 49.451 13.7749 49.8976 13.4802C49.9409 13.4504 49.9762 13.4107 50.0004 13.3645C50.0246 13.3183 50.0369 13.2671 50.0363 13.2151V11.4047C50.0363 10.6941 49.8551 10.3472 49.5891 10.1611H52.1059C51.8399 10.3507 51.6587 10.6941 51.6587 11.4047V13.4302C50.8978 13.9511 49.6416 14.3657 48.3968 14.3657C45.4369 14.3657 43.9635 12.269 43.9635 9.92422C43.9635 7.64991 45.4858 5.5892 48.578 5.5892C49.5207 5.5892 50.6922 5.89729 51.1668 6.21736L50.8835 7.15288H50.8712C50.557 6.59594 49.6754 6.06296 48.7448 6.06296C47.1132 6.06296 45.9655 7.27344 45.9655 9.90025Z" fill="white"/>
<path d="M63.3514 14.2945H60.8992C61.1408 14.083 61.2257 13.7615 61.2257 13.1573V6.79756C61.2257 6.19338 61.1408 5.87331 60.8992 5.6604H63.3514C63.1097 5.8719 63.0134 6.19338 63.0134 6.79756V13.1573C63.0134 13.7594 63.1083 14.0816 63.3514 14.2945Z" fill="white"/>
<path d="M74.9981 10.0307C74.9981 12.6011 73.283 14.2825 70.4799 14.2825H67.3992C67.6409 14.071 67.7502 13.7495 67.7502 13.1453V6.80038C67.7502 6.1962 67.6409 5.87613 67.3992 5.66322H70.4799C73.2952 5.6604 74.9981 7.30656 74.9981 10.0307ZM72.9932 10.0307C72.9932 7.27131 71.9541 6.11019 70.444 6.11019H69.5379V13.8299H70.4432C71.9296 13.8299 72.9932 12.7075 72.9932 10.0307Z" fill="white"/>
<path d="M82.648 13.6184L82.9255 12.7181H82.9378C83.4814 13.4294 84.5565 13.9032 85.692 13.9032C86.7706 13.9032 87.4178 13.4527 87.4178 12.6476C87.4178 10.551 82.9838 10.847 82.9838 8.05174C82.9838 6.48877 84.3127 5.58849 86.0163 5.58849C87.0309 5.58849 88.2146 5.91984 88.8208 6.33437L88.5065 7.24664H88.4929C87.9492 6.47678 87.0547 6.04815 86.0285 6.04815C84.9772 6.04815 84.3609 6.50992 84.3609 7.26849C84.3609 9.23402 88.8913 8.92594 88.8913 11.8636C88.8913 13.3914 87.6688 14.3629 85.6898 14.3629C84.5809 14.3657 83.2757 14.0576 82.648 13.6184Z" fill="white"/>
<path d="M92.4947 14.2945H90.0418C90.2835 14.083 90.3683 13.7615 90.3683 13.1573V6.79756C90.3683 6.19338 90.2835 5.87331 90.0418 5.6604H92.4947C92.2531 5.8719 92.156 6.19338 92.156 6.79756V13.1573C92.156 13.7594 92.2531 14.0816 92.4947 14.2945Z" fill="white"/>
<path d="M95.6602 9.90025C95.648 12.6497 96.6749 13.8919 98.1124 13.8919C98.7646 13.8919 99.2364 13.7509 99.7311 13.3829V11.4047C99.7311 10.6941 99.5499 10.3472 99.2846 10.1611H101.796C101.53 10.3507 101.35 10.6941 101.35 11.4047V13.4302C100.588 13.9511 99.332 14.3657 98.0872 14.3657C95.1274 14.3657 93.6539 12.269 93.6539 9.92422C93.6539 7.64991 95.1763 5.5892 98.2692 5.5892C99.2112 5.5892 100.383 5.89729 100.858 6.21736L100.574 7.15288H100.562C100.248 6.59594 99.3658 6.06296 98.436 6.06296C96.8079 6.06296 95.6602 7.27344 95.6602 9.90025Z" fill="white"/>
<path d="M39.0182 12.9733L36.5171 8.9344L39.2339 5.66604H37.508L37.544 5.68719C37.7705 5.85357 37.782 6.15954 37.59 6.38373L34.5568 9.9792V6.80672C34.5568 6.20325 34.6539 5.88318 34.8955 5.67027H32.4455C32.6878 5.88177 32.772 6.20325 32.772 6.80672V13.1552C32.772 13.7594 32.6878 14.0795 32.4455 14.2924H34.8984C34.6568 14.0809 34.5597 13.7594 34.5597 13.1552V11.2919L35.3938 10.2852L37.8676 14.2881H40.0781C39.6704 14.0752 39.2713 13.3759 39.0182 12.9733Z" fill="white"/>
<path d="M57.733 14.2825H60.3038C59.9047 14.0336 59.8321 13.6903 59.712 13.2997L57.1167 5.65194H55.27L52.6812 13.3152C52.5374 13.7382 52.5 14.0611 52.1254 14.286H53.7441C53.4421 14.0964 53.5025 13.8242 53.6722 13.3152L54.1432 11.9172H57.3554L57.815 13.3272C57.9746 13.8207 58.035 14.0928 57.733 14.2825ZM55.7784 7.04642L57.0851 11.0578H54.4323L55.7784 7.04642Z" fill="white"/>
<path d="M82.0065 13.1517C81.8009 13.4478 81.2572 13.6015 80.6539 13.6015H78.2859V10.0011H80.0376C80.5568 10.0011 80.9192 10.0835 81.1364 10.2732V9.07117C80.9207 9.26081 80.5568 9.344 80.0376 9.344H78.2859V6.34142H80.5827C81.1867 6.34142 81.7182 6.49511 81.9353 6.79121H81.9475V5.66322H76.1731C76.4147 5.87472 76.4989 6.1962 76.4989 6.80038V13.1453C76.4989 13.7495 76.4147 14.0696 76.1731 14.2825H82.0317V13.1545L82.0065 13.1517Z" fill="white"/>
<path d="M108.595 5.6604C108.748 5.79505 108.838 5.97412 108.883 6.23991V6.25119C108.91 6.43207 108.922 6.61477 108.919 6.79756V11.5915L103.826 5.65758H102.715C102.957 5.86908 103.041 6.19056 103.041 6.79474V13.1397C103.041 13.7439 102.957 14.0639 102.715 14.2768H104.134C103.893 14.0653 103.796 13.7439 103.796 13.1397V8.14833L108.925 14.2768H109.674V6.79756C109.674 6.19338 109.758 5.87331 110 5.6604H108.595Z" fill="white"/>
</svg>
