<svg width="149" height="42" viewBox="0 0 149 42" fill="none" xmlns="http://www.w3.org/2000/svg">
<path d="M7.6262 0.145603C4.59375 1.41415 1.25925 4.9942 0.206773 9.49715C-1.12853 15.1976 4.42299 17.6049 4.87658 16.8195C5.4103 15.8879 3.87862 15.5752 3.56585 12.6195C3.16342 8.79729 4.93638 4.52691 7.17366 2.65309C7.59098 2.31057 7.57072 2.79394 7.57072 3.685C7.57072 5.29199 7.48106 19.6696 7.48106 22.6712C7.48106 26.7346 7.31455 28.014 7.00714 29.2774C6.70502 30.5622 6.21621 31.4286 6.58446 31.7658C7.00178 32.1382 8.77474 31.2515 9.80264 29.8173C11.0323 28.0993 11.4656 26.0346 11.5457 23.7937C11.6364 21.0951 11.6311 16.8045 11.6364 14.362C11.6364 12.1158 11.6716 5.54913 11.6011 1.59566C11.5809 0.628982 8.89106 -0.383713 7.6262 0.145603ZM147.436 21.4773C147.003 21.4773 146.797 21.9307 146.63 22.6916C146.056 25.3454 145.452 25.944 144.671 25.944C143.8 25.944 143.018 24.6304 142.812 22.0012C142.656 19.9364 142.681 16.1291 142.883 12.3421C142.923 11.5664 142.711 10.797 140.625 10.0362C139.724 9.71395 138.419 9.23057 137.77 10.8013C135.931 15.2286 135.216 18.7531 135.044 20.1786C135.04 20.2533 134.949 20.264 134.933 20.0932C134.828 18.9494 134.586 16.8696 134.556 12.4979C134.545 11.6528 134.369 10.9218 133.422 10.3275C132.813 9.94548 130.959 9.26042 130.289 10.0714C129.714 10.7362 129.045 12.5192 128.345 14.6342C127.78 16.3564 127.387 17.5248 127.387 17.5248C127.387 17.5248 127.391 12.881 127.402 11.1182C127.402 10.4534 126.949 10.2325 126.813 10.192C126.193 10.0106 124.969 9.71395 124.455 9.71395C123.816 9.71395 123.664 10.0714 123.664 10.59C123.664 10.6551 123.559 16.6979 123.559 20.9235V21.5178C123.211 23.462 122.063 26.1008 120.819 26.1008C119.574 26.1008 118.985 24.9975 118.985 19.962C118.985 17.0255 119.076 15.7472 119.116 13.6216C119.141 12.3976 119.191 11.4564 119.187 11.2399C119.176 10.59 118.042 10.2571 117.518 10.1365C116.99 10.0106 116.531 9.97005 116.169 9.98501C115.665 10.0159 115.308 10.3478 115.308 10.812V11.5162C114.658 10.4897 113.604 9.77373 112.9 9.56774C111.016 9.00865 109.045 9.50691 107.56 11.5813C106.381 13.2342 105.67 15.1016 105.394 17.7863C105.187 19.7507 105.253 21.7398 105.62 23.4214C105.177 25.3197 104.361 26.1008 103.469 26.1008C102.169 26.1008 101.233 23.9848 101.339 20.3237C101.415 17.9176 101.893 16.2305 102.421 13.7827C102.649 12.7401 102.462 12.197 102.004 11.6677C101.585 11.1939 100.689 10.9474 99.4047 11.2441C98.4921 11.4608 97.1781 11.6923 95.9837 11.8694C95.9837 11.8694 96.0541 11.5813 96.115 11.0734C96.4224 8.40891 93.5256 8.62555 92.6033 9.47706C92.0494 9.98501 91.6715 10.5847 91.5306 11.6624C91.3043 13.3751 92.6994 14.1806 92.6994 14.1806C92.2415 16.2753 91.1228 19.0144 89.9594 20.9939C89.3392 22.0567 88.8653 22.8378 88.2516 23.6733C88.246 23.366 88.246 23.0533 88.246 22.747C88.2353 18.3401 88.2908 14.8711 88.3164 13.6216C88.342 12.3976 88.3922 11.481 88.3922 11.2644C88.3816 10.7906 88.1051 10.6049 87.5201 10.383C87.0067 10.1824 86.3973 10.0362 85.7675 9.98501C84.9766 9.92523 84.493 10.3478 84.508 10.8461V11.5162C83.8536 10.4897 82.8001 9.77373 82.1052 9.56774C80.216 9.00865 78.2466 9.50691 76.7608 11.5813C75.5868 13.2342 74.8107 15.5455 74.5887 17.7607C74.388 19.8361 74.4232 21.5882 74.705 23.0693C74.403 24.5493 73.5416 26.1008 72.5649 26.1008C71.3203 26.1008 70.6095 24.9975 70.6095 19.962C70.6095 17.0255 70.7002 15.7472 70.7461 13.6216C70.7707 12.3976 70.8166 11.4564 70.8112 11.2399C70.8058 10.59 69.6734 10.2571 69.144 10.1365C68.5953 10.0063 68.1161 9.9658 67.7531 9.98501C67.2696 10.0255 66.9323 10.4534 66.9323 10.781V11.5162C66.278 10.4897 65.2245 9.77373 64.5243 9.56774C62.6404 9.00865 60.6859 9.51764 59.1895 11.5813C58.2128 12.9269 57.4219 14.4219 57.0142 17.7361C56.9031 18.6933 56.8476 19.5886 56.8529 20.4251C56.4644 22.8014 54.747 25.5417 53.3466 25.5417C52.5204 25.5417 51.7348 23.9496 51.7348 20.551C51.7348 16.0289 52.0166 9.5827 52.0668 8.95847C52.0668 8.95847 53.8397 8.9275 54.1877 8.92326C55.0693 8.9179 55.8752 8.93822 57.0494 8.8774C57.6439 8.84755 58.2128 6.72724 57.598 6.4605C57.3258 6.34414 55.3714 6.2385 54.5954 6.22362C53.9411 6.20865 52.1319 6.07316 52.1319 6.07316C52.1319 6.07316 52.2942 1.79742 52.3294 1.34925C52.3592 0.966147 51.8757 0.775196 51.5939 0.658833C50.9129 0.367525 50.3035 0.230995 49.5883 0.0847804C48.5861 -0.121136 48.1377 0.0805389 48.0523 0.92029C47.921 2.1954 47.8506 5.93231 47.8506 5.93231C47.1151 5.93231 44.6218 5.78505 43.8905 5.78505C43.2117 5.78505 42.4752 8.70662 43.4177 8.74183C44.5011 8.78241 46.3797 8.82298 47.6286 8.85707C47.6286 8.85707 47.573 15.4099 47.573 17.4288V18.053C46.8835 21.633 44.4701 23.5676 44.4701 23.5676C44.9889 21.1956 43.9311 19.4178 42.0173 17.9176C41.3118 17.3584 39.922 16.3052 38.3647 15.1624C38.3647 15.1624 39.2666 14.2714 40.0672 12.4883C40.6319 11.2239 40.6575 9.76941 39.2666 9.45145C36.9696 8.92326 35.0803 10.6103 34.5114 12.4126C34.0781 13.8029 34.3054 14.8401 35.1657 15.9125L35.3621 16.1547C34.8487 17.1514 34.1335 18.4958 33.5337 19.5384C31.8568 22.4344 30.5919 24.7211 29.6398 24.7211C28.8745 24.7211 28.8841 22.3992 28.8841 20.2234C28.8841 18.3497 29.025 15.5251 29.1361 12.6046C29.1713 11.6421 28.6878 11.0883 27.8776 10.59C27.3834 10.288 26.3352 9.6937 25.7258 9.6937C24.8195 9.6937 22.1894 9.81423 19.7067 16.9902C19.3939 17.8972 18.7791 19.5438 18.7791 19.5438L18.8347 10.9122C18.8347 10.7106 18.729 10.5196 18.4824 10.383C18.064 10.1568 16.9411 9.6937 15.9538 9.6937C15.4745 9.6937 15.2375 9.91563 15.2375 10.3531L15.1575 23.8494C15.1575 24.8769 15.182 26.0752 15.2835 26.5992C15.3838 27.123 15.5503 27.551 15.752 27.8071C15.9538 28.0546 16.1897 28.2456 16.5728 28.331C16.9304 28.4067 18.8998 28.6532 19.0012 27.9031C19.1271 27.0014 19.1314 26.0304 20.1646 22.3896C21.7764 16.7288 23.8727 13.9694 24.86 12.9866C25.0362 12.8159 25.2326 12.8053 25.2219 13.088C25.1771 14.3311 25.0309 17.4288 24.9305 20.0624C24.6637 27.1178 25.9424 28.4217 27.7815 28.4217C29.1819 28.4217 31.1566 27.027 33.2775 23.5025C34.6022 21.3012 35.8819 19.1511 36.8085 17.5953C37.4435 18.1885 38.1683 18.8288 38.8888 19.5138C40.5667 21.0995 41.1154 22.6105 40.7482 24.0414C40.4706 25.1383 39.4182 26.2663 37.5492 25.1693C37.0048 24.8513 36.7732 24.6048 36.2246 24.242C35.9321 24.0457 35.4784 23.9902 35.2116 24.1919C34.5061 24.7211 34.1079 25.3902 33.8763 26.2214C33.6596 27.0324 34.4709 27.4549 35.3119 27.8273C36.0324 28.155 37.5844 28.4419 38.5761 28.4771C42.44 28.6084 45.5333 26.6141 47.6841 21.4773C48.0726 25.9141 49.7089 28.427 52.5556 28.427C54.4641 28.427 56.3737 25.9642 57.2105 23.542C57.4465 24.529 57.804 25.3848 58.263 26.1158C60.4597 29.5901 64.7207 28.8453 66.8565 25.8938C67.5215 24.9772 67.623 24.6497 67.623 24.6497C67.9346 27.4357 70.1815 28.4163 71.4666 28.4163C72.9118 28.4163 74.3934 27.7324 75.4351 25.3848C75.5611 25.642 75.6924 25.8842 75.844 26.1158C78.0353 29.5901 82.2963 28.8453 84.4376 25.8938C84.5336 25.7477 84.6243 25.6271 84.699 25.5108L84.7652 27.3439C84.7652 27.3439 83.5409 28.4623 82.7906 29.1516C79.4912 32.1788 76.9819 34.4751 76.7961 37.1439C76.5645 40.5532 79.3247 41.8176 81.4201 41.983C83.637 42.1601 85.5413 40.9362 86.7089 39.2139C87.7368 37.703 88.4125 34.4549 88.3624 31.2419C88.3421 29.9529 88.3111 28.3214 88.2812 26.564C89.4447 25.2247 90.7544 23.5217 91.9541 21.5285C93.2681 19.3623 94.6685 16.446 95.3836 14.1754C95.3836 14.1754 96.608 14.186 97.908 14.1049C98.3264 14.0793 98.4471 14.1658 98.366 14.4677C98.2752 14.8348 96.7243 20.8231 98.1396 24.8118C99.1121 27.5403 101.293 28.4217 102.593 28.4217C104.108 28.4217 105.56 27.2735 106.335 25.5716C106.431 25.7583 106.527 25.944 106.638 26.1158C108.83 29.5901 113.076 28.84 115.232 25.8938C115.721 25.2247 115.993 24.6497 115.993 24.6497C116.456 27.536 118.703 28.427 119.987 28.427C121.332 28.427 122.601 27.8785 123.634 25.4403C123.675 26.5138 123.74 27.3899 123.851 27.6662C123.916 27.838 124.299 28.0493 124.571 28.1549C125.8 28.6084 127.05 28.3918 127.508 28.2958C127.83 28.2307 128.082 27.9789 128.113 27.3141C128.203 25.5716 128.147 22.6457 128.677 20.4657C129.568 16.8195 130.394 15.4046 130.787 14.7046C131.005 14.3109 131.255 14.2458 131.261 14.6587C131.276 15.4995 131.322 17.9677 131.669 21.2916C131.916 23.7288 132.253 25.1735 132.515 25.6324C133.25 26.9363 134.167 26.9972 134.908 26.9972C135.382 26.9972 136.369 26.8659 136.283 26.0346C136.238 25.6324 136.314 23.1291 137.185 19.5342C137.759 17.1823 138.711 15.0621 139.054 14.2863C139.185 13.9993 139.241 14.2212 139.241 14.266C139.165 15.8826 139.004 21.1752 139.658 24.0659C140.556 27.9895 143.139 28.427 144.041 28.427C145.96 28.427 147.537 26.9662 148.066 23.1195C148.197 22.1922 148.005 21.4773 147.436 21.4773ZM66.8917 19.1008C66.7861 21.1347 66.3879 22.8377 65.7538 24.0712C64.5947 26.312 62.3137 27.0173 61.3104 23.7895C60.5803 21.458 60.8268 18.2749 61.1342 16.557C61.5772 14.0088 62.7011 12.2066 64.4538 12.3719C66.247 12.5491 67.1233 14.8603 66.8917 19.1008ZM84.4676 19.1307C84.3672 21.0493 83.8688 22.9828 83.3244 24.0712C82.2015 26.327 79.8532 27.0323 78.8808 23.7895C78.2169 21.5679 78.3727 18.7028 78.7047 16.8995C79.1338 14.553 80.1659 12.3719 82.0254 12.3719C83.8335 12.3719 84.7248 14.3566 84.4676 19.1307ZM84.9265 32.2438C84.9009 35.7545 84.3523 38.8265 83.1728 39.7228C81.4906 40.9916 79.2288 40.0345 79.6974 37.4767C80.1105 35.2103 82.0702 32.899 84.9319 30.0734C84.9319 30.0734 84.9415 30.7179 84.9263 32.2438H84.9265ZM115.272 19.151C115.171 21.2616 114.702 22.9081 114.124 24.0712C113 26.327 110.673 27.0269 109.68 23.7895C109.141 22.0214 109.116 19.0699 109.504 16.6082C109.897 14.0995 111.001 12.2066 112.824 12.3719C114.627 12.5437 115.469 14.8603 115.272 19.151Z" fill="#151D53"/>
</svg>
