<svg width="18" height="18" viewBox="0 0 18 18" fill="none" xmlns="http://www.w3.org/2000/svg">
<path d="M17.6906 5.4C17.6625 4.5 17.4937 3.85313 17.2969 3.2625C17.1 2.67188 16.7906 2.19375 16.3125 1.71562C15.8344 1.2375 15.3562 0.95625 14.7937 0.73125C14.2312 0.50625 13.6125 0.365625 12.6562 0.3375C11.6719 0.28125 11.3906 0.28125 9 0.28125C6.60938 0.28125 6.35625 0.28125 5.4 0.309375C4.44375 0.3375 3.85313 0.50625 3.2625 0.703125C2.67188 0.9 2.19375 1.2375 1.71562 1.71562C1.2375 2.19375 0.928125 2.67188 0.73125 3.2625C0.50625 3.825 0.365625 4.44375 0.3375 5.4C0.309375 6.35625 0.28125 6.60938 0.28125 9C0.28125 11.3906 0.28125 11.6438 0.309375 12.6C0.3375 13.5562 0.50625 14.1469 0.703125 14.7375C0.9 15.3281 1.20937 15.8063 1.6875 16.2844C2.16562 16.7625 2.67188 17.0719 3.23438 17.2688C3.79688 17.4656 4.41563 17.6344 5.37188 17.6625C6.32812 17.7188 6.58125 17.7188 8.97188 17.7188C11.3625 17.7188 11.6156 17.7188 12.5719 17.6906C13.5281 17.6625 14.1187 17.4937 14.7094 17.2969C15.3 17.1 15.7781 16.7906 16.2562 16.3125C16.7344 15.8344 17.0437 15.3281 17.2406 14.7656C17.4375 14.2031 17.6063 13.5844 17.6344 12.6281C17.6625 11.7281 17.6625 11.4469 17.6625 9.05625C17.6625 6.66563 17.7188 6.35625 17.6906 5.4ZM16.1156 12.5156C16.0875 13.3594 15.9187 13.8094 15.8063 14.1469C15.6375 14.5406 15.4406 14.85 15.1312 15.1312C14.8219 15.4406 14.5406 15.6094 14.1469 15.8063C13.8375 15.9187 13.3875 16.0875 12.5156 16.1156C11.6156 16.1156 11.3344 16.1156 9.02812 16.1156C6.72187 16.1156 6.4125 16.1156 5.5125 16.0875C4.66875 16.0594 4.21875 15.8906 3.88125 15.7781C3.4875 15.6094 3.17813 15.4125 2.89688 15.1031C2.5875 14.7937 2.41875 14.5125 2.22188 14.1188C2.10938 13.8094 1.94063 13.3594 1.9125 12.4875C1.9125 11.6156 1.9125 11.3344 1.9125 9C1.9125 6.66563 1.9125 6.38438 1.94063 5.48438C1.96875 4.64062 2.1375 4.19062 2.25 3.85312C2.41875 3.45937 2.61563 3.15 2.89688 2.86875C3.20625 2.55938 3.4875 2.39062 3.88125 2.22188C4.19062 2.10938 4.64062 1.94063 5.5125 1.9125C6.4125 1.88438 6.69375 1.88437 9.02812 1.88437C11.3625 1.88437 11.6437 1.88438 12.5437 1.9125C13.3875 1.94063 13.8375 2.10938 14.175 2.22188C14.5688 2.39062 14.8781 2.5875 15.1594 2.86875C15.4688 3.17812 15.6375 3.45937 15.8344 3.85312C15.9469 4.1625 16.1156 4.6125 16.1438 5.48438C16.1719 6.38438 16.1719 6.66563 16.1719 9C16.1719 11.3344 16.1438 11.6156 16.1156 12.5156Z" fill="#FDFBFE"/>
<path d="M9.0002 4.52832C6.49707 4.52832 4.52832 6.55332 4.52832 9.0002C4.52832 11.5033 6.55332 13.4721 9.0002 13.4721C11.4471 13.4721 13.5002 11.5033 13.5002 9.0002C13.5002 6.49707 11.5033 4.52832 9.0002 4.52832ZM9.0002 11.9252C7.36895 11.9252 6.0752 10.6033 6.0752 9.0002C6.0752 7.39707 7.39707 6.0752 9.0002 6.0752C10.6314 6.0752 11.9252 7.36895 11.9252 9.0002C11.9252 10.6314 10.6314 11.9252 9.0002 11.9252Z" fill="#FDFBFE"/>
<path d="M13.6969 5.37227C14.2716 5.37227 14.7375 4.90636 14.7375 4.33164C14.7375 3.75692 14.2716 3.29102 13.6969 3.29102C13.1222 3.29102 12.6562 3.75692 12.6562 4.33164C12.6562 4.90636 13.1222 5.37227 13.6969 5.37227Z" fill="#FDFBFE"/>
</svg>
