<svg width="16" height="16" viewBox="0 0 16 16" fill="none" xmlns="http://www.w3.org/2000/svg">
<g clip-path="url(#clip0_1874_1888)">
<path d="M8 0.399902C8.82199 0.399902 9.61106 0.726011 10.1924 1.30713C10.7737 1.8884 11.0995 2.67748 11.0996 3.49951C11.0996 3.83088 10.8314 4.09912 10.5 4.09912C10.1688 4.09891 9.90039 3.83075 9.90039 3.49951C9.90029 2.99574 9.69998 2.51199 9.34375 2.15576C8.98747 1.79969 8.50373 1.59912 8 1.59912C7.49623 1.59922 7.01248 1.79953 6.65625 2.15576C6.30002 2.51199 6.09971 2.99574 6.09961 3.49951V5.8999H11.5C12.6597 5.8999 13.5994 6.83989 13.5996 7.99951V13.4995C13.5996 14.6593 12.6598 15.5991 11.5 15.5991H4.5C3.34038 15.5989 2.40039 14.6592 2.40039 13.4995V7.99951C2.4006 6.84002 3.34051 5.90011 4.5 5.8999H4.90039V3.49951C4.90049 2.67748 5.22635 1.8884 5.80762 1.30713C6.38889 0.725858 7.17797 0.400006 8 0.399902ZM4.5 7.09912C4.00325 7.09933 3.59982 7.50276 3.59961 7.99951V13.4995C3.59961 13.9964 4.00312 14.3997 4.5 14.3999H11.5C11.9971 14.3999 12.4004 13.9966 12.4004 13.4995V7.99951C12.4002 7.50263 11.9969 7.09912 11.5 7.09912H4.5Z" fill="white"/>
</g>
<defs>
<clipPath id="clip0_1874_1888">
<rect width="16" height="16" fill="white"/>
</clipPath>
</defs>
</svg>
