<svg width="16" height="16" viewBox="0 0 16 16" fill="none" xmlns="http://www.w3.org/2000/svg">
<g clip-path="url(#clip0_386_13712)">
<path opacity="0.5" d="M9.33325 11.9998V3.99984C9.33325 3.64622 9.19278 3.30708 8.94273 3.05703C8.69268 2.80698 8.35354 2.6665 7.99992 2.6665H2.66659C2.31296 2.6665 1.97382 2.80698 1.72378 3.05703C1.47373 3.30708 1.33325 3.64622 1.33325 3.99984V11.3332C1.33325 11.51 1.40349 11.6796 1.52851 11.8046C1.65354 11.9296 1.82311 11.9998 1.99992 11.9998H3.33325" stroke="#502665" stroke-width="2" stroke-linecap="round" stroke-linejoin="round"/>
<path opacity="0.5" d="M10 12H6" stroke="#502665" stroke-width="2" stroke-linecap="round" stroke-linejoin="round"/>
<path opacity="0.5" d="M12.6666 12.0002H13.9999C14.1767 12.0002 14.3463 11.9299 14.4713 11.8049C14.5963 11.6799 14.6666 11.5103 14.6666 11.3335V8.90016C14.6663 8.74887 14.6146 8.60217 14.5199 8.48416L12.1999 5.58416C12.1376 5.50608 12.0585 5.44302 11.9685 5.39963C11.8784 5.35624 11.7798 5.33364 11.6799 5.3335H9.33325" stroke="#502665" stroke-width="2" stroke-linecap="round" stroke-linejoin="round"/>
<path opacity="0.5" d="M11.3333 13.3332C12.0697 13.3332 12.6667 12.7362 12.6667 11.9998C12.6667 11.2635 12.0697 10.6665 11.3333 10.6665C10.597 10.6665 10 11.2635 10 11.9998C10 12.7362 10.597 13.3332 11.3333 13.3332Z" stroke="#502665" stroke-width="2" stroke-linecap="round" stroke-linejoin="round"/>
<path opacity="0.5" d="M4.66659 13.3332C5.40297 13.3332 5.99992 12.7362 5.99992 11.9998C5.99992 11.2635 5.40297 10.6665 4.66659 10.6665C3.93021 10.6665 3.33325 11.2635 3.33325 11.9998C3.33325 12.7362 3.93021 13.3332 4.66659 13.3332Z" stroke="#502665" stroke-width="2" stroke-linecap="round" stroke-linejoin="round"/>
</g>
<defs>
<clipPath id="clip0_386_13712">
<rect width="16" height="16" fill="white"/>
</clipPath>
</defs>
</svg>
