<svg width="36" height="40" viewBox="0 0 36 40" fill="none" xmlns="http://www.w3.org/2000/svg">
<path fill-rule="evenodd" clip-rule="evenodd" d="M17.144 1.31295C15.7288 2.72515 15.6623 2.83892 16.002 3.26681C16.1329 3.43178 16.2507 3.48548 16.4816 3.48548C16.7515 3.48548 16.8651 3.40929 17.4387 2.84423L18.0896 2.20307V5.12996C18.0896 8.33668 18.1355 8.77419 18.5954 9.95095C18.8318 10.5556 18.8332 10.5694 18.6821 10.7808C18.3228 11.2838 17.5298 12.6382 17.1025 13.4786L16.642 14.3845L16.4863 14.0839C16.2385 13.6052 16.0796 12.8773 16.0796 12.2206C16.0796 11.561 16.2042 11.169 16.5391 10.7746C17.0616 10.1593 16.4537 9.33353 15.7521 9.70564C15.4996 9.8395 15.0084 10.6381 14.86 11.1559C14.5375 12.2816 14.8451 13.9608 15.6209 15.3099L15.9765 15.9283L15.6647 16.7433C14.3683 20.1308 13.3916 25.2291 13.5082 27.9998C13.5617 29.2715 13.6905 29.7986 14.2069 30.8598C14.8684 32.2191 15.9663 33.1049 17.3108 33.3639C17.8743 33.4725 18.3516 33.4236 18.504 33.2417C18.6902 33.0195 18.7031 32.5828 18.5298 32.3708C18.4029 32.2155 18.2486 32.1585 17.8147 32.1067C17.0984 32.0212 16.5593 31.7443 16.0301 31.19C15.2216 30.3427 14.8075 29.1368 14.8095 27.6349C14.8125 25.3372 15.5614 21.1944 16.4671 18.4647C16.9573 16.987 16.8296 17.0863 17.4828 17.6753C18.1238 18.2533 19.2194 19.0043 19.7799 19.25L20.1572 19.4154L20.2091 21.2222C20.2671 23.2417 20.4038 24.5644 20.7819 26.7635C21.1348 28.816 21.1068 29.438 20.6182 30.3929C20.4251 30.7703 20.267 31.1817 20.267 31.3072C20.267 31.8494 21.0051 32.0716 21.4007 31.6486C21.7187 31.3085 22.0858 30.511 22.2397 29.8256C22.4178 29.0324 22.3702 28.0159 22.0809 26.4315C21.7702 24.73 21.6108 23.2316 21.5511 21.4523L21.4981 19.8755L22.4529 19.8732C23.597 19.8703 24.1352 19.6979 24.7389 19.1408C25.1811 18.7329 25.2318 18.4732 24.936 18.1324C24.6786 17.8359 24.3115 17.835 23.921 18.1302C23.754 18.2564 23.4759 18.4097 23.3031 18.4708C22.9745 18.5871 22.1221 18.6236 21.7908 18.5357C21.6095 18.4876 21.601 18.4559 21.6512 18.0182C21.7947 16.7671 22.2124 14.4939 22.3213 14.3715C22.3345 14.3567 22.6596 14.4943 23.0439 14.6773C23.9287 15.0984 24.6074 15.2698 25.3877 15.2692C26.5771 15.2684 27.2536 14.9006 27.713 14.0054C27.9765 13.4918 27.9994 13.3873 27.9957 12.7191C27.9912 11.949 27.7298 10.944 27.393 10.4021C27.1876 10.0715 26.7998 9.9678 26.4992 10.163C26.1246 10.4061 26.1051 10.63 26.3921 11.39C26.7251 12.2716 26.7688 13.1381 26.4987 13.4999C25.9981 14.1706 24.8763 14.1261 23.4203 13.3777C23.1048 13.2155 22.8286 13.0361 22.8065 12.9789C22.7001 12.7042 23.9073 10.1641 24.8283 8.72465C26.0978 6.74075 28.0359 4.60855 30.2019 2.81295C30.8527 2.27344 31.4086 1.77162 31.4372 1.69768C31.5967 1.28564 31.2713 0.829876 30.8175 0.829876C30.3395 0.829876 27.3718 2.42573 25.7684 3.54498C23.8837 4.8605 22.0222 6.54755 20.5945 8.23394C20.1417 8.7688 19.7515 9.17486 19.7275 9.13627C19.7033 9.09768 19.627 8.82805 19.5579 8.53718C19.4586 8.12017 19.4317 7.39444 19.4308 5.10564L19.4296 2.20307L20.0805 2.84423C20.6541 3.40929 20.7677 3.48548 21.0375 3.48548C21.2684 3.48548 21.3863 3.43178 21.5172 3.26681C21.8568 2.83892 21.7903 2.72515 20.3752 1.31295C19.1645 0.10473 19.0356 0 18.7596 0C18.4835 0 18.3547 0.10473 17.144 1.31295ZM25.1681 5.96681C23.9747 7.39618 22.4778 9.89983 21.8511 11.5145C21.7403 11.7998 21.6245 12.0332 21.5936 12.0332C21.5179 12.0332 20.9392 11.3767 20.6483 10.9606L20.413 10.6242L20.7742 10.1461C21.4361 9.27013 22.3338 8.2668 23.2943 7.32963C24.2267 6.41992 25.6366 5.21012 25.6959 5.26888C25.7124 5.28531 25.4749 5.59934 25.1681 5.96681ZM19.8717 12.141C19.9876 12.2915 20.3261 12.6509 20.6241 12.9394L21.1658 13.4641L21.048 13.8483C20.8534 14.4829 20.4458 16.5942 20.3846 17.2845C20.3531 17.6395 20.2991 17.9471 20.2647 17.9682C20.0679 18.0888 17.8425 16.3195 17.5774 15.8318C17.5189 15.7241 17.634 15.414 18.0396 14.587C18.6045 13.435 19.5063 11.8672 19.604 11.8672C19.6353 11.8672 19.7558 11.9904 19.8717 12.141ZM0.276871 24.8476L0.0418741 25.0477L0.0164983 28.4783C0.00251233 30.365 0.0139858 32.0322 0.0420415 32.1831C0.0700971 32.3339 0.166324 32.53 0.255934 32.6188C0.473428 32.8343 0.952719 32.8319 1.17247 32.6141C1.33428 32.4538 1.33997 32.3375 1.33997 29.2116V25.9751H5.88749H10.435L10.3628 26.6598C10.2225 27.9914 10.4656 29.911 10.9409 31.2227C11.681 33.2659 12.9656 34.7822 14.7523 35.7216C15.7174 36.229 16.5028 36.4355 17.6757 36.4906C21.4233 36.6664 24.567 34.0874 25.3851 30.166C25.5418 29.4149 25.5073 27.7367 25.3157 26.7888L25.1531 25.9842L26.905 25.9589C28.6308 25.934 28.6594 25.9307 28.8169 25.7377C29.0397 25.4649 29.0208 25.0983 28.7713 24.851L28.5657 24.6473H26.3388H24.1118L23.9063 24.851C23.7933 24.9631 23.7007 25.1232 23.7007 25.2071C23.7007 25.2908 23.8021 25.8993 23.926 26.5593C24.3387 28.7573 24.2019 30.2364 23.4459 31.7496C22.6157 33.4112 21.0212 34.6863 19.2988 35.0661C18.3827 35.268 17.0107 35.2006 16.1772 34.9127C14.5833 34.3622 13.2891 33.1454 12.4827 31.4393C11.7665 29.9242 11.5608 28.5647 11.7258 26.4384L11.8348 25.0346L11.6076 24.8409L11.3804 24.6473H5.94612H0.511869L0.276871 24.8476ZM30.3549 24.851C30.1054 25.0983 30.0865 25.4649 30.3093 25.7377C30.4687 25.9329 30.4771 25.9337 32.5705 25.9584L34.6717 25.9832V32.3277V38.6722H18.0058H1.33997V36.6949C1.33997 34.7355 1.33821 34.7161 1.14618 34.5373C0.940743 34.3461 0.592351 34.3033 0.338259 34.4381C0.0476528 34.5922 0 34.9784 0 37.1784C0 39.3784 0.0476528 39.7646 0.338259 39.9188C0.43683 39.971 6.7542 40 18.0422 40C35.3135 40 35.5956 39.9974 35.7558 39.8387C35.8454 39.7499 35.9412 39.5539 35.9687 39.403C35.9963 39.2521 36.0078 35.9604 35.9944 32.0882L35.9698 25.0478L35.7348 24.8476L35.4998 24.6473H33.0302H30.5604L30.3549 24.851Z" fill="url(#paint0_linear_865_2678)"/>
<defs>
<linearGradient id="paint0_linear_865_2678" x1="18" y1="0" x2="18" y2="40" gradientUnits="userSpaceOnUse">
<stop stop-color="#B99E68"/>
<stop offset="1" stop-color="#DEC697"/>
</linearGradient>
</defs>
</svg>
