<svg width="39" height="40" viewBox="0 0 39 40" fill="none" xmlns="http://www.w3.org/2000/svg">
<path fill-rule="evenodd" clip-rule="evenodd" d="M8.43556 3.25017C3.96366 5.06125 0.25916 6.60625 0.203306 6.68348C-0.171724 7.20206 -0.00203644 12.7053 0.500402 16.3196C1.78578 25.5667 5.39117 32.7223 10.8624 36.885C12.3798 38.0396 14.2518 39.095 15.8978 39.7241L16.6197 40L17.2024 39.7993C18.1467 39.4743 20.2524 38.3812 21.3093 37.6673C22.6448 36.7652 23.5047 36.0527 24.6427 34.9054C25.4875 34.0538 25.6268 33.9445 25.7876 34.0073C25.9948 34.0882 26.2396 34.6673 26.496 35.6832C26.6858 36.4347 26.8152 36.7055 27.1287 37.0065C27.4556 37.3205 27.8976 37.4866 28.4009 37.4845C28.9519 37.4822 29.4062 37.2721 29.7893 36.8424C30.1778 36.4068 30.2912 35.977 30.2202 35.2103C30.1896 34.8798 30.1896 34.4248 30.2203 34.1993L30.276 33.7893L30.9507 33.5303C31.679 33.2506 32.7714 32.6209 33.3266 32.161L33.6724 31.8745L34.2784 32.3318C34.6117 32.5833 35.0131 32.9117 35.1706 33.0615C35.592 33.4626 35.9674 33.6256 36.4869 33.633C37.6249 33.6493 38.4335 32.4652 38.0004 31.4171C37.9376 31.2651 37.6447 30.8208 37.3494 30.4295C37.0542 30.0383 36.6655 29.4064 36.4856 29.0254L36.1586 28.3325L36.3223 27.8969C36.8864 26.3958 36.9934 24.2915 36.5911 22.6066C36.424 21.9065 36.396 21.9505 37.4588 21.2442C38.3035 20.6828 38.6236 20.361 38.8614 19.8336C39.1464 19.2015 38.9752 18.3486 38.5003 18.0339C37.9076 17.6414 37.179 17.682 36.0836 18.169C35.7329 18.3249 35.2807 18.5092 35.0789 18.5785L34.712 18.7044L34.0029 18.0159L33.2937 17.3274L33.4613 16.6788C33.5534 16.3221 33.7979 15.6023 34.0045 15.0794C34.3049 14.3188 34.3803 14.0282 34.3812 13.6272C34.3827 12.8313 33.9872 12.1764 33.3888 11.9843C33.2051 11.9254 33.205 11.924 33.2587 10.5878C33.3355 8.67744 33.2364 6.87331 33.0434 6.6638C32.9232 6.53341 17.2919 0.148677 16.7298 0.000427218C16.6284 -0.0263619 13.4771 1.20833 8.43556 3.25017ZM24.3459 4.47859L31.8802 7.51394L31.9328 8.3821C31.9618 8.85959 31.9546 9.92942 31.9167 10.7595C31.8499 12.2242 31.8417 12.2753 31.6364 12.4958C31.5201 12.6207 31.2535 13.018 31.0441 13.3788C30.6466 14.0633 30.0282 14.8912 29.6503 15.2447L29.4293 15.4514L29.476 14.9967C29.5017 14.7466 29.5472 13.3616 29.5771 11.9191C29.6371 9.02521 29.621 8.89647 29.1729 8.68563C28.226 8.24014 16.8194 3.66921 16.6546 3.66921C16.3952 3.66921 4.16222 8.59013 3.91223 8.79502C3.72741 8.94641 3.72725 8.9493 3.72774 11.4549C3.72823 14.4431 3.88164 16.1461 4.39291 18.8414C5.71631 25.8174 8.64876 30.9435 12.9936 33.8755C13.7944 34.416 14.9965 35.052 15.9114 35.4191C16.6671 35.7224 16.6951 35.7189 17.9668 35.1597L18.713 34.8314L19.0105 35.0356C19.6135 35.4493 20.3317 35.3919 20.9583 34.8799C21.8796 34.1271 22.3391 33.8055 22.9051 33.5174L23.5197 33.2046L23.8358 33.3685L24.1518 33.5325L23.671 34.0268C22.0983 35.6436 19.8723 37.1689 17.6954 38.1213L16.6512 38.5781L15.9955 38.3106C12.4222 36.8529 9.19969 34.1515 6.92555 30.7076C4.14554 26.4975 2.37015 21.0865 1.64733 14.6207C1.44182 12.7821 1.2956 10.0103 1.32987 8.60105L1.35571 7.53841L8.96098 4.45403C13.1439 2.75755 16.6215 1.38618 16.6889 1.40644C16.7564 1.4267 20.202 2.80915 24.3459 4.47859ZM28.2992 10.7342C28.297 11.7227 28.1919 13.7795 28.0886 14.852L28.0348 15.4101H27.361C26.5822 15.4101 25.5204 15.5812 24.8506 15.8146L24.3848 15.9769L23.7875 15.5535C23.459 15.3206 22.8713 14.805 22.4815 14.4077C21.6898 13.6005 21.437 13.4381 20.8659 13.3697C20.0622 13.2735 19.2456 13.7412 18.8634 14.5167C18.523 15.2073 18.5892 15.9023 19.0627 16.609C19.4162 17.1366 19.8627 18.0846 20.0099 18.6201L20.1457 19.1138L19.7703 19.7227C19.3534 20.399 18.8856 21.3857 18.7298 21.9174C18.6511 22.1862 18.5798 22.2753 18.4149 22.3109C17.9027 22.4218 16.9187 22.5159 16.2391 22.519C15.6418 22.5218 15.425 22.5592 15.0885 22.7177C13.9491 23.254 13.6704 24.6691 14.5388 25.5086C14.9534 25.9095 15.0939 25.9732 15.8003 26.0803C16.6517 26.2093 17.2933 26.3826 17.9682 26.6659C18.5402 26.9059 18.5544 26.9192 18.6488 27.2997C18.8602 28.1524 19.3064 29.1033 20.0381 30.2603C20.1364 30.4159 20.1163 30.4866 19.8489 30.9246C19.6843 31.1942 19.3109 31.7112 19.0191 32.0734C18.6965 32.474 18.4361 32.894 18.3546 33.1455C18.281 33.3728 18.2107 33.5709 18.1985 33.5855C18.1863 33.6001 17.8352 33.7609 17.4183 33.9426L16.6602 34.2731L16.2861 34.1311C16.0803 34.053 15.5992 33.8311 15.2169 33.6379C8.96597 30.48 5.2806 22.5632 5.01908 11.7307L4.97116 9.74636L10.7965 7.38041L16.6218 5.01445L22.4616 7.37602L28.3013 9.7376L28.2992 10.7342ZM6.753 11.1278C6.44405 11.307 6.39024 11.4661 6.38762 12.2088C6.38369 13.3058 6.66517 13.7718 7.24334 13.6252C7.66244 13.5187 7.73662 13.319 7.70832 12.3731C7.68093 11.4568 7.61796 11.2604 7.30557 11.1165C7.06531 11.0059 6.95965 11.008 6.753 11.1278ZM33.0443 13.5609C33.0443 13.7263 32.9041 14.2192 32.7328 14.6565C32.5614 15.0937 32.3524 15.6933 32.2682 15.9889C32.1841 16.2845 32.1078 16.5375 32.0987 16.5511C32.0896 16.5648 31.8055 16.4375 31.4674 16.2683L30.8527 15.9608L31.4249 15.2122C31.7396 14.8005 32.1441 14.1929 32.3237 13.862C32.5893 13.3727 32.6871 13.2604 32.8473 13.2604C33.0194 13.2604 33.0443 13.2985 33.0443 13.5609ZM6.81989 14.7975C6.61758 15.0021 6.61038 15.0402 6.66035 15.645C6.73754 16.5796 7.08837 18.5924 7.41204 19.9576C7.89428 21.992 8.8671 24.7162 9.2638 25.1431C9.51944 25.4182 9.99726 25.4038 10.2226 25.1141C10.3158 24.9943 10.3921 24.8315 10.3921 24.7524C10.3921 24.6733 10.2127 24.1853 9.99342 23.668C9.09485 21.5479 8.44088 18.9954 8.058 16.1129C7.90998 14.9986 7.84317 14.8064 7.55793 14.6751C7.24775 14.5322 7.04985 14.565 6.81989 14.7975ZM21.57 15.3832C22.5143 16.323 23.4123 16.9899 24.3281 17.4317C25.1956 17.8501 25.6518 17.9733 26.334 17.9733C26.7203 17.9733 26.8653 17.9369 26.9928 17.8079C27.1939 17.6046 27.2069 17.1735 27.0202 16.904L26.8841 16.7075L27.8585 16.7564C29.7365 16.8509 31.2961 17.4538 32.6967 18.6267C33.164 19.0179 33.0401 19.0678 31.8993 18.9472L30.9786 18.8499L30.7848 19.0776C30.5603 19.3415 30.5384 19.5968 30.7179 19.8559C30.9096 20.1326 31.0782 20.1943 31.9 20.2884C33.33 20.4522 34.9909 20.1511 36.4865 19.4569C37.1401 19.1535 37.7056 19.0355 37.7056 19.2023C37.7056 19.3841 37.2998 19.7543 36.5593 20.248C35.571 20.9068 34.5141 21.9044 33.7604 22.8897C33.1546 23.6816 32.8808 24.1542 32.8808 24.408C32.8808 24.4947 32.9571 24.6636 33.0503 24.7834C33.1796 24.9496 33.2925 25.0013 33.5267 25.0013C33.8712 25.0013 33.9823 24.9015 34.4473 24.1744C34.6073 23.9243 34.8686 23.5624 35.0281 23.3702C35.2729 23.0752 35.3275 23.0429 35.3784 23.1635C35.4563 23.3479 35.5335 25.697 35.4674 25.8712C35.4217 25.9916 35.4005 25.992 35.2348 25.8745C34.9864 25.6987 34.7434 25.7124 34.4865 25.9168C34.1817 26.1591 34.2039 26.5262 34.5966 27.7351C35.1213 29.351 35.8353 30.7562 36.5221 31.5247C36.8767 31.9216 36.8882 32.2216 36.5502 32.2612C36.3881 32.2802 36.2171 32.1812 35.8551 31.8591C34.8308 30.9474 33.3721 30.0923 32.4192 29.8447C31.8547 29.698 31.1455 29.6738 30.924 29.7937C30.6985 29.9156 30.5681 30.3038 30.6655 30.5628C30.7825 30.8739 31.0473 31.01 31.6505 31.0691C31.9409 31.0975 32.2106 31.1532 32.25 31.193C32.3393 31.2833 31.3022 31.9392 30.6088 32.2309C29.1343 32.8512 27.2004 32.9985 25.7422 32.6015L25.4031 32.5091L25.66 32.4C26.1242 32.2026 26.2386 31.6726 25.8925 31.3227C25.7794 31.2083 25.5963 31.1197 25.4729 31.1197C24.9132 31.1197 22.3938 32.1925 21.3153 32.89C21.0562 33.0576 20.6729 33.3551 20.4634 33.5512C20.0287 33.9582 19.8955 34.0216 19.6942 33.9169C19.4561 33.793 19.5297 33.565 19.9915 32.9954C21.2957 31.3867 22.0862 29.6779 22.0862 28.4677C22.0862 27.8458 21.8824 27.5644 21.432 27.5644C21.0006 27.5644 20.7778 27.8499 20.7778 28.4024C20.7778 28.6237 20.7468 28.8046 20.7089 28.8046C20.6228 28.8046 20.1 27.6638 19.9322 27.1097C19.5413 25.8188 19.5016 24.2098 19.8287 22.9142C20.0159 22.1723 20.4351 21.0719 20.5038 21.1413C20.5199 21.1576 20.5692 21.4653 20.6135 21.8252C20.6801 22.3673 20.7299 22.5114 20.904 22.6655C21.1935 22.9219 21.4773 22.9011 21.7733 22.6019C22.0112 22.3613 22.0181 22.3336 21.9638 21.8371C21.8684 20.9649 21.5292 19.2106 21.3047 18.428C21.0622 17.5827 20.5878 16.5096 20.2136 15.9597C19.894 15.49 19.8903 15.2199 20.199 14.9076C20.5869 14.5155 20.7576 14.5747 21.57 15.3832ZM18.3245 24.5052C18.3245 24.9599 18.3009 25.332 18.2721 25.332C18.2433 25.332 17.9397 25.2395 17.5975 25.1263C17.2551 25.0132 16.6711 24.8685 16.2995 24.8049C15.5552 24.6774 15.3805 24.5801 15.3805 24.293C15.3805 23.9683 15.6673 23.8446 16.4414 23.8355C16.8249 23.8311 17.3411 23.7991 17.5885 23.7645C18.3987 23.6512 18.3245 23.5765 18.3245 24.5052ZM28.9146 35.0127C28.9146 36.0221 28.8481 36.1634 28.3733 36.1634C28.1346 36.1634 27.8106 35.8356 27.8106 35.5941C27.8106 35.5207 27.7231 35.1739 27.6162 34.8236L27.4218 34.1866L27.882 34.1571C28.1351 34.1409 28.471 34.1207 28.6284 34.1123L28.9146 34.0971V35.0127Z" fill="url(#paint0_linear_865_2714)"/>
<defs>
<linearGradient id="paint0_linear_865_2714" x1="19.5" y1="0" x2="19.5" y2="40" gradientUnits="userSpaceOnUse">
<stop stop-color="#B99E68"/>
<stop offset="1" stop-color="#DEC697"/>
</linearGradient>
</defs>
</svg>
