<svg width="39" height="40" viewBox="0 0 39 40" fill="none" xmlns="http://www.w3.org/2000/svg">
<path fill-rule="evenodd" clip-rule="evenodd" d="M12.678 0.118892C10.568 0.582018 8.92818 1.95851 8.37852 3.72804C8.22395 4.22554 8.19586 4.45812 8.21266 5.10257L8.23281 5.87828L7.4711 6.19976C5.96898 6.83367 4.65861 7.70172 3.52616 8.81289C1.99504 10.3152 1.25509 11.9489 0.908392 14.5924C0.76321 15.6995 0.756569 18.4123 0.896026 19.6111L0.992737 20.4422L0.636272 20.7982C0.125541 21.3084 -0.00300049 21.7374 5.27457e-05 22.9207C0.00295332 24.0129 0.127678 24.555 0.587801 25.4755C1.21852 26.7372 2.36067 27.491 3.64173 27.491C3.87072 27.491 4.0201 27.5279 4.03712 27.5886C4.82959 30.4168 5.83258 32.3011 7.46522 34.029L7.92191 34.5122L7.61842 36.9766C7.36584 39.028 7.33042 39.4785 7.40714 39.6652C7.5601 40.0377 8.06083 40.1172 8.33975 39.8133C8.48081 39.6596 8.53676 39.3634 8.75316 37.6258C8.89078 36.5204 9.02199 35.616 9.04474 35.616C9.06749 35.616 9.39403 35.8495 9.7705 36.135C11.1723 37.1978 11.6643 37.3348 14.0807 37.3348C16.4967 37.3348 16.9891 37.1977 18.3901 36.1355C18.7662 35.8504 19.0957 35.6433 19.1224 35.6751C19.1491 35.7071 19.2656 36.5242 19.3813 37.491C19.6246 39.5252 19.6818 39.8034 19.8794 39.9116C20.3046 40.1445 20.7961 39.8846 20.8 39.4246C20.8012 39.2849 20.6748 38.127 20.519 36.8515L20.2359 34.5322L20.7276 33.9987C21.4424 33.2231 22.0185 32.4259 22.7354 31.2201L22.8639 31.004L23.3176 31.6203C24.0854 32.6632 25.1849 33.5951 26.37 34.2075C27.0041 34.5351 28.1948 34.9434 28.7564 35.0258C29.0913 35.0748 29.138 35.0606 29.3479 34.8457C29.4733 34.7174 29.5759 34.5552 29.5759 34.4853C29.5759 34.2556 29.3474 33.9003 29.1738 33.8599C29.08 33.8381 28.8394 33.7846 28.6391 33.7408C27.2978 33.4483 26.1369 32.7948 25.0544 31.7228C23.8779 30.5576 23.1225 29.1251 22.8569 27.5554C22.8036 27.2403 22.713 26.9822 22.6281 26.9036C22.5508 26.832 21.9969 26.6415 21.3972 26.4803L20.3066 26.1872L21.3674 25.9211C21.9508 25.7748 22.5043 25.5939 22.5973 25.519C22.7193 25.421 22.7914 25.2358 22.8558 24.855C23.3961 21.662 25.9303 19.0993 29.058 18.5832C29.9871 18.4299 31.5172 18.5189 32.3572 18.7751C34.9293 19.5596 36.8984 21.6288 37.6032 24.2879C37.7527 24.8517 37.7793 25.1407 37.7793 26.2019C37.7793 27.2632 37.7527 27.5522 37.6032 28.116C36.864 30.9049 34.7654 33.0176 32.0566 33.7C31.2452 33.9044 31.0262 34.0572 31.0262 34.4189C31.0262 34.6987 31.1435 34.8789 31.3951 34.9856C31.5793 35.0637 31.7306 35.0522 32.2826 34.918C35.6446 34.1008 38.2145 31.3515 38.8965 27.8425C39.0345 27.1324 39.0345 25.2714 38.8965 24.5613C38.553 22.7941 37.776 21.2728 36.5689 20.0039C34.8363 18.1828 32.7257 17.2566 30.3083 17.2566C28.549 17.2566 26.8296 17.7807 25.454 18.7364L25.1105 18.9751L25.0922 18.6822C24.8618 15.0024 22.8053 12.4166 19.1567 11.2191C17.4595 10.662 16.2413 10.4978 13.8517 10.5039C12.3022 10.5078 11.818 10.5374 11.0274 10.6762C7.36699 11.3189 4.9721 12.9175 3.80882 15.4945C3.28954 16.6447 3.08161 17.7317 3.08161 19.2956V20.3685L2.83773 20.2969C2.70362 20.2575 2.50386 20.2253 2.39387 20.2253C2.21319 20.2253 2.189 20.1896 2.14434 19.8563C2.00153 18.7895 1.94016 16.827 2.01702 15.7814C2.25365 12.5634 2.98536 10.8499 4.78257 9.30555C9.9801 4.83937 19.5197 5.08156 24.2013 9.7986C24.8946 10.4971 25.2757 11.0574 25.6186 11.8824C25.9161 12.5978 26.203 13.9052 26.258 14.7956C26.3381 16.0944 26.4371 16.3191 26.9292 16.3191C27.3509 16.3191 27.5152 16.065 27.5136 15.4156C27.5085 13.4819 26.8175 11.1216 25.8895 9.86852C24.8201 8.42469 22.8159 6.94156 20.8693 6.15367L20.063 5.82734L20.0956 5.19109C20.138 4.36609 20.0186 3.80445 19.6335 3.0171C18.9343 1.58702 17.4219 0.50233 15.5867 0.114282C14.8568 -0.0400148 13.3913 -0.037671 12.678 0.118892ZM15.5166 1.36952C16.8304 1.64866 18.085 2.57429 18.5998 3.64406C18.8107 4.08242 18.8558 4.27265 18.8786 4.82125C18.9039 5.42937 18.8959 5.47234 18.7641 5.43015C18.4716 5.33656 17.1461 5.08039 16.4469 4.98242C15.5218 4.85281 12.9523 4.85039 12.0579 4.97836C11.6801 5.03234 10.9455 5.16398 10.4256 5.2707C9.90576 5.3775 9.46479 5.4489 9.44578 5.42937C9.34739 5.32867 9.43441 4.34453 9.576 3.95734C10.3243 1.91038 12.8611 0.805221 15.5166 1.36952ZM16.1802 11.8281C19.8045 12.2607 22.1324 13.6667 23.228 16.0849C23.5925 16.8892 23.7717 17.6024 23.8532 18.5738C23.9562 19.8005 23.9046 20.0314 23.378 20.7019C22.8097 21.4255 22.0819 22.9208 21.8419 23.8582L21.6619 24.5613L20.47 24.878C19.7531 25.0685 19.2128 25.2553 19.1142 25.3466C18.589 25.833 18.6187 26.6863 19.1746 27.0821C19.2907 27.1647 19.9064 27.369 20.5428 27.5361L21.7 27.8397L21.7484 28.1504C21.7752 28.3212 21.8813 28.7181 21.9844 29.0324L22.1718 29.6037L21.8732 30.2117C20.9467 32.0976 19.2726 34.0137 17.4099 35.3197C16.3927 36.033 16.1679 36.0848 14.0877 36.0848C11.7795 36.0848 11.5969 36.0278 10.1115 34.8445C7.86917 33.0583 6.26156 30.7579 5.4913 28.2332C5.08423 26.899 4.97859 26.1558 4.95813 24.4832C4.94165 23.1358 4.92188 22.9402 4.74387 22.3639C4.26963 20.8287 4.13849 18.8699 4.42015 17.53C5.10614 14.2669 7.69017 12.2979 11.9434 11.7974C12.9 11.6848 15.1141 11.7009 16.1802 11.8281ZM7.87619 16.9595C7.30966 17.0336 6.85313 17.2424 6.45735 17.6085C6.19302 17.8528 6.14226 17.9478 6.14226 18.1975C6.14226 18.7605 6.74191 18.9913 7.16906 18.5927C7.50217 18.2817 7.84612 18.1649 8.46356 18.1528C8.99169 18.1425 9.08497 18.1189 9.20778 17.9636C9.38716 17.7369 9.38724 17.4014 9.20786 17.1747C9.03749 16.9593 8.51829 16.8754 7.87619 16.9595ZM19.4858 16.946C19.289 16.9698 19.0572 17.0549 18.9706 17.135C18.7703 17.3206 18.7645 17.7246 18.9586 17.9699C19.0882 18.1339 19.1689 18.1542 19.7028 18.158C20.3268 18.1624 20.6525 18.2749 21.0098 18.6095C21.2533 18.8374 21.689 18.8285 21.8763 18.5917C22.123 18.2799 22.0636 17.941 21.704 17.6085C21.1496 17.0958 20.3126 16.8458 19.4858 16.946ZM29.0797 19.4555C26.9867 19.8509 25.2014 21.2514 24.2701 23.2289C23.7991 24.2286 23.6913 24.7015 23.6453 25.9675C23.6114 26.9 23.629 27.1617 23.7643 27.7417C24.1642 29.456 25.2345 30.9844 26.7269 31.9722C29.2189 33.6219 32.5497 33.3294 34.7574 31.267C35.7256 30.3627 36.336 29.368 36.7254 28.0604C36.9083 27.4465 36.9299 27.2498 36.9299 26.2019C36.9299 25.1537 36.9083 24.9575 36.7253 24.3428C35.9772 21.8309 34.0508 19.9992 31.6209 19.4894C30.9814 19.3553 29.7011 19.3382 29.0797 19.4555ZM31.6547 20.7669C33.9811 21.3759 35.6085 23.4293 35.7391 25.9208L35.7818 26.7335L35.484 26.6891C35.3202 26.6647 34.8427 26.5919 34.4229 26.5274C34.0031 26.4629 33.4484 26.3865 33.1904 26.3579L32.7211 26.3056L32.5526 25.8241C32.2597 24.9868 30.9872 22.8704 30.6172 22.6052C30.3959 22.4465 30.1661 22.4625 29.9294 22.653C29.4833 23.0122 28.0454 25.46 27.9282 26.0597L27.8835 26.2884L26.6115 26.4664C25.9119 26.5644 25.2313 26.6627 25.0991 26.6848C24.8824 26.7212 24.854 26.7025 24.8093 26.4947C24.736 26.153 24.8977 24.9944 25.1071 24.3609C25.3584 23.6007 25.7026 23.0334 26.3207 22.3608C27.4078 21.178 28.6537 20.6289 30.2697 20.6203C30.8307 20.6173 31.2545 20.6621 31.6547 20.7669ZM2.93635 21.626C3.27855 21.7673 3.28076 21.7707 3.5241 22.5306C3.74981 23.2355 3.76531 23.3504 3.72806 24.0446C3.70585 24.4576 3.7176 25.1209 3.75409 25.5183L3.82042 26.241H3.54464C2.32235 26.241 1.33699 24.9874 1.20532 23.2646C1.14097 22.423 1.2228 21.9672 1.48675 21.697C1.67651 21.5028 1.75841 21.4759 2.14808 21.4797C2.39272 21.4821 2.74743 21.5479 2.93635 21.626ZM7.70361 21.9796C7.48782 22.2004 7.4595 22.5296 7.63422 22.785C7.70849 22.8934 7.95191 23.0195 8.29013 23.1246C9.80904 23.5968 11.4758 22.7524 10.6254 21.9414C10.4325 21.7575 10.2241 21.7476 9.85606 21.905C9.70539 21.9695 9.40808 22.0222 9.1955 22.0222C8.98291 22.0222 8.6856 21.9695 8.53493 21.905C8.14617 21.7388 7.91894 21.7592 7.70361 21.9796ZM17.5413 21.9032C17.3322 22.0531 17.2551 22.3809 17.365 22.6525C17.567 23.1516 18.9635 23.435 19.8365 23.1539C20.597 22.9091 20.8671 22.3986 20.4578 21.9796C20.2459 21.7627 19.9439 21.7347 19.6528 21.905C19.4011 22.0523 18.6496 22.0523 18.3053 21.905C17.9596 21.7572 17.7456 21.7567 17.5413 21.9032ZM13.8795 23.1293C13.5961 23.2697 13.5464 23.5289 13.5464 24.8669C13.5464 26.0384 13.5592 26.1585 13.7046 26.3476C13.8266 26.5064 13.9301 26.5535 14.157 26.5535C14.3839 26.5535 14.4874 26.5064 14.6094 26.3476C14.7548 26.1585 14.7677 26.0384 14.7677 24.8669C14.7677 23.505 14.7193 23.2678 14.4122 23.1246C14.1904 23.0211 14.0959 23.022 13.8795 23.1293ZM30.6463 24.7296C31.4843 26.0876 31.6612 26.7975 31.298 27.3445C30.6775 28.2791 29.2112 27.9238 29.0645 26.8032C29.0299 26.5399 29.0722 26.3727 29.2951 25.8925C29.5525 25.3376 30.2212 24.2097 30.2926 24.2097C30.3107 24.2097 30.4699 24.4437 30.6463 24.7296ZM28.1215 27.7934C28.1715 27.9168 28.3559 28.1666 28.5315 28.3485C29.664 29.5216 31.4417 29.3441 32.3238 27.9698L32.5909 27.5536L33.1634 27.606C33.9035 27.6736 35.36 27.9163 35.4249 27.9827C35.4999 28.0594 35.1967 28.7565 34.8663 29.2672C34.2145 30.2743 33.1304 31.1211 31.9803 31.5213C31.1608 31.8065 29.9065 31.8719 29.0963 31.6715C27.3611 31.2426 25.836 29.9371 25.2291 28.361L25.0788 27.9707L25.3236 27.9155C25.8365 27.7999 27.3391 27.5834 27.6774 27.5764C27.9974 27.5698 28.0393 27.5903 28.1215 27.7934ZM11.8255 29.714C11.602 29.9427 11.5801 30.291 11.7738 30.5358C12.2168 31.0958 15.3031 31.1921 16.35 30.6786C16.764 30.4754 16.7704 29.8436 16.3607 29.6082C16.1834 29.5064 16.0965 29.5102 15.5602 29.6433C14.797 29.8326 13.489 29.8364 12.796 29.6513C12.1561 29.4804 12.0468 29.4875 11.8255 29.714Z" fill="url(#paint0_linear_865_2686)"/>
<defs>
<linearGradient id="paint0_linear_865_2686" x1="19.5" y1="0" x2="19.5" y2="40" gradientUnits="userSpaceOnUse">
<stop stop-color="#B99E68"/>
<stop offset="1" stop-color="#DEC697"/>
</linearGradient>
</defs>
</svg>
