<svg width="40" height="40" viewBox="0 0 40 40" fill="none" xmlns="http://www.w3.org/2000/svg">
<path fill-rule="evenodd" clip-rule="evenodd" d="M29.2755 0.145866C29.2041 0.226051 29.1208 0.516782 29.0902 0.791844C28.952 2.03821 28.522 2.96816 27.7154 3.76501C26.8953 4.57536 25.7406 5.08447 24.7229 5.08447C24.4814 5.08447 24.3358 5.14007 24.1874 5.2891C23.9388 5.53866 23.9327 5.66385 24.1557 5.94841C24.2852 6.11378 24.4031 6.16838 24.633 6.16946C25.1881 6.17213 26.052 6.40535 26.6199 6.70583C28.0345 7.45442 28.8532 8.6576 29.0566 10.2863C29.1496 11.0309 29.2824 11.2525 29.6355 11.2525C30.0467 11.2525 30.1303 11.0899 30.2445 10.0688C30.3937 8.73554 31.3515 7.38332 32.6214 6.71334C33.1998 6.40818 34.0646 6.17221 34.6143 6.16946C34.9727 6.16771 35.1635 6.0341 35.2354 5.73462C35.3182 5.38987 34.9756 5.08447 34.5062 5.08447C34.0045 5.08447 33.2486 4.87767 32.65 4.57661C31.2922 3.8937 30.3944 2.57041 30.2186 0.993055C30.1356 0.248639 29.9879 0 29.6286 0C29.5057 0 29.3469 0.0656814 29.2755 0.145866ZM30.0436 3.59789C30.4786 4.28179 31.203 4.98737 31.8424 5.3497C32.09 5.48998 32.2815 5.61526 32.2681 5.62809C32.2546 5.64085 31.9566 5.84356 31.6059 6.07853C30.8881 6.55947 30.3062 7.16644 29.9419 7.81425C29.8065 8.05488 29.6713 8.24968 29.6414 8.24693C29.6116 8.24426 29.419 7.9777 29.2135 7.65463C28.7777 6.96923 28.086 6.29557 27.4328 5.92041L26.9707 5.65493L27.5733 5.25968C28.2479 4.81724 29.0869 3.9468 29.3878 3.37717C29.4972 3.17013 29.6055 3.00284 29.6284 3.00559C29.6513 3.00826 29.8382 3.27482 30.0436 3.59789ZM5.22847 4.72064C5.11266 4.86842 5.05638 5.06213 5.05638 5.31294C5.05638 7.43766 2.92159 9.57923 0.798167 9.58448C0.137374 9.58614 -0.229548 10.1127 0.158543 10.5023C0.255503 10.5997 0.436806 10.6696 0.594367 10.6705C1.08714 10.6731 2.01939 10.9146 2.5535 11.1779C3.28569 11.539 4.1331 12.3623 4.49678 13.0661C4.87117 13.7906 4.96324 14.0905 5.05015 14.8687C5.13242 15.605 5.22357 15.7535 5.59323 15.7535C5.95916 15.7535 6.10551 15.5531 6.17167 14.9617C6.43516 12.6052 8.07942 10.9315 10.352 10.7067C11.0083 10.6418 11.2202 10.4972 11.2202 10.1143C11.2202 9.78644 10.9315 9.58548 10.4605 9.58548C9.55533 9.58548 8.44817 9.11637 7.66875 8.40263C6.77386 7.58311 6.2962 6.60639 6.17217 5.34261C6.12602 4.87226 6.07654 4.71906 5.94006 4.62303C5.67957 4.43983 5.42056 4.47533 5.22847 4.72064ZM5.96057 8.00037C6.31039 8.61393 7.13738 9.44803 7.78721 9.84287L8.2794 10.1419L7.65431 10.5514C6.94603 11.0153 6.36551 11.6136 5.91948 12.339L5.61457 12.8351L5.31572 12.3279C4.94024 11.6907 4.20482 10.9404 3.51945 10.4953L2.99157 10.1525L3.60156 9.74285C4.29024 9.28033 4.92024 8.6276 5.32319 7.95903C5.47319 7.71014 5.61465 7.50643 5.63748 7.50651C5.66031 7.5066 5.80567 7.72881 5.96057 8.00037ZM17.6094 8.24209C16.6546 8.52474 16.0249 8.90749 15.2622 9.66841C14.2295 10.6986 13.7596 11.6849 13.641 13.0703L13.5862 13.7114L13.0003 14.2949C11.9959 15.2953 11.2703 16.6205 11.041 17.8735C10.9789 18.2127 10.9504 21.474 10.9504 28.2583V38.1486L11.2068 38.6639C11.3773 39.0065 11.5879 39.2747 11.8351 39.4642C12.5789 40.0345 12.3141 40.0156 19.2172 39.9902L25.4364 39.9673L25.7868 39.7792C26.3366 39.4842 26.6969 39.1205 26.948 38.6071C27.1779 38.1372 27.1797 38.1208 27.1797 36.4807C27.1797 34.9409 27.1686 34.8199 27.0185 34.7095C26.7951 34.5453 26.4434 34.5615 26.2794 34.7435C26.1627 34.8729 26.1417 35.1155 26.1402 36.348C26.1381 37.9928 26.0549 38.3218 25.5498 38.6836L25.2703 38.8837L19.1414 38.9061C13.0742 38.9283 13.0093 38.9268 12.7064 38.7558C12.538 38.6608 12.3075 38.4472 12.1942 38.2811L11.9881 37.979V28.1791C11.9881 19.0483 11.9981 18.3421 12.1356 17.8373C12.3412 17.082 12.7688 16.2114 13.2001 15.6702L13.5653 15.2117L13.6075 18.6292L13.6497 22.0466L13.8834 22.7126C14.3928 24.1643 15.3174 25.2354 16.6169 25.8794C17.9979 26.5638 19.3513 26.667 20.7705 26.196C22.3891 25.6589 23.6353 24.3952 24.246 22.6717C24.4319 22.1472 24.4394 22.0189 24.4806 18.6484L24.5232 15.1669L24.8623 15.6061C25.347 16.2338 25.6001 16.7016 25.8668 17.4622L26.1005 18.1291L26.142 24.5331C26.1822 30.7509 26.1881 30.9406 26.3446 31.0554C26.5802 31.2283 26.7866 31.2007 27.0213 30.9652L27.2289 30.7567L27.2015 24.4429C27.1742 18.1795 27.1725 18.1238 26.9866 17.4745C26.6212 16.1975 25.8142 14.8759 24.9444 14.1297L24.5064 13.7541L24.4565 13.0659C24.3032 10.9555 22.9037 9.12712 20.8492 8.35329C20.0818 8.06422 18.4046 8.00671 17.6094 8.24209ZM20.248 9.3075C21.6849 9.70425 22.8873 10.9419 23.2819 12.4304C23.4628 13.1127 23.4572 21.4257 23.2754 22.1264C22.4964 25.1295 18.8967 26.3953 16.4499 24.5267C15.8946 24.1027 15.3379 23.4253 15.0922 22.8749C14.7007 21.9978 14.686 21.7976 14.686 17.331C14.686 14.8246 14.7203 12.9266 14.7703 12.66C14.892 12.0117 15.3456 11.1136 15.8149 10.5915C16.9555 9.32275 18.5892 8.84956 20.248 9.3075ZM34.0086 18.0665C33.9379 18.1468 33.8549 18.4562 33.824 18.7542C33.6641 20.3006 32.7939 21.6835 31.5257 22.4068C31.001 22.706 29.9487 23.0051 29.4206 23.0051C29.0149 23.0051 28.7777 23.2099 28.7777 23.5599C28.7777 23.8493 29.0662 24.0887 29.415 24.0887C30.3531 24.0887 31.5361 24.5648 32.2968 25.2486C33.153 26.0183 33.6466 26.9766 33.7935 28.1544C33.8923 28.9463 34.0173 29.1739 34.3525 29.1719C34.749 29.1696 34.9409 28.8939 34.9425 28.3243C34.9455 27.2056 35.714 25.7628 36.6899 25.0435C37.4689 24.4693 38.5017 24.0929 39.306 24.09C39.5513 24.0891 39.694 24.0356 39.8249 23.8958C40.2057 23.4887 39.9328 23.0061 39.3205 23.0039C38.7632 23.002 37.9546 22.7772 37.3417 22.4538C36.0456 21.77 35.085 20.373 34.9697 19.0043C34.9149 18.3545 34.8757 18.2 34.7279 18.0515C34.5543 17.8772 34.1683 17.8853 34.0086 18.0665ZM35.4811 22.3768C35.8007 22.6995 36.2905 23.0947 36.5695 23.2552L37.0769 23.5469L36.5701 23.8341C35.9189 24.203 34.9722 25.1607 34.6423 25.7842L34.3847 26.271L34.1285 25.8152C33.7628 25.1646 33.0046 24.3739 32.3066 23.9152L31.7055 23.5203L32.1821 23.2506C32.7969 22.9028 33.7627 21.9312 34.1115 21.3097L34.3847 20.8229L34.6424 21.3065C34.784 21.5726 35.1615 22.0542 35.4811 22.3768Z" fill="url(#paint0_linear_865_2697)"/>
<defs>
<linearGradient id="paint0_linear_865_2697" x1="20" y1="0" x2="20" y2="40" gradientUnits="userSpaceOnUse">
<stop stop-color="#B99E68"/>
<stop offset="1" stop-color="#DEC697"/>
</linearGradient>
</defs>
</svg>
