<svg width="23" height="40" viewBox="0 0 23 40" fill="none" xmlns="http://www.w3.org/2000/svg">
<path fill-rule="evenodd" clip-rule="evenodd" d="M14.5806 0.210593C14.3415 0.474913 0.166057 23.0168 0.0514599 23.315C-0.0785072 23.6531 0.0439092 23.9991 0.348694 24.1557C0.590742 24.2801 1.0494 24.2631 5.51619 23.9646C8.21224 23.7845 10.4453 23.664 10.4785 23.6971C10.5117 23.73 9.78219 27.2211 8.85723 31.4552C7.93236 35.6891 7.17682 39.2262 7.17835 39.3154C7.18284 39.5849 7.33915 39.7922 7.62703 39.9106C8.23867 40.1623 7.85506 40.7165 15.7141 28.227C21.1879 19.528 23 16.5812 23 16.3785C23 16.2121 22.9204 16.0346 22.792 15.9148C22.5163 15.6575 22.4059 15.6597 16.9331 16.0278C14.4614 16.1941 12.4347 16.3235 12.4294 16.3155C12.4242 16.3075 13.1822 12.8262 14.1139 8.57936C15.0456 4.33249 15.8083 0.772796 15.8088 0.668979C15.8092 0.565161 15.7257 0.374309 15.6232 0.244961C15.3764 -0.0666698 14.8472 -0.0840767 14.5806 0.210593ZM13.3796 5.07564C12.13 10.7274 10.7763 16.9974 10.7763 17.1337C10.7763 17.4327 10.8756 17.5956 11.141 17.7319C11.3663 17.8477 11.9099 17.8279 16.0902 17.5517C18.673 17.381 20.8014 17.2566 20.8202 17.2752C20.8389 17.2939 18.3137 21.3468 15.2085 26.2818C12.1034 31.2168 9.55677 35.248 9.54922 35.2401C9.54176 35.232 10.1384 32.4744 10.875 29.112C11.6116 25.7495 12.2143 22.9129 12.2143 22.8084C12.2143 22.7039 12.1305 22.5125 12.028 22.3832C11.7902 22.0828 11.7152 22.0825 7.49563 22.3663C5.71599 22.486 3.78042 22.612 3.19422 22.6464L2.1286 22.709L2.25047 22.4855C2.4021 22.2076 13.4129 4.74089 13.4365 4.74089C13.4459 4.74089 13.4203 4.89157 13.3796 5.07564Z" fill="url(#paint0_linear_865_2640)"/>
<defs>
<linearGradient id="paint0_linear_865_2640" x1="11.5" y1="0" x2="11.5" y2="40" gradientUnits="userSpaceOnUse">
<stop stop-color="#B99E68"/>
<stop offset="1" stop-color="#DEC697"/>
</linearGradient>
</defs>
</svg>
