<svg width="40" height="40" viewBox="0 0 40 40" fill="none" xmlns="http://www.w3.org/2000/svg">
<path fill-rule="evenodd" clip-rule="evenodd" d="M12.7373 0.127141C6.48445 1.11182 1.57429 5.76878 0.269713 11.9517C-0.0126215 13.2897 -0.0869751 15.3653 0.112054 16.3496C0.366486 17.6077 0.891719 18.6734 1.77308 19.7195L2.27517 20.3154L1.47824 21.9243C0.70898 23.4773 0.680352 23.5545 0.653981 24.1465C0.593256 25.5094 1.34752 26.4703 2.76895 26.841C3.02636 26.9081 3.24846 26.9746 3.26241 26.9887C3.27636 27.0029 3.47434 28.0472 3.7024 29.3093C4.04828 31.2238 4.16135 31.6975 4.38497 32.1678C4.97407 33.4067 6.14777 34.1437 7.52282 34.1382C7.84048 34.1369 8.95135 34.0125 9.9915 33.8616C11.0316 33.7108 11.9083 33.6032 11.9396 33.6225C12.0429 33.6862 12.502 34.8655 12.6687 35.4953C12.8024 36.0005 12.8404 36.4622 12.8768 38.0256L12.9213 39.938H13.5551H14.1889V38.0424C14.1889 36.6235 14.1567 35.9906 14.0607 35.5261C13.917 34.8304 13.6775 34.0888 13.4513 33.639L13.3003 33.3388L13.4826 33.2958C13.5827 33.2722 14.0926 33.1673 14.6156 33.0626C15.1387 32.958 15.5838 32.8551 15.605 32.834C15.6437 32.7954 15.4207 31.6396 15.3634 31.5825C15.3465 31.5656 14.5945 31.6983 13.6922 31.8774C12.7901 32.0565 11.0349 32.346 9.79182 32.5206C7.42025 32.8538 7.08694 32.8591 6.53082 32.572C6.16704 32.3841 5.65705 31.8153 5.52302 31.4479C5.45745 31.2681 5.20109 29.998 4.95335 28.6255C4.59295 26.6284 4.47013 26.095 4.33876 25.9554C4.23336 25.8434 3.92111 25.7184 3.467 25.6063C2.62919 25.3996 2.31041 25.2235 2.12355 24.8641C1.83783 24.3146 1.89638 24.1365 3.24959 21.439C3.96498 20.013 4.51166 18.827 4.51166 18.701C4.51166 18.5788 4.439 18.2253 4.35029 17.9155C3.8295 16.0972 3.77917 14.1154 4.22086 12.812C4.44755 12.1429 5.06141 11.0631 5.15746 11.1644C5.1931 11.2019 5.93495 13.2617 6.80606 15.7417C8.62047 20.9071 8.91708 21.677 9.69118 23.2301C12.6262 29.1187 17.3567 33.863 23.1743 36.7525L24.0845 37.2046L24.2689 38.5512C24.3702 39.2917 24.4817 39.9294 24.5165 39.9682C24.5888 40.0485 25.5496 39.9633 25.7139 39.8618C25.8046 39.8059 25.7999 39.6379 25.6859 38.8517C25.6108 38.333 25.5613 37.8966 25.5759 37.882C25.5905 37.8674 26.0547 38.0193 26.6074 38.2194C27.8769 38.6794 29.3056 39.073 30.8016 39.3748C32.9059 39.7995 33.694 39.8709 36.755 39.9144L39.6036 39.9549L39.7993 39.7714C40.0609 39.526 40.0679 39.0664 39.8135 38.8341C39.7137 38.743 38.2894 38.1051 36.6483 37.4167C35.0072 36.7282 33.4467 36.0684 33.1806 35.9504C32.6259 35.7045 31.1755 34.8675 31.2226 34.8206C31.2399 34.8034 31.5423 34.8973 31.8947 35.0295C33.9388 35.7959 37.966 36.7172 39.2725 36.7172C39.738 36.7172 39.995 36.4841 39.995 36.0617C39.995 35.7178 39.841 35.5667 39.0676 35.1519C37.7597 34.4504 36.2933 33.3853 34.9144 32.1353L34.5515 31.8063L35.1138 32.1274C36.286 32.7968 37.9649 33.3679 39.0613 33.4702C39.5471 33.5154 39.6147 33.5029 39.7957 33.3332C39.9371 33.2005 39.995 33.0608 39.995 32.8522C39.995 32.5832 39.9267 32.4951 39.1916 31.8162C37.8376 30.5657 36.7667 29.093 36.0735 27.5283C35.2041 25.5658 33.7689 20.3437 32.458 14.3728C31.7263 11.0401 30.5121 8.56154 28.4256 6.14079C25.7309 3.01467 22.08 0.970026 17.8179 0.199931C16.7388 0.00491172 13.7822 -0.0374418 12.7373 0.127141ZM31.7912 0.18117C31.6793 0.302272 31.5676 0.640457 31.4541 1.20168C31.355 1.69189 31.1997 2.18507 31.0811 2.38726C30.8358 2.80508 30.3486 3.10655 29.7935 3.18385C29.2729 3.25639 29.0274 3.4746 29.0274 3.86497C29.0274 4.25533 29.2729 4.47354 29.7935 4.54609C30.3486 4.62338 30.8358 4.92485 31.0811 5.34267C31.1997 5.54486 31.355 6.03804 31.4541 6.52825C31.652 7.50681 31.8003 7.72993 32.2532 7.72993C32.706 7.72993 32.8544 7.50681 33.0523 6.52825C33.1514 6.03804 33.3066 5.54486 33.4252 5.34267C33.6705 4.92485 34.1577 4.62338 34.7128 4.54609C35.2334 4.47354 35.4789 4.25533 35.4789 3.86497C35.4789 3.4746 35.2334 3.25639 34.7128 3.18385C34.1577 3.10655 33.6705 2.80508 33.4252 2.38726C33.3066 2.18507 33.1514 1.69189 33.0523 1.20168C32.8544 0.223121 32.706 0 32.2532 0C32.0512 0 31.9062 0.0569277 31.7912 0.18117ZM17.2131 1.49945C22.6011 2.23089 27.3415 5.66467 29.7605 10.5884C30.3962 11.882 30.8671 13.3641 31.3213 15.5001C32.0912 19.1209 33.2323 23.4301 34.2211 26.4509C34.7071 27.9356 35.5461 29.5991 36.36 30.6919C36.9958 31.5455 36.998 31.5501 36.7031 31.4165C35.1544 30.7149 33.7545 29.5948 32.7612 28.2626C32.5796 28.019 31.3701 25.9899 30.0734 23.7534C28.7768 21.517 27.6418 19.6057 27.5512 19.506C27.1853 19.1038 26.4468 19.3905 26.4468 19.9348C26.4468 20.1655 28.9734 25.9134 29.7579 27.4673C31.0282 29.9837 33.1818 32.6097 35.4059 34.3544C35.6688 34.5606 35.8677 34.7454 35.848 34.765C35.7856 34.8274 33.4177 34.1512 32.3508 33.7664C30.3121 33.031 28.2652 32.0396 26.4158 30.8919C25.7181 30.4589 25.5713 30.3267 25.2394 29.8331C23.6938 27.5339 22.32 24.5358 21.5315 21.7409C21.3627 21.1428 20.9605 19.4758 20.6377 18.0365C20.3149 16.5972 20.0269 15.3919 19.9977 15.3581C19.9538 15.3071 18.8064 15.5111 18.7178 15.5856C18.6848 15.6133 19.5701 19.5456 19.9674 21.1365C20.4763 23.174 21.2289 25.2365 22.1568 27.136L22.6215 28.0873L22.3366 27.86C21.7921 27.4254 19.7544 25.3181 18.9887 24.3976C17.3036 22.3719 16.3052 20.7905 14.7553 17.6925C14.0957 16.3741 13.5428 15.2556 13.5266 15.207C13.4921 15.1037 12.3341 15.6616 12.3341 15.7815C12.3341 15.9505 14.3679 20.0183 14.9188 20.9512C16.3963 23.4533 17.8644 25.3389 19.9902 27.4649C21.9921 29.4671 23.8214 30.9083 26.1504 32.3184C26.8248 32.7268 27.1899 33.0333 28.1815 34.0239C30.0254 35.8659 31.0126 36.4973 34.1886 37.8656L35.8418 38.5778L34.8663 38.5346C33.0754 38.4551 30.8401 38.0764 28.8533 37.5159C20.4161 35.1355 13.4029 28.9005 10.0933 20.8377C9.77626 20.0653 8.03806 15.207 6.36244 10.4098L6.21567 9.98965L6.85558 9.45677C7.20751 9.16367 7.49549 8.89957 7.49549 8.86985C7.49549 8.79062 6.78243 7.93574 6.69082 7.90514C6.56816 7.86408 4.7123 9.46119 4.28013 9.97966C3.49128 10.9262 2.94386 12.052 2.70363 13.222C2.45452 14.4352 2.57089 16.5059 2.9737 18.03C3.10838 18.5394 3.11604 18.657 3.02556 18.8293L2.91959 19.0314L2.53766 18.5138C1.53953 17.1611 1.22413 15.9303 1.37292 13.9679C1.74203 9.09934 4.55134 4.92324 8.92619 2.7397C11.4189 1.49558 14.1613 1.08517 17.2131 1.49945ZM32.6064 3.51019L32.9193 3.86497L32.6064 4.21974C32.4343 4.41484 32.2753 4.57451 32.2532 4.57451C32.231 4.57451 32.072 4.41484 31.8999 4.21974L31.587 3.86497L31.8999 3.51019C32.072 3.31509 32.231 3.15542 32.2532 3.15542C32.2753 3.15542 32.4343 3.31509 32.6064 3.51019ZM13.0819 3.40197C12.9699 3.52308 12.8582 3.86126 12.7447 4.42249C12.6456 4.91269 12.4903 5.40588 12.3717 5.60807C12.1265 6.02588 11.6392 6.32735 11.0841 6.40465C10.5635 6.4772 10.318 6.69541 10.318 7.08577C10.318 7.47613 10.5635 7.69434 11.0841 7.76689C11.6392 7.84419 12.1265 8.14566 12.3717 8.56348C12.4903 8.76566 12.6456 9.25885 12.7447 9.74905C12.9426 10.7276 13.091 10.9507 13.5438 10.9507C13.9966 10.9507 14.145 10.7276 14.3429 9.74905C14.442 9.25885 14.5972 8.76566 14.7159 8.56348C14.9611 8.14566 15.4483 7.84419 16.0034 7.76689C16.5241 7.69434 16.7695 7.47613 16.7695 7.08577C16.7695 6.69541 16.5241 6.4772 16.0034 6.40465C15.4483 6.32735 14.9611 6.02588 14.7159 5.60807C14.5972 5.40588 14.442 4.91269 14.3429 4.42249C14.145 3.44393 13.9966 3.2208 13.5438 3.2208C13.3418 3.2208 13.1968 3.27773 13.0819 3.40197ZM13.897 6.731L14.2099 7.08577L13.897 7.44054C13.7249 7.63564 13.566 7.79531 13.5438 7.79531C13.5216 7.79531 13.3627 7.63564 13.1906 7.44054L12.8777 7.08577L13.1906 6.731C13.3627 6.5359 13.5216 6.37623 13.5438 6.37623C13.566 6.37623 13.7249 6.5359 13.897 6.731ZM36.3073 13.0644C36.1954 13.1855 36.0837 13.5237 35.9701 14.0849C35.871 14.5751 35.7158 15.0683 35.5971 15.2705C35.3519 15.6883 34.8647 15.9898 34.3096 16.0671C33.7889 16.1396 33.5435 16.3578 33.5435 16.7482C33.5435 17.1385 33.7889 17.3568 34.3096 17.4293C34.8647 17.5066 35.3519 17.8081 35.5971 18.2259C35.7158 18.4281 35.871 18.9213 35.9701 19.4115C36.168 20.39 36.3164 20.6131 36.7692 20.6131C37.222 20.6131 37.3704 20.39 37.5683 19.4115C37.6674 18.9213 37.8227 18.4281 37.9413 18.2259C38.1865 17.8081 38.6738 17.5066 39.2289 17.4293C39.7495 17.3568 39.995 17.1385 39.995 16.7482C39.995 16.3578 39.7495 16.1396 39.2289 16.0671C38.6738 15.9898 38.1865 15.6883 37.9413 15.2705C37.8227 15.0683 37.6674 14.5751 37.5683 14.0849C37.3704 13.1063 37.222 12.8832 36.7692 12.8832C36.5672 12.8832 36.4222 12.9401 36.3073 13.0644ZM37.1224 16.3934L37.4353 16.7482L37.1224 17.103C36.9503 17.2981 36.7914 17.4577 36.7692 17.4577C36.747 17.4577 36.5881 17.2981 36.416 17.103L36.1031 16.7482L36.416 16.3934C36.5881 16.1983 36.747 16.0386 36.7692 16.0386C36.7914 16.0386 36.9503 16.1983 37.1224 16.3934Z" fill="url(#paint0_linear_865_2643)"/>
<defs>
<linearGradient id="paint0_linear_865_2643" x1="20" y1="0" x2="20" y2="40" gradientUnits="userSpaceOnUse">
<stop stop-color="#B99E68"/>
<stop offset="1" stop-color="#DEC697"/>
</linearGradient>
</defs>
</svg>
