<svg width="16" height="16" viewBox="0 0 16 16" fill="none" xmlns="http://www.w3.org/2000/svg">
<g clip-path="url(#clip0_867_4606)">
<path d="M14.6668 7.38674V8.00007C14.666 9.43769 14.2005 10.8365 13.3397 11.988C12.4789 13.1394 11.269 13.9817 9.8904 14.3893C8.51178 14.797 7.03834 14.748 5.68981 14.2498C4.34128 13.7516 3.18993 12.8308 2.40747 11.6248C1.62501 10.4188 1.25336 8.99212 1.34795 7.55762C1.44254 6.12312 1.9983 4.75762 2.93235 3.66479C3.8664 2.57195 5.12869 1.81033 6.53096 1.4935C7.93322 1.17668 9.40034 1.32163 10.7135 1.90674" stroke="url(#paint0_linear_867_4606)" stroke-width="2" stroke-linecap="round" stroke-linejoin="round"/>
<path d="M14.6667 2.6665L8 9.33984L6 7.33984" stroke="url(#paint1_linear_867_4606)" stroke-width="2" stroke-linecap="round" stroke-linejoin="round"/>
</g>
<defs>
<linearGradient id="paint0_linear_867_4606" x1="1.3335" y1="7.99626" x2="14.6668" y2="7.99626" gradientUnits="userSpaceOnUse">
<stop stop-color="#B99E68"/>
<stop offset="1" stop-color="#DEC697"/>
</linearGradient>
<linearGradient id="paint1_linear_867_4606" x1="6" y1="6.00317" x2="14.6667" y2="6.00317" gradientUnits="userSpaceOnUse">
<stop stop-color="#B99E68"/>
<stop offset="1" stop-color="#DEC697"/>
</linearGradient>
<clipPath id="clip0_867_4606">
<rect width="16" height="16" fill="white"/>
</clipPath>
</defs>
</svg>
