<svg width="24" height="24" viewBox="0 0 24 24" fill="none" xmlns="http://www.w3.org/2000/svg">
<path fill-rule="evenodd" clip-rule="evenodd" d="M9.57271 0.0334525C8.52842 0.162271 7.16738 0.549151 6.24039 0.980738C4.00234 2.02265 2.03284 3.99321 0.995882 6.22817C0.539073 7.2127 0.167308 8.544 0.0484711 9.62076C-0.0161571 10.2065 -0.0161571 11.4573 0.0484711 12.043C0.213022 13.5341 0.745583 15.1234 1.49967 16.3735C2.8365 18.5896 4.8311 20.2326 7.19165 21.062C8.57747 21.5489 9.63058 21.7088 11.1822 21.6679C12.1908 21.6413 12.9613 21.5288 13.785 21.2879C13.998 21.2256 14.1722 21.191 14.1722 21.211C14.1722 21.231 14.3007 21.4431 14.4577 21.6824C15.1531 22.7421 16.2605 23.542 17.4949 23.8765C17.9097 23.989 18.0281 24 18.8187 24C19.6094 24 19.7277 23.989 20.1425 23.8765C21.9593 23.3842 23.3846 21.9581 23.8766 20.1402C23.989 19.7251 24 19.6067 24 18.8155C24 18.0244 23.989 17.906 23.8766 17.4909C23.5415 16.2529 22.7449 15.1475 21.6883 14.4544C21.4467 14.2959 21.2327 14.1662 21.2127 14.1662C21.1927 14.1662 21.2273 13.9919 21.2895 13.7788C21.715 12.3226 21.8037 10.3519 21.5127 8.82093C21.2745 7.56797 20.8086 6.33294 20.1806 5.29028C18.4954 2.49214 15.8028 0.653502 12.5765 0.0978385C12.051 0.00734124 10.12 -0.0340799 9.57271 0.0334525ZM12.196 1.13999C16.0592 1.64301 19.3301 4.56921 20.319 8.40696C20.7066 9.91141 20.7143 11.6632 20.3398 13.18C20.2728 13.4512 20.2028 13.6892 20.1842 13.709C20.16 13.7347 19.256 13.6201 19.1607 13.5791C19.1552 13.5768 19.183 13.4702 19.2224 13.3422C19.2618 13.2143 19.347 12.8665 19.4116 12.5695C19.5585 11.8944 19.6146 10.5383 19.5254 9.81561C19.0592 6.03332 16.3358 3.06584 12.586 2.25437C11.9053 2.10705 10.4835 2.04975 9.79193 2.14175C8.39011 2.32824 7.12481 2.7982 6.00088 3.54979C4.05068 4.85394 2.72864 6.83854 2.24484 9.18818C2.14633 9.66664 2.13366 9.85421 2.13366 10.8319C2.13366 11.8096 2.14633 11.9971 2.24484 12.4756C3.02681 16.2734 6.01595 19.0527 9.82427 19.5227C10.5465 19.6119 11.9018 19.5558 12.5765 19.4088C12.8733 19.3441 13.2208 19.2589 13.3487 19.2195C13.4766 19.18 13.5831 19.1522 13.5855 19.1578C13.6264 19.2531 13.741 20.1576 13.7152 20.1819C13.6517 20.2419 12.7091 20.4572 12.1775 20.5331C11.4683 20.6344 10.218 20.6331 9.50231 20.5303C7.8085 20.2868 6.27718 19.6482 4.90277 18.6118C4.41996 18.2478 3.42857 17.2558 3.06474 16.7727C2.03636 15.4071 1.38332 13.8458 1.14823 12.1907C1.04746 11.4812 1.04746 10.1826 1.14823 9.47311C1.38332 7.81795 2.03636 6.25668 3.06474 4.89109C3.43185 4.40367 4.42085 3.41548 4.91591 3.04151C7.02564 1.44774 9.53187 0.793122 12.196 1.13999ZM11.9194 3.23002C15.4553 3.70331 18.238 6.69164 18.4875 10.2835C18.5488 11.1657 18.4656 12.0203 18.2353 12.8748C18.0287 13.6411 18.0502 13.6148 17.5119 13.756C17.2547 13.8235 16.8737 13.9567 16.6651 14.0521L16.286 14.2255L15.5224 14.0319C14.5843 13.794 14.4159 13.8122 14.0868 14.1873C13.8136 14.4986 13.8078 14.6454 14.0338 15.5138L14.2328 16.2783L14.0588 16.6592C13.9631 16.8687 13.8297 17.2506 13.7623 17.5079C13.6212 18.0466 13.6474 18.0251 12.8816 18.2318C11.1465 18.7 9.35033 18.5688 7.74617 17.8567C5.14208 16.7006 3.38881 14.2083 3.19258 11.3837C2.98866 8.44767 4.40808 5.74182 6.95289 4.21549C8.41531 3.33832 10.153 2.99356 11.9194 3.23002ZM9.0715 5.27149C8.98946 5.31235 8.89085 5.41252 8.85241 5.49414C8.66176 5.89905 6.85053 11.2769 6.85053 11.4381C6.85053 11.6462 6.97355 11.828 7.16574 11.904C7.2376 11.9325 7.57951 12.009 7.92551 12.0742C8.27155 12.1393 8.55963 12.1982 8.56574 12.205C8.57188 12.2117 8.29403 13.0289 7.94837 14.021C7.6027 15.013 7.31997 15.8795 7.32006 15.9465C7.32029 16.1231 7.4741 16.3482 7.64207 16.4178C7.98812 16.5612 7.87168 16.6601 11.3351 13.2844C13.6557 11.0225 14.5614 10.1108 14.5981 9.99956C14.6648 9.79748 14.5847 9.54872 14.4153 9.43164C14.3461 9.38383 13.9411 9.25304 13.5152 9.14094C13.0892 9.02889 12.7248 8.92374 12.7052 8.9073C12.6856 8.89086 13.1449 8.23414 13.7258 7.44784C14.3067 6.66154 14.7997 5.9548 14.8214 5.87731C14.8728 5.69378 14.8125 5.48686 14.6643 5.3386L14.5457 5.21983L11.8832 5.20856C9.53525 5.1986 9.20305 5.20602 9.0715 5.27149ZM13.2037 6.3352C13.1843 6.36751 12.8407 6.8377 12.4402 7.38012C11.2597 8.97896 11.2154 9.04453 11.2154 9.19546C11.2154 9.38731 11.3335 9.59676 11.4861 9.67533C11.5566 9.71163 11.91 9.81936 12.2714 9.91474C12.6328 10.0101 12.9448 10.1038 12.9648 10.1229C12.9945 10.1515 11.0695 12.0645 9.46349 13.6025L9.09614 13.9543L9.19151 13.6963C9.53558 12.7656 9.80738 11.9166 9.80738 11.7726C9.80738 11.5754 9.7114 11.4202 9.53464 11.3317C9.46523 11.2969 9.10637 11.2094 8.73719 11.1373C8.31046 11.054 8.07316 10.9873 8.08569 10.9543C8.09654 10.9257 8.45765 9.87901 8.88817 8.62834C9.3187 7.37763 9.68178 6.33684 9.69502 6.31543C9.70825 6.29401 10.5111 6.27649 11.4791 6.27649C12.8747 6.27649 13.2318 6.28866 13.2037 6.3352ZM19.795 14.7803C21.0108 15.0603 22.06 15.9289 22.6031 17.105C23.0836 18.1457 23.0836 19.4854 22.6031 20.5261C21.513 22.8868 18.6126 23.6984 16.4699 22.2424C15.3435 21.477 14.675 20.1993 14.677 18.8155C14.678 18.119 14.801 17.5917 15.1125 16.9492C15.2407 16.6848 15.3456 16.4236 15.3456 16.3688C15.3456 16.314 15.2711 15.9939 15.1799 15.6574C15.0888 15.321 15.0225 15.0373 15.0327 15.0272C15.0428 15.0171 15.3263 15.0834 15.6625 15.1745C15.9988 15.2657 16.3187 15.3403 16.3735 15.3403C16.4282 15.3403 16.6893 15.2359 16.9536 15.1083C17.9087 14.6473 18.7805 14.5467 19.795 14.7803ZM16.8087 16.7889C16.0746 17.0508 15.6696 18.0999 16.1972 18.3729C16.3585 18.4564 16.6004 18.4564 16.751 18.373C16.8141 18.338 16.9197 18.1961 16.9857 18.0576C17.0694 17.8818 17.1366 17.8014 17.2084 17.7912C17.3487 17.7712 17.5128 17.9402 17.4682 18.0589C17.4495 18.1089 17.2272 18.3912 16.9743 18.6863C16.0696 19.7416 15.7881 20.3398 16.0323 20.6886C16.1758 20.8937 16.3574 20.9289 17.2707 20.9289C18.215 20.9289 18.3286 20.9014 18.4921 20.6331C18.6023 20.4523 18.6066 20.3567 18.5136 20.1607C18.4051 19.9318 18.2778 19.8748 17.8161 19.8487L17.4001 19.8252L17.852 19.3087C18.3888 18.6949 18.5045 18.4816 18.5289 18.0606C18.543 17.8175 18.5246 17.7002 18.4424 17.5092C18.1815 16.9022 17.4254 16.5689 16.8087 16.7889ZM19.491 16.7707C19.2254 16.8864 19.1887 16.9997 19.0676 18.0791C18.9665 18.9797 18.9626 19.0881 19.0263 19.2242C19.1546 19.4985 19.2799 19.5416 20.0016 19.5597L20.6491 19.576V20.0817C20.6491 20.5177 20.6622 20.6041 20.7438 20.7078C20.9506 20.9709 21.3803 20.9709 21.5871 20.7078C21.6781 20.592 21.6817 20.521 21.6817 18.8155C21.6817 17.1101 21.6781 17.0391 21.5871 16.9233C21.3803 16.6602 20.9506 16.6602 20.7438 16.9233C20.6582 17.0321 20.6491 17.1129 20.6491 17.7652V18.4868H20.3644C20.1155 18.4868 20.0826 18.4764 20.1031 18.4046C20.116 18.3594 20.1522 18.058 20.1836 17.7348C20.2496 17.0553 20.2117 16.9136 19.9284 16.779C19.7349 16.6871 19.6853 16.6862 19.491 16.7707Z" fill="url(#paint0_linear_867_4586)"/>
<defs>
<linearGradient id="paint0_linear_867_4586" x1="12" y1="0" x2="12" y2="24" gradientUnits="userSpaceOnUse">
<stop stop-color="#B99E68"/>
<stop offset="1" stop-color="#DEC697"/>
</linearGradient>
</defs>
</svg>
