<svg width="32" height="32" viewBox="0 0 32 32" fill="none" xmlns="http://www.w3.org/2000/svg">
<path fill-rule="evenodd" clip-rule="evenodd" d="M14.139 0.0628906C12.9207 0.200348 11.2986 0.607029 10.1345 1.06693C5.5514 2.87764 2.05555 6.67467 0.629642 11.3905C0.421534 12.0789 0.238767 12.9155 0.0805276 13.9046C-0.0268425 14.5755 -0.0268425 17.4238 0.0805276 18.0946C0.511948 20.7906 1.28469 22.8428 2.62225 24.8448C3.30038 25.8596 3.7843 26.4493 4.65677 27.3239C7.27245 29.9457 10.6432 31.5564 14.3382 31.95C15.2581 32.048 17.5479 31.9945 18.425 31.8545C22.5414 31.1976 26.2658 28.9734 28.7425 25.693C29.9523 24.0905 30.7737 22.4828 31.3398 20.6088C32.0936 18.1137 32.205 15.3148 31.658 12.6163C31.197 10.3419 29.9633 7.76757 28.4431 5.90827C25.7409 2.60291 21.9074 0.510096 17.7236 0.0560115C17.0069 -0.0217852 14.8529 -0.0176577 14.139 0.0628906ZM18.1122 1.43415C20.7251 1.8035 23.1834 2.88096 25.2765 4.57422C25.9428 5.1133 27.1156 6.32352 27.6731 7.04733C29.6577 9.62394 30.6888 12.6846 30.6888 15.9996C30.6888 20.08 29.1564 23.6948 26.2063 26.5735C23.4326 29.2802 19.9055 30.7062 15.9848 30.7062C12.0669 30.7062 8.57215 29.2949 5.7769 26.5838C2.82435 23.7201 1.28087 20.0867 1.28087 15.9996C1.28087 11.9181 2.82397 8.27869 5.76251 5.42967C9.09217 2.20149 13.4855 0.780071 18.1122 1.43415ZM14.139 4.17698C8.33075 5.09897 4.03076 10.1161 4.03445 15.9667C4.03677 19.6278 5.63418 22.9991 8.44232 25.2692C10.1768 26.6714 12.1393 27.5331 14.3129 27.8469C15.2029 27.9754 16.7941 27.9734 17.6941 27.8427C22.9854 27.074 27.1487 22.8479 27.8396 17.5443C28.1424 15.2191 27.7425 12.7978 26.7146 10.7317C24.9305 7.14627 21.5985 4.72306 17.6662 4.15159C16.7661 4.02083 15.0448 4.03321 14.139 4.17698ZM16.7357 5.37026C19.4416 5.57607 21.7448 6.66222 23.6553 8.63341C25.073 10.096 26.001 11.8547 26.446 13.9219C26.574 14.5165 26.59 14.7556 26.5868 16.0309C26.5829 17.6117 26.526 18.0067 26.1185 19.284C25.2623 21.9683 23.2445 24.2914 20.6463 25.5844C18.2436 26.7801 15.2233 26.9834 12.6373 26.1236C9.97115 25.2371 7.56903 23.121 6.3792 20.6105C6.01298 19.8378 5.70838 18.9359 5.52368 18.0774C5.39722 17.4894 5.37945 17.2333 5.37945 15.9996C5.37945 14.766 5.39722 14.5099 5.52368 13.9219C5.81763 12.5554 6.34441 11.2757 7.05764 10.1954C7.5781 9.40712 7.74166 9.206 8.43249 8.50521C10.2301 6.68167 12.6116 5.56938 15.1401 5.37226C15.4843 5.3455 15.794 5.31961 15.8284 5.31479C15.8628 5.30998 16.2711 5.33493 16.7357 5.37026ZM15.542 8.36525L15.3591 8.54804V9.34108V10.1341L15.1379 9.94C14.6831 9.54083 14.0451 9.82437 14.0451 10.4256C14.0451 10.6312 14.0848 10.6843 14.9824 11.6844C15.6055 12.3784 15.649 12.4167 15.8724 12.4676C16.1421 12.5291 16.4132 12.3457 16.9547 11.7355C17.8289 10.7504 17.9245 10.6208 17.9245 10.421C17.9245 9.82418 17.2846 9.54251 16.8317 9.94L16.6105 10.1341V9.34108V8.54804L16.4276 8.36525C16.2842 8.22191 16.1887 8.18245 15.9848 8.18245C15.781 8.18245 15.6855 8.22191 15.542 8.36525ZM7.68215 12.3983L7.50658 12.5492L7.48931 15.8835C7.47674 18.3168 7.49175 19.2655 7.54506 19.394C7.70205 19.7728 8.22407 19.8636 8.55363 19.5695C8.75692 19.3881 8.75811 19.3837 8.77951 18.7183L8.80103 18.0496L9.66049 18.9007C10.4933 19.7254 10.5282 19.7519 10.7857 19.7519C11.1605 19.7519 11.4172 19.4952 11.4172 19.1205C11.4172 18.8634 11.3892 18.8262 10.5561 17.9744C10.0825 17.4902 9.61813 17.0083 9.52415 16.9035L9.35334 16.7129L10.2271 16.0029C11.2013 15.2112 11.3076 15.0568 11.1453 14.6686C10.9885 14.2936 10.6093 14.1425 10.2712 14.3205C10.196 14.3601 9.84783 14.6274 9.49743 14.9146C9.14711 15.2018 8.84439 15.4368 8.82481 15.4368C8.80529 15.4368 8.78927 14.8476 8.78927 14.1276C8.78927 13.4075 8.76286 12.7489 8.73051 12.6639C8.56833 12.2376 8.02835 12.1007 7.68215 12.3983ZM23.4386 12.3785C23.3612 12.4506 23.2714 12.579 23.2391 12.6639C23.2053 12.7528 23.1804 14.1685 23.1804 15.9996C23.1804 17.8307 23.2053 19.2465 23.2391 19.3353C23.3843 19.717 23.898 19.887 24.2215 19.6606C24.4925 19.4709 24.4985 19.3834 24.4803 15.8835L24.463 12.5492L24.2875 12.3983C24.0565 12.1997 23.641 12.19 23.4386 12.3785ZM13.5389 14.8014C12.8744 15.0207 12.3247 15.513 11.9942 16.1849C11.8401 16.4982 11.8239 16.5967 11.8239 17.2204C11.8239 17.8709 11.8353 17.9327 12.0263 18.3204C12.2742 18.8239 12.7792 19.3193 13.2785 19.5491C13.5605 19.6788 13.7603 19.72 14.2016 19.7392C14.9416 19.7715 15.3612 19.6234 15.8381 19.1617C16.1266 18.8825 16.1725 18.8054 16.1725 18.6008C16.1725 18.4144 16.127 18.318 15.9598 18.1509C15.6676 17.8589 15.4017 17.8604 15.0477 18.156C14.62 18.5131 14.2007 18.5575 13.7009 18.2986C13.3182 18.1003 13.0976 17.7027 13.0976 17.2111C13.0976 16.259 14.0553 15.7135 14.9524 16.1546C15.3204 16.3355 15.4276 16.3448 15.674 16.2175C16.0575 16.0193 16.1461 15.485 15.8429 15.2003C15.7659 15.128 15.534 14.9913 15.3276 14.8965C14.8332 14.6696 14.0624 14.6286 13.5389 14.8014ZM18.6333 14.8663C17.9347 15.1252 17.3699 15.6774 17.1061 16.3591C16.9145 16.8544 16.9123 17.6417 17.1012 18.1259C17.3804 18.8417 18.0027 19.4341 18.7088 19.656C19.186 19.806 20.0217 19.7676 20.45 19.5761L20.7543 19.44L20.9397 19.5959C21.2632 19.868 21.7287 19.7734 21.9216 19.3964C22.0226 19.1991 22.0183 15.3761 21.9168 15.1536C21.7648 14.8202 21.2625 14.7091 20.9649 14.9431L20.7975 15.0748L20.4716 14.9316C20.0114 14.7294 19.0907 14.6968 18.6333 14.8663ZM20.0645 16.1937C20.1952 16.2603 20.3795 16.4318 20.4741 16.5748C20.6186 16.7929 20.6463 16.9016 20.6463 17.2504C20.6463 17.5992 20.6186 17.7078 20.4741 17.926C20.1622 18.3972 19.429 18.6064 18.9555 18.3593C18.5512 18.1485 18.2359 17.6546 18.2387 17.2368C18.2417 16.7867 18.6985 16.1771 19.0988 16.0889C19.1928 16.0682 19.2979 16.041 19.3323 16.0284C19.4476 15.9863 19.8247 16.0714 20.0645 16.1937ZM15.7092 20.848C15.3897 21.0145 15.3632 21.0971 15.3611 21.9359L15.3591 22.713L15.2183 22.5811C14.7761 22.1671 14.1577 22.3349 14.067 22.8937C14.0468 23.0175 14.0652 23.1746 14.1093 23.2571C14.2183 23.4605 15.5985 24.9875 15.7132 25.0314C15.8345 25.078 16.1354 25.0779 16.2569 25.0313C16.3737 24.9865 17.7487 23.4667 17.8584 23.2611C17.9043 23.1751 17.923 23.0192 17.9026 22.8937C17.8119 22.3349 17.1935 22.1671 16.7513 22.5811L16.6105 22.713V21.9321C16.6105 21.2258 16.598 21.1378 16.4794 21.0106C16.3503 20.8722 16.1108 20.7521 15.9651 20.7529C15.9243 20.7531 15.8092 20.7959 15.7092 20.848Z" fill="#502665"/>
</svg>
