<svg width="32" height="28" viewBox="0 0 32 28" fill="none" xmlns="http://www.w3.org/2000/svg">
<path fill-rule="evenodd" clip-rule="evenodd" d="M8.4375 0.0843089C7.78794 0.222028 7.06475 0.610009 6.59725 1.0716C5.9445 1.71595 5.50219 2.76137 5.50219 3.65963C5.50219 4.05298 5.64444 4.718 5.80544 5.07735L5.9305 5.35643H5.40581C4.18475 5.35643 3.47706 5.72781 3.07175 6.58134L2.90625 6.92983L2.88587 8.82716L2.86544 10.7245L2.66712 10.7249C2.07306 10.7259 1.74869 10.9857 1.752 11.4578C1.75519 11.9128 2.02213 12.1436 2.54519 12.1436H2.875V12.7607V13.3777H1.748C0.535125 13.3777 0.292938 13.4241 0.101938 13.6934C0.045375 13.7731 0 13.9573 0 14.1072C0 14.332 0.0355625 14.4124 0.2125 14.587L0.425 14.7968H1.65H2.875V15.4067V16.0165L2.46944 16.042C1.98181 16.0726 1.75719 16.2124 1.63144 16.5634C1.55338 16.7813 1.55594 16.8316 1.6555 17.0387C1.79919 17.3377 2.02838 17.45 2.49425 17.45H2.86969L2.88794 20.6122L2.90625 23.7745L3.06881 24.1167C3.30081 24.605 3.57525 24.884 4.05075 25.1152C4.43825 25.3036 4.51619 25.3184 5.22294 25.3385L5.98 25.36L6.08787 25.7154C6.30119 26.4185 6.97281 27.2118 7.67131 27.5859C8.0685 27.7986 8.85419 28.0014 9.27563 28C10.7004 27.9952 12.0644 27.0413 12.5017 25.7438L12.6354 25.3472L18.0721 25.363L23.5089 25.3787L23.6332 25.7422C24.0815 27.0533 25.4232 27.9952 26.8494 28C27.2708 28.0014 28.0565 27.7986 28.4537 27.5859C29.161 27.2071 29.8077 26.4482 30.0384 25.7263L30.1562 25.3577L30.8959 25.3374L31.6356 25.317L31.8178 25.1155L32 24.914V20.3781V15.8423L30.4905 13.3914C28.3027 9.83914 28.3367 9.8914 28.1567 9.81038C28.0402 9.758 27.2967 9.73727 25.5326 9.73727H23.0709L23.0511 8.33194L23.0312 6.92662L22.8268 6.51704C22.5924 6.04731 22.3068 5.77372 21.8221 5.55468C21.5441 5.42905 21.3524 5.39543 20.7691 5.37001C20.1468 5.34292 20.0609 5.32626 20.0948 5.23969C20.7141 3.65821 20.4582 2.17335 19.3814 1.10035C18.2259 -0.0510651 16.5524 -0.322862 15.0625 0.398804C14.1411 0.845155 13.5034 1.68146 13.1198 2.94648L12.9805 3.40572L12.7822 2.82128C12.342 1.52443 11.8278 0.862926 10.9143 0.418425C10.0782 0.0116241 9.28494 -0.0953671 8.4375 0.0843089ZM10.1291 1.60323C10.8377 1.92352 11.1341 2.33063 11.4929 3.47613C11.6425 3.95376 11.9375 5.18545 11.9375 5.33237C11.9375 5.34563 10.9836 5.35643 9.81775 5.35643H7.698L7.50731 5.11875C7.40244 4.98801 7.23831 4.73114 7.14269 4.54801C6.99031 4.25622 6.96875 4.14609 6.96875 3.65963C6.96875 3.18724 6.99356 3.05199 7.135 2.75415C7.554 1.87175 8.34856 1.38807 9.31375 1.42781C9.65244 1.44175 9.88019 1.49074 10.1291 1.60323ZM17.4339 1.52505C18.055 1.71589 18.4656 2.0774 18.7722 2.70325C18.9524 3.07093 18.9688 3.15565 18.9688 3.72133C18.9688 4.41875 18.8661 4.69622 18.4494 5.12505L18.2246 5.35643H16.1111H13.9976L14.0302 5.2176C14.0482 5.14128 14.1056 4.87053 14.1577 4.61601C14.3913 3.47569 14.7572 2.48852 15.0901 2.10042C15.6018 1.50389 16.5819 1.26331 17.4339 1.52505ZM21.4125 6.98536L21.625 7.19515V15.5619V23.9287H17.1341H12.6431L12.4797 23.4919C11.6247 21.2054 8.69244 20.5502 6.93875 22.2538C6.51531 22.6652 6.21875 23.1417 6.05969 23.6665L5.98019 23.9287H5.39931C4.74694 23.9287 4.56706 23.8724 4.41656 23.6208C4.32331 23.465 4.3125 23.1352 4.3125 20.4485V17.45H5.87813C7.5765 17.45 7.70263 17.4287 7.87406 17.1123C7.99481 16.8897 7.98513 16.5746 7.85138 16.3731C7.64556 16.0629 7.45481 16.0309 5.8145 16.0309H4.3125V15.4138V14.7968H5.87813C7.5765 14.7968 7.70263 14.7755 7.87406 14.4591C7.99481 14.2365 7.98513 13.9214 7.85138 13.7199C7.64556 13.4097 7.45481 13.3777 5.8145 13.3777H4.3125V12.7607V12.1436L5.89062 12.1434C7.34456 12.1432 7.48444 12.1337 7.6685 12.023C8.07769 11.7766 8.06681 11.1388 7.64881 10.8681C7.49387 10.7678 7.29931 10.7532 5.89087 10.736L4.30713 10.7168L4.32544 8.93767C4.34269 7.25919 4.35081 7.15078 4.46875 7.02146C4.5375 6.94612 4.65 6.86171 4.71875 6.83388C4.7875 6.80612 8.52388 6.78162 13.0219 6.77946L21.2 6.77558L21.4125 6.98536ZM27.8191 11.7734L28.1784 12.3596L26.4653 12.3905L24.7522 12.4213L24.5479 12.623L24.3438 12.8247V15.1979V17.5711L24.548 17.7728L24.7523 17.9745L27.6886 17.9922L30.625 18.01V20.9693V23.9287L30.3906 23.9282C30.1595 23.9277 30.1547 23.9226 30.0419 23.5653C29.8921 23.0909 29.5173 22.5322 29.0901 22.1468C28.2472 21.3862 26.9604 21.1006 25.8564 21.429C24.8459 21.7296 23.964 22.5649 23.6336 23.5344C23.5158 23.8797 23.4985 23.8988 23.2861 23.917L23.0625 23.9362V17.5455V11.1548L25.2612 11.171L27.4598 11.1873L27.8191 11.7734ZM29.8564 15.0745C30.2771 15.7532 30.6221 16.371 30.6232 16.4474L30.625 16.5862H28.1875H25.75V15.1969V13.8076L27.4207 13.824L29.0914 13.8404L29.8564 15.0745ZM10.1106 22.879C10.5231 23.0549 10.9909 23.5474 11.1409 23.9637C11.2773 24.3422 11.2815 24.9261 11.1505 25.3057C11.0208 25.6814 10.5646 26.1773 10.1642 26.3776C8.88156 27.0192 7.34375 26.0682 7.34375 24.6334C7.34375 24.253 7.37313 24.1371 7.5625 23.7706C7.80944 23.2927 8.213 22.9397 8.6875 22.7866C9.07238 22.6624 9.69781 22.703 10.1106 22.879ZM27.6636 22.8832C28.0521 23.069 28.4317 23.446 28.6229 23.8362C28.8379 24.275 28.8379 25.0015 28.6229 25.4404C28.4306 25.8329 28.014 26.2455 27.6373 26.4165C27.2072 26.6118 26.3911 26.606 26 26.4049C25.6171 26.208 25.2723 25.8721 25.0733 25.5021C24.9292 25.2341 24.9074 25.1206 24.9074 24.6383C24.9074 24.1562 24.9294 24.0418 25.0739 23.7706C25.2389 23.4606 25.6041 23.0849 25.8851 22.9358C26.4076 22.6585 27.1474 22.6366 27.6636 22.8832ZM8.9375 23.6859C8.679 23.7926 8.37669 24.1252 8.3075 24.3791C8.17981 24.8471 8.40275 25.3222 8.85038 25.5361C9.542 25.8666 10.3125 25.4033 10.3125 24.6569C10.3125 24.2872 10.1949 24.0493 9.90369 23.8301C9.65706 23.6443 9.20231 23.5765 8.9375 23.6859ZM26.4064 23.7174C26.1331 23.8581 25.9937 23.9958 25.8976 24.2198C25.6199 24.8675 26.04 25.575 26.7416 25.6416C27.3093 25.6955 27.7939 25.2908 27.8569 24.7104C27.9352 23.9887 27.0529 23.3846 26.4064 23.7174Z" fill="#502665"/>
</svg>
