<svg width="19" height="32" viewBox="0 0 19 32" fill="none" xmlns="http://www.w3.org/2000/svg">
<path fill-rule="evenodd" clip-rule="evenodd" d="M2.87542 0.0930147C2.20802 0.279281 1.74103 0.561493 1.17359 1.12135C0.747163 1.54208 0.585993 1.75429 0.404419 2.13394C-0.145873 3.28473 -0.134733 4.39502 0.438781 5.56018C0.65841 6.00628 0.796484 6.18467 1.30015 6.67253C1.89726 7.25095 1.89995 7.25496 1.89194 7.54761C1.84606 9.22206 1.8582 9.54634 1.99077 10.1815C2.15557 10.971 2.46689 11.8019 2.83911 12.4453C2.99127 12.7083 3.13379 12.9951 3.15576 13.0827C3.22899 13.3738 3.07414 13.6667 2.69165 13.9606C2.20044 14.3381 1.6079 14.9837 1.35122 15.4211C0.805246 16.3513 0.617225 17.1449 0.618728 18.5118C0.620355 19.9401 0.793792 20.5841 1.38802 21.3682L1.6914 21.7685L1.40962 22.3683C0.631246 24.0248 0.258834 25.5671 0.197496 27.388C0.156875 28.5945 0.214583 29.0001 0.520148 29.656C0.943132 30.5643 1.62048 31.2403 2.52666 31.6587C3.08278 31.9154 3.48986 32 4.16872 32C4.84763 32 5.39849 31.8662 6.00486 31.5541C6.86835 31.1096 7.55009 30.3454 7.88601 29.4455C8.05775 28.9856 8.13856 28.9339 8.8785 28.8112C9.41483 28.7222 10.1931 28.763 10.6726 28.9052C10.9792 28.9962 10.9956 29.0127 11.1227 29.3591C11.5774 30.5981 12.6596 31.5793 13.9271 31.9021C14.4813 32.0432 15.3787 32.0294 15.9535 31.871C17.2131 31.5238 18.2519 30.5332 18.6841 29.2671C19.1874 27.7926 18.7582 24.8469 17.6918 22.4567L17.3762 21.7495L17.6318 21.4188C18.2114 20.6685 18.3915 20.042 18.3925 18.7727C18.3942 16.6582 17.9263 15.4896 16.577 14.2381C15.7089 13.4329 15.6838 13.3349 16.1467 12.5569C16.4933 11.9742 16.8088 11.2026 17.0013 10.4669C17.1488 9.903 17.1658 9.71942 17.1748 8.5917C17.1803 7.90414 17.1892 7.30702 17.1944 7.26471C17.1997 7.22245 17.4662 6.92711 17.7866 6.6084C18.4358 5.96272 18.7476 5.44998 18.9284 4.73136C19.0149 4.38758 19.0205 4.27663 18.9588 4.12793C18.8559 3.87972 18.5812 3.7689 18.3283 3.87353C18.11 3.96379 18.0518 4.05492 17.9896 4.40383C17.8919 4.95107 17.5869 5.43898 16.9541 6.06023C16.1533 6.84636 16.1228 6.93243 16.1786 8.24717C16.2433 9.76799 16.062 10.5524 15.3081 12.0138C14.8893 12.8257 14.8651 12.8955 14.8687 13.2785C14.8744 13.8932 15.0875 14.2759 15.71 14.7902C16.2032 15.1977 16.6488 15.7129 16.8559 16.1149C16.9154 16.2305 16.9406 16.3136 16.9119 16.2996C16.8833 16.2857 16.6743 16.1836 16.4475 16.0728C16.0161 15.862 15.3365 15.689 14.9325 15.6871C14.5315 15.6853 13.7592 15.8735 13.35 16.0727C12.7987 16.3412 12.5724 16.5628 12.5724 16.8344C12.5724 17.2361 13.0633 17.4518 13.3932 17.195C13.9748 16.7425 14.7875 16.5854 15.5379 16.7806C16.2491 16.9656 16.8723 17.4899 17.1928 18.1727C17.3429 18.4924 17.3605 18.6025 17.3605 19.2176C17.3605 19.8327 17.3429 19.9428 17.1928 20.2626C16.7201 21.2697 15.5882 21.8728 14.5193 21.6869C13.1938 21.4564 12.3035 20.3315 12.4033 19.0134C12.4377 18.5585 12.4332 18.5377 12.2601 18.3649C11.8923 17.9976 11.4893 18.2224 11.4123 18.8378C11.2446 20.1788 12.0248 21.6501 13.2477 22.299C14.0501 22.7248 15.1115 22.8117 16.0175 22.5259C16.2979 22.4374 16.5381 22.3758 16.5513 22.389C16.6986 22.5361 17.3489 24.2283 17.4935 24.8407L17.5372 25.0259L17.2803 24.8227C16.9634 24.572 16.2225 24.229 15.7703 24.1236C15.2846 24.0103 14.3705 24.0242 13.8868 24.1523C12.7702 24.4478 11.8246 25.2298 11.3133 26.2808C11.0872 26.7452 10.8861 27.458 10.8835 27.8032C10.8827 27.9135 10.8568 27.9407 10.7804 27.9114C10.7242 27.8899 10.4168 27.8393 10.0972 27.7989C9.54884 27.7298 8.76903 27.7779 8.27876 27.9111C8.15708 27.9441 8.14469 27.9154 8.11002 27.52C8.06339 26.9886 7.90723 26.527 7.73285 26.405C7.55221 26.2786 7.29572 26.2881 7.12341 26.4274C6.94747 26.5697 6.94165 26.7849 7.09518 27.4675C7.24083 28.1152 7.16353 28.7042 6.84908 29.3435C6.33239 30.3938 5.33809 31.0078 4.15401 31.0078C3.25615 31.0078 2.58437 30.714 1.94952 30.0436C0.600201 28.6189 1.03633 26.237 2.80869 25.3515C3.70398 24.9042 4.5517 24.9079 5.53762 25.3634C6.0006 25.5773 6.10344 25.6039 6.25935 25.5496C6.47191 25.4756 6.56373 25.331 6.56373 25.0705C6.56373 24.8549 6.47247 24.7486 6.1005 24.5309C4.89858 23.8275 3.20683 23.8839 2.01361 24.6672C1.81389 24.7983 1.61654 24.9274 1.5751 24.9539C1.44004 25.0407 1.82221 23.8755 2.24344 22.9163L2.5015 22.3287L2.88962 22.4874C3.20514 22.6164 3.41238 22.6512 3.99753 22.6734C4.65053 22.6981 4.76276 22.6854 5.20727 22.5362C5.80445 22.3358 6.23995 22.0646 6.67057 21.6251C7.72728 20.5464 7.93771 18.7873 7.17135 17.4384C6.8773 16.9209 6.28533 16.3658 5.74348 16.0994C5.27005 15.8668 4.59064 15.6891 4.16703 15.6871C3.56147 15.6844 2.46457 16.0418 2.1038 16.3594C1.70623 16.7095 2.2713 15.7355 2.74573 15.253C2.93506 15.0604 3.25571 14.7648 3.45832 14.596C3.93976 14.1949 4.14875 13.7654 4.14443 13.1859C4.14161 12.8054 4.11163 12.7219 3.67325 11.8732C2.96473 10.5015 2.72257 9.37508 2.86208 8.10022C2.97525 7.06631 2.82998 6.69984 2.01399 5.96072C1.48084 5.4778 1.23968 5.10383 1.08915 4.52665C0.584365 2.59136 2.25358 0.730633 4.24745 1.00603C4.77496 1.07891 5.30285 1.33237 5.82667 1.76429C6.51484 2.33165 6.89408 2.40109 7.98415 2.15945C9.12748 1.90605 10.1358 1.91474 11.2043 2.18714C12.1067 2.41722 12.5717 2.32059 13.207 1.77091C14.104 0.994844 15.1502 0.774762 16.1826 1.14486C16.7032 1.3315 17.2371 1.7521 17.5489 2.22108C17.8749 2.71162 18.1045 2.80013 18.4161 2.55536C18.6792 2.34877 18.645 2.03537 18.3098 1.58065C17.7712 0.850019 16.9757 0.311346 16.1112 0.0918896C15.6746 -0.0189327 14.8468 -0.0316213 14.3749 0.0653247C13.8803 0.166959 13.0893 0.569681 12.6787 0.928838C12.1597 1.38288 12.1477 1.38419 10.9137 1.11929C10.3723 1.00309 10.157 0.989406 9.31769 1.01803C8.66406 1.04035 8.16478 1.09329 7.78743 1.18049C6.97857 1.36725 6.87561 1.35656 6.5206 1.04885C6.07283 0.660814 5.54482 0.337224 5.10682 0.182335C4.59176 0.000194 3.38152 -0.0482477 2.87542 0.0930147ZM3.13585 1.97662C2.75593 2.11088 2.2298 2.6133 2.05179 3.01183C1.93975 3.26267 1.90464 3.453 1.90464 3.81003C1.90464 4.42915 2.08008 4.82918 2.53267 5.24228C2.92555 5.60081 3.30572 5.7477 3.84106 5.7477C4.37639 5.7477 4.75656 5.60081 5.14944 5.24228C5.60203 4.82918 5.77747 4.42915 5.77747 3.81003C5.77747 3.453 5.74236 3.26267 5.63032 3.01183C5.44568 2.59848 4.92405 2.11 4.5206 1.97274C4.15632 1.84879 3.4923 1.85061 3.13585 1.97662ZM14.5981 1.9368C14.2601 2.04087 13.8011 2.39134 13.5903 2.70637C13.3229 3.1059 13.241 3.43443 13.2751 3.97048C13.3204 4.68279 13.6787 5.22159 14.3423 5.57525C14.5632 5.69301 14.7042 5.71607 15.2012 5.71607C15.6981 5.71607 15.8391 5.69301 16.06 5.57525C16.4791 5.35191 16.7454 5.08164 16.9507 4.67123C17.1136 4.34576 17.1415 4.22 17.1415 3.81003C17.1415 3.40005 17.1136 3.27429 16.9507 2.94883C16.6049 2.25758 16.0805 1.92374 15.2951 1.89486C15.0197 1.88473 14.706 1.90361 14.5981 1.9368ZM4.32062 2.97245C4.85927 3.24729 4.97331 4.03567 4.53731 4.47109C4.13079 4.87706 3.53117 4.87156 3.14092 4.45833C2.38997 3.66314 3.33677 2.4706 4.32062 2.97245ZM15.4983 2.87157C15.5412 2.87207 15.6888 2.97389 15.8263 3.09797C16.277 3.50463 16.2939 4.07605 15.8672 4.48903C15.1785 5.15565 14.053 4.5179 14.2646 3.58095C14.3603 3.15728 14.9073 2.76681 15.2951 2.84538C15.3639 2.85932 15.4553 2.87113 15.4983 2.87157ZM5.9618 5.64781C5.27243 5.9684 4.91517 6.83786 5.14637 7.63224C5.28989 8.12516 5.56817 8.47731 5.95723 8.6582C6.56949 8.94285 7.14287 8.81441 7.60623 8.2888C8.16654 7.65312 8.16654 6.65503 7.60623 6.01935C7.14431 5.4953 6.56923 5.36535 5.9618 5.64781ZM11.9465 5.62794C11.5774 5.79501 11.4049 5.96209 11.2135 6.33756C10.7832 7.18189 11.0891 8.23879 11.8794 8.63858C12.8823 9.14581 13.9572 8.3778 13.9572 7.15407C13.9572 5.97684 12.918 5.18809 11.9465 5.62794ZM6.90178 6.70547C7.32288 7.27114 6.71689 8.1496 6.24884 7.65199C6.12434 7.51973 6.0943 7.42284 6.0943 7.15407C6.0943 6.8853 6.12434 6.78841 6.24884 6.65615C6.45144 6.4407 6.71976 6.46095 6.90178 6.70547ZM12.8478 6.70547C13.1341 7.08994 12.9386 7.75681 12.5276 7.79807C12.0015 7.85094 11.8157 6.88236 12.2871 6.54396C12.4249 6.44507 12.7165 6.52908 12.8478 6.70547ZM8.6138 8.90491C7.7023 9.07762 7.00086 9.4414 6.44243 10.0311C5.96123 10.5392 5.844 10.839 5.84432 11.5607C5.8445 12.0913 5.86341 12.1903 6.02163 12.491C6.23256 12.8916 6.66587 13.3702 6.9623 13.5296C7.14525 13.628 7.20271 13.6331 7.36507 13.566C7.58269 13.476 7.72283 13.1986 7.66569 12.9711C7.64428 12.886 7.52342 12.7378 7.39712 12.6417C6.5974 12.0335 6.6225 11.0342 7.45263 10.4336L7.72164 10.239L7.7679 10.5092C7.79331 10.6578 7.89264 10.891 7.98859 11.0275C8.82411 12.2158 10.9907 11.9262 11.3298 10.5809C11.4068 10.276 11.455 10.2812 11.8151 10.6336C12.3861 11.1924 12.3932 11.881 11.8339 12.4545C11.3282 12.973 10.6194 13.2412 9.61475 13.2942C8.98797 13.3272 8.92694 13.3417 8.81403 13.4851C8.65061 13.6926 8.66 13.8921 8.84313 14.1043C8.99216 14.2769 9.00455 14.2795 9.64116 14.269C11.3941 14.2401 12.8261 13.3584 13.1677 12.0978C13.5294 10.7638 12.5601 9.48965 10.8087 8.99698C10.2003 8.82584 9.24302 8.78572 8.6138 8.90491ZM10.1135 9.97532C10.4619 10.2351 10.4606 10.387 10.1077 10.6502C9.88933 10.813 9.31475 10.8212 9.02127 10.6657C8.80239 10.5497 8.69573 10.2947 8.79682 10.129C8.9926 9.80818 9.7679 9.71767 10.1135 9.97532ZM5.0794 16.8735C5.31455 16.9617 5.57186 17.1299 5.81371 17.3535C7.37508 18.7971 6.63558 21.3081 4.53612 21.6914C3.57811 21.8664 2.47315 21.3414 1.96016 20.4677C1.64871 19.9373 1.54594 19.1843 1.70417 18.5926C2.09974 17.1139 3.63539 16.3318 5.0794 16.8735ZM15.4244 25.0671C16.8177 25.3213 17.8925 26.5975 17.8925 27.9978C17.8925 29.8356 16.2778 31.2473 14.4657 30.9939C13.2903 30.8295 12.2799 29.9291 11.9798 28.7788C11.71 27.7439 12.0086 26.6754 12.7839 25.9022C13.5045 25.1835 14.4401 24.8876 15.4244 25.0671Z" fill="#502665"/>
</svg>
