<svg width="32" height="32" viewBox="0 0 32 32" fill="none" xmlns="http://www.w3.org/2000/svg">
<path fill-rule="evenodd" clip-rule="evenodd" d="M13.9408 0.081951C11.771 0.387795 9.47309 1.19884 7.63653 2.30697C6.27415 3.12908 4.47606 4.71151 3.49115 5.9554C1.73323 8.17547 0.632878 10.6907 0.139982 13.6156C-0.0137426 14.528 -0.0484668 16.703 0.073975 17.7555C0.627059 22.5119 3.12964 26.6403 7.05854 29.2774C9.75658 31.0883 12.7518 32 16.004 32C20.3651 32 24.2623 30.3878 27.3319 27.3138C29.7929 24.8495 31.2804 21.9282 31.877 18.3885C32.0408 17.4166 32.0411 14.5741 31.8774 13.5843C31.2808 9.97615 29.6899 6.92264 27.1044 4.42305C24.7914 2.18697 22.0013 0.785312 18.6327 0.167182C17.6685 -0.00972096 14.9427 -0.0592463 13.9408 0.081951ZM17.7261 1.92971C20.2366 2.22161 22.9098 3.34212 24.8475 4.91462C25.0867 5.10872 25.3419 5.31582 25.4146 5.37485C25.545 5.48078 25.5015 5.52755 22.2064 8.82318C19.1262 11.9038 18.8462 12.1673 18.614 12.2044C18.4632 12.2286 18.346 12.2186 18.3219 12.1797C18.2999 12.144 18.176 11.5309 18.0466 10.8173C17.9174 10.1036 17.7701 9.37084 17.7194 9.18887C17.6053 8.77941 17.2789 8.40397 16.9243 8.27459C16.5647 8.14327 11.5854 7.23731 11.2234 7.23731C11.0628 7.23731 10.8413 7.28327 10.7312 7.33948C10.6211 7.3957 9.51739 8.05866 8.27858 8.81268C6.83374 9.69213 5.94336 10.2734 5.79514 10.4341C5.63404 10.6088 5.543 10.7827 5.49426 11.0089C5.42932 11.3104 5.46874 11.5702 6.05536 14.7099C6.40235 16.5671 6.71612 18.1788 6.75266 18.2914C6.84313 18.5706 7.08932 18.8495 7.37294 18.9941C7.51102 19.0646 8.35166 19.2508 9.39845 19.4429C10.3826 19.6236 11.1879 19.7864 11.1879 19.8047C11.1879 19.8231 9.91018 21.1149 8.34853 22.6753L5.50915 25.5127L5.11073 25.0307C3.35676 22.9091 2.21004 20.1763 1.92293 17.4339C1.82145 16.4645 1.88476 14.4849 2.04512 13.6156C2.32041 12.1225 2.68317 11.0237 3.33523 9.70732C4.07727 8.2093 4.85409 7.12744 6.02864 5.95621C9.10708 2.88651 13.3613 1.42208 17.7261 1.92971ZM26.9332 6.95635C28.5722 8.92129 29.6432 11.3454 30.0551 14.022C30.2013 14.9723 30.2033 16.8952 30.0591 17.899C29.1283 24.3781 24.0571 29.3209 17.5774 30.0646C16.709 30.1642 14.4749 30.1096 13.7218 29.9703C12.9071 29.8196 12.0537 29.5967 11.3082 29.3399C9.89698 28.8538 8.09326 27.8327 6.94142 26.868L6.48018 26.4816L9.66279 23.3003C12.6867 20.2776 12.8567 20.1189 13.0708 20.1189H13.2962L13.2394 20.4785C13.1449 21.0771 13.3185 21.602 13.7056 21.8883C13.8177 21.9712 14.9777 22.6398 16.2831 23.3739C18.4576 24.5968 18.6859 24.7108 19.0047 24.7327C19.5019 24.7669 24.6247 23.6188 24.9675 23.3963C25.3412 23.1538 25.4983 22.8551 25.6054 22.1825C25.9365 20.1038 26.5224 15.9709 26.5238 15.7035C26.5259 15.3118 26.4097 15.0206 26.1504 14.7684C26.0421 14.663 25.0314 14.0592 23.9045 13.4267C22.7775 12.7942 21.69 12.1805 21.4878 12.0631L21.1203 11.8495L23.8026 9.16817C25.2779 7.69342 26.5035 6.49386 26.5263 6.50249C26.5491 6.51112 26.7322 6.71535 26.9332 6.95635ZM15.6152 9.37546C15.7214 9.39591 11.9488 11.7384 11.8047 11.7414C11.5908 11.7459 7.49613 10.9593 7.51102 10.9165C7.52022 10.8899 8.37237 10.3525 9.40464 9.72214L11.2816 8.57612L13.3985 8.96619C14.5628 9.18074 15.5603 9.3649 15.6152 9.37546ZM16.7869 11.479C16.9263 12.2249 16.9678 12.57 16.9198 12.5854C16.8815 12.5977 16.4293 12.6999 15.9148 12.8122C15.1565 12.9779 14.9317 13.0527 14.7261 13.2071C14.2919 13.5335 14.2317 13.7393 13.8984 16.0337C13.7327 17.1745 13.5898 18.1005 13.5807 18.0914C13.5716 18.0824 13.3379 16.8535 13.0613 15.3607L12.5584 12.6463L12.6975 12.5525C12.774 12.5009 13.6693 11.9483 14.687 11.3245C16.1172 10.4478 16.5426 10.2135 16.5608 10.2927C16.5737 10.3491 16.6755 10.8829 16.7869 11.479ZM9.3422 12.4317C10.4778 12.6416 11.4245 12.832 11.4461 12.8549C11.5092 12.9218 12.5282 18.55 12.485 18.5932C12.4531 18.6251 8.45389 17.9282 8.11829 17.8322C8.04214 17.8104 7.9055 17.1805 7.49857 14.9751C7.21145 13.4192 6.96263 12.1077 6.94561 12.0609C6.92221 11.9966 6.95906 11.9848 7.09608 12.0129C7.19587 12.0334 8.20663 12.2219 9.3422 12.4317ZM22.6702 14.2878C23.7531 14.8982 24.6393 15.4135 24.6394 15.4328C24.6396 15.452 23.6328 15.6924 22.4023 15.967L20.1649 16.4661L18.15 15.3379C17.0418 14.7173 16.1341 14.1949 16.1329 14.1769C16.1316 14.1589 16.56 14.0514 17.0848 13.938C17.6095 13.8246 18.5598 13.6101 19.1964 13.4612C19.833 13.3123 20.432 13.1876 20.5275 13.1842C20.6443 13.1799 21.3443 13.5404 22.6702 14.2878ZM17.4507 16.2208C18.5313 16.8283 19.426 17.3338 19.4391 17.3441C19.4588 17.3596 18.6368 23.0668 18.6101 23.0999C18.6012 23.1108 14.615 20.8761 14.5788 20.8399C14.5678 20.8289 14.6565 20.1768 14.776 19.3907C14.8954 18.6047 15.0863 17.3214 15.2001 16.5389C15.314 15.7565 15.4249 15.1163 15.4466 15.1163C15.4683 15.1163 16.3701 15.6133 17.4507 16.2208ZM24.6503 19.3655C24.3395 21.4569 24.2045 22.2166 24.1369 22.2552C23.9964 22.3354 19.8117 23.256 19.7713 23.2156C19.7391 23.1835 20.5452 17.5565 20.5866 17.5244C20.6102 17.506 25.0429 16.5114 25.0592 16.5208C25.0663 16.5249 24.8823 17.805 24.6503 19.3655Z" fill="#502665"/>
</svg>
